<svg enable-background="new 0 0 512 512" height="30" viewBox="0 0 512 512" width="30" xmlns="http://www.w3.org/2000/svg" version="1.1" xmlns:xlink="http://www.w3.org/1999/xlink" xmlns:svgjs="http://svgjs.dev/svgjs"><g width="100%" height="100%" transform="matrix(1,0,0,1,0,0)"><g id="slider_interface_navigation_website_ui_horizontal_sliders"><path d="m149.25 266c24.362 0 47.563-7.37 67.317-21.35h167.533c52.604 0 95.4-42.796 95.4-95.4s-42.797-95.399-95.4-95.399h-167.53c-19.757-13.98-42.958-21.351-67.32-21.351-64.376 0-116.75 52.374-116.75 116.75s52.374 116.75 116.75 116.75zm85.408-180.8h149.442c35.319 0 64.05 28.73 64.05 64.05s-28.73 64.05-64.05 64.05h-149.442c27.241-36.268 29.651-88.624 0-128.1zm-85.408-21.349c47.078 0 85.399 38.311 85.399 85.399s-38.321 85.4-85.399 85.4c-47.079 0-85.4-38.312-85.4-85.4s38.321-85.399 85.4-85.399zm213.5 182.149c-24.362 0-47.563 7.371-67.319 21.351h-167.532c-52.604 0-95.399 42.796-95.399 95.399s42.796 95.4 95.399 95.4h167.532c19.755 13.979 42.955 21.35 67.318 21.35 64.376 0 116.75-52.374 116.75-116.75s-52.373-116.75-116.749-116.75zm-85.409 180.8h-149.442c-35.319 0-64.05-28.73-64.05-64.05s28.73-64.05 64.05-64.05h149.441c-26.882 35.793-29.985 88.175.001 128.1zm85.409 21.35c-47.079 0-85.4-38.312-85.4-85.4s38.321-85.399 85.4-85.399c47.078 0 85.399 38.311 85.399 85.399s-38.321 85.4-85.399 85.4zm-230.431-96.075h80.98v21.35h-80.98l24.478 24.478-15.095 15.096-50.248-50.249 50.248-50.247 15.095 15.095zm247.361-192.15h-80.98v-21.35h80.98l-24.478-24.478 15.095-15.095 50.248 50.247-50.248 50.248-15.095-15.096z" fill="#000000" fill-opacity="1" data-original-color="#000000ff" stroke="none" stroke-opacity="1"/></g><g id="Capa_1"/></g></svg>