<svg viewBox="0 0 24 24" xmlns="http://www.w3.org/2000/svg" width="35" height="35" fill="#ffffff"><g id="Icon"><path d="m10.13 10.5a.75.75 0 0 0 -1.5 0 .75.75 0 0 1 -1.5 0 2.25 2.25 0 0 1 4.5 0 3.17 3.17 0 0 1 -1.76 2.84l-.32.16a1.7 1.7 0 0 0 -.75.75h2.08a.75.75 0 1 1 0 1.5h-3a.75.75 0 0 1 -.75-.75 3.16 3.16 0 0 1 1.75-2.84l.32-.16a1.68 1.68 0 0 0 .93-1.5zm3.87-2.24a.76.76 0 0 0 -.88.59l-.75 3.75a.79.79 0 0 0 .15.63.78.78 0 0 0 .59.27h2.25v1.5a.75.75 0 1 0 1.5 0v-6a.75.75 0 1 0 -1.5 0v3h-1.36l.57-2.85a.76.76 0 0 0 -.57-.89zm4.87-3.15a9.72 9.72 0 0 0 -13.62-.11v-1a.74.74 0 0 0 -.71-.79.74.74 0 0 0 -.73.79l-.15 2.78a.78.78 0 0 0 .19.54.73.73 0 0 0 .52.24l2.82.15a.75.75 0 0 0 .81-.71.76.76 0 0 0 -.71-.79h-1.08a8.24 8.24 0 0 1 11.62 11.62 8.24 8.24 0 0 1 -14.08-5.83.75.75 0 0 0 -1.5 0 9.75 9.75 0 1 0 16.64-6.89z"/></g></svg>