<svg xmlns="http://www.w3.org/2000/svg" version="1.1" xmlns:xlink="http://www.w3.org/1999/xlink" width="20" height="20" x="0" y="0" viewBox="0 0 24 24" style="enable-background:new 0 0 512 512" xml:space="preserve"><g><g fill="#000"><path d="M8.75 5.5a.75.75 0 0 1 .75-.75h9a.75.75 0 0 1 .75.75v9a.75.75 0 0 1-1.5 0V6.25H9.5a.75.75 0 0 1-.75-.75z" fill="#ffffff" opacity="1" data-original="#000000"></path><path d="M19.03 4.97a.75.75 0 0 1 0 1.06L6.302 18.758a.75.75 0 1 1-1.06-1.06L17.969 4.97a.75.75 0 0 1 1.061 0z" fill="#ffffff" opacity="1" data-original="#000000"></path></g></g></svg>