<svg xmlns="http://www.w3.org/2000/svg" version="1.1" xmlns:xlink="http://www.w3.org/1999/xlink" width="20" height="20" x="0" y="0" viewBox="0 0 682.667 682.667" style="enable-background:new 0 0 512 512" xml:space="preserve" class=""><g><defs><clipPath id="b" clipPathUnits="userSpaceOnUse"><path d="M0 512h512V0H0Z" fill="#000000" opacity="1" data-original="#000000"></path></clipPath></defs><mask id="a"><rect width="100%" height="100%" fill="#ffffff" opacity="1" data-original="#ffffff"></rect><path d="M0 0c-11.046 0-20-8.954-20-20s8.954-20 20-20 20 8.954 20 20S11.046 0 0 0" style="fill-opacity:1;fill-rule:nonzero;stroke:none" transform="matrix(1.33333 0 0 -1.33333 166.667 253.333)" fill="#ffffff" data-original="#ffffff"></path><path d="M0 0c-11.046 0-20-8.954-20-20s8.954-20 20-20 20 8.954 20 20S11.046 0 0 0" style="fill-opacity:1;fill-rule:nonzero;stroke:none" transform="matrix(1.33333 0 0 -1.33333 282.667 253.333)" fill="#ffffff" data-original="#ffffff"></path><path d="M0 0c-11.046 0-20-8.954-20-20s8.954-20 20-20 20 8.954 20 20S11.046 0 0 0" style="fill-opacity:1;fill-rule:nonzero;stroke:none" transform="matrix(1.33333 0 0 -1.33333 398.667 253.333)" fill="#ffffff" data-original="#ffffff"></path><path d="M0 0c-11.046 0-20-8.954-20-20s8.954-20 20-20 20 8.954 20 20S11.046 0 0 0" style="fill-opacity:1;fill-rule:nonzero;stroke:none" transform="matrix(1.33333 0 0 -1.33333 514.667 253.333)" fill="#ffffff" data-original="#ffffff"></path><path d="M0 0c0 11.046-8.954 20-20 20s-20-8.954-20-20 8.954-20 20-20S0-11.046 0 0" style="fill-opacity:1;fill-rule:nonzero;stroke:none" transform="matrix(1.33333 0 0 -1.33333 193.333 396)" fill="#ffffff" data-original="#ffffff"></path><path d="M0 0c0 11.046-8.954 20-20 20s-20-8.954-20-20 8.954-20 20-20S0-11.046 0 0" style="fill-opacity:1;fill-rule:nonzero;stroke:none" transform="matrix(1.33333 0 0 -1.33333 193.333 512)" fill="#ffffff" data-original="#ffffff"></path><path d="M0 0c0 11.046-8.954 20-20 20s-20-8.954-20-20 8.954-20 20-20S0-11.046 0 0" style="fill-opacity:1;fill-rule:nonzero;stroke:none" transform="matrix(1.33333 0 0 -1.33333 309.333 396)" fill="#ffffff" data-original="#ffffff"></path><path d="M0 0c0 11.046-8.954 20-20 20s-20-8.954-20-20 8.954-20 20-20S0-11.046 0 0" style="fill-opacity:1;fill-rule:nonzero;stroke:none" transform="matrix(1.33333 0 0 -1.33333 309.333 512)" fill="#ffffff" data-original="#ffffff"></path><path d="M0 0c-11.046 0-20-8.954-20-20s8.954-20 20-20 20 8.954 20 20S11.046 0 0 0" style="fill-opacity:1;fill-rule:nonzero;stroke:none" transform="matrix(1.33333 0 0 -1.33333 282.667 253.333)" fill="#ffffff" data-original="#ffffff"></path><path d="M0 0c0 11.046-8.954 20-20 20s-20-8.954-20-20 8.954-20 20-20S0-11.046 0 0" style="fill-opacity:1;fill-rule:nonzero;stroke:none" transform="matrix(1.33333 0 0 -1.33333 309.333 396)" fill="#ffffff" data-original="#ffffff"></path><path d="M0 0c0 11.046-8.954 20-20 20s-20-8.954-20-20 8.954-20 20-20S0-11.046 0 0" style="fill-opacity:1;fill-rule:nonzero;stroke:none" transform="matrix(1.33333 0 0 -1.33333 309.333 512)" fill="#ffffff" data-original="#ffffff"></path><path d="M0 0h-28.364c-4.287 0-8.086 1.673-9.411 5.732l-8.904 27.46C-48.16 37.731-52.125 40-56.09 40s-7.93-2.269-9.411-6.808l-8.904-27.46C-75.729 1.673-79.529 0-83.816 0h-28.323c-9.587 0-13.572-13.289-5.817-18.898l22.821-16.862a9.828 9.828 0 0 0 3.594-11.015l-8.903-27.284c-2.962-9.077 7.472-16.625 15.228-11.015l23.31 16.867a9.913 9.913 0 0 0 5.816 1.881 9.916 9.916 0 0 0 5.817-1.881l23.31-16.867c7.755-5.61 18.19 1.938 15.227 11.015l-8.903 27.284a9.827 9.827 0 0 0 3.595 11.015l22.86 16.862C13.572-13.289 9.586 0 0 0" style="fill-opacity:1;fill-rule:nonzero;stroke:none" transform="matrix(1.33333 0 0 -1.33333 529.453 422.667)" fill="#ffffff" data-original="#ffffff"></path></mask><g mask="url(#a)"><g clip-path="url(#b)" transform="matrix(1.33333 0 0 -1.33333 0 682.667)"><path d="M0 0c0-33.137-26.863-60-60-60h-352c-33.137 0-60 26.863-60 60v312c0 33.137 26.863 60 60 60h352c33.137 0 60-26.863 60-60V100" style="stroke-width:40;stroke-linecap:round;stroke-linejoin:round;stroke-miterlimit:10;stroke-dasharray:none;stroke-opacity:1" transform="translate(492 80)" fill="none" stroke="#000000" stroke-width="40" stroke-linecap="round" stroke-linejoin="round" stroke-miterlimit="10" stroke-dasharray="none" stroke-opacity="" data-original="#000000" class=""></path><path d="M0 0c-11.046 0-20-8.954-20-20s8.954-20 20-20 20 8.954 20 20S11.046 0 0 0" style="fill-opacity:1;fill-rule:nonzero;stroke:none" transform="translate(125 322)" fill="#000000" data-original="#000000"></path><path d="M0 0c-11.046 0-20-8.954-20-20s8.954-20 20-20 20 8.954 20 20S11.046 0 0 0" style="fill-opacity:1;fill-rule:nonzero;stroke:none" transform="translate(212 322)" fill="#000000" data-original="#000000"></path><path d="M0 0c-11.046 0-20-8.954-20-20s8.954-20 20-20 20 8.954 20 20S11.046 0 0 0" style="fill-opacity:1;fill-rule:nonzero;stroke:none" transform="translate(299 322)" fill="#000000" data-original="#000000"></path><path d="M0 0c-11.046 0-20-8.954-20-20s8.954-20 20-20 20 8.954 20 20S11.046 0 0 0" style="fill-opacity:1;fill-rule:nonzero;stroke:none" transform="translate(386 322)" fill="#000000" data-original="#000000"></path><path d="M0 0c0 11.046-8.954 20-20 20s-20-8.954-20-20 8.954-20 20-20S0-11.046 0 0" style="fill-opacity:1;fill-rule:nonzero;stroke:none" transform="translate(145 215)" fill="#000000" data-original="#000000"></path><path d="M0 0c0 11.046-8.954 20-20 20s-20-8.954-20-20 8.954-20 20-20S0-11.046 0 0" style="fill-opacity:1;fill-rule:nonzero;stroke:none" transform="translate(145 128)" fill="#000000" data-original="#000000"></path><path d="M0 0c0 11.046-8.954 20-20 20s-20-8.954-20-20 8.954-20 20-20S0-11.046 0 0" style="fill-opacity:1;fill-rule:nonzero;stroke:none" transform="translate(232 215)" fill="#000000" data-original="#000000"></path><path d="M0 0c0 11.046-8.954 20-20 20s-20-8.954-20-20 8.954-20 20-20S0-11.046 0 0" style="fill-opacity:1;fill-rule:nonzero;stroke:none" transform="translate(232 128)" fill="#000000" data-original="#000000"></path><path d="M0 0c-11.046 0-20-8.954-20-20s8.954-20 20-20 20 8.954 20 20S11.046 0 0 0" style="fill-opacity:1;fill-rule:nonzero;stroke:none" transform="translate(212 322)" fill="#000000" data-original="#000000"></path><path d="M0 0c0 11.046-8.954 20-20 20s-20-8.954-20-20 8.954-20 20-20S0-11.046 0 0" style="fill-opacity:1;fill-rule:nonzero;stroke:none" transform="translate(232 215)" fill="#000000" data-original="#000000"></path><path d="M0 0c0 11.046-8.954 20-20 20s-20-8.954-20-20 8.954-20 20-20S0-11.046 0 0" style="fill-opacity:1;fill-rule:nonzero;stroke:none" transform="translate(232 128)" fill="#000000" data-original="#000000"></path><path d="M0 0v-80" style="stroke-width:40;stroke-linecap:round;stroke-linejoin:round;stroke-miterlimit:10;stroke-dasharray:none;stroke-opacity:1" transform="translate(125 492)" fill="none" stroke="#000000" stroke-width="40" stroke-linecap="round" stroke-linejoin="round" stroke-miterlimit="10" stroke-dasharray="none" stroke-opacity="" data-original="#000000" class=""></path><path d="M0 0v80" style="stroke-width:40;stroke-linecap:round;stroke-linejoin:round;stroke-miterlimit:10;stroke-dasharray:none;stroke-opacity:1" transform="translate(386 412)" fill="none" stroke="#000000" stroke-width="40" stroke-linecap="round" stroke-linejoin="round" stroke-miterlimit="10" stroke-dasharray="none" stroke-opacity="" data-original="#000000" class=""></path><path d="M0 0v-80" style="stroke-width:40;stroke-linecap:round;stroke-linejoin:round;stroke-miterlimit:10;stroke-dasharray:none;stroke-opacity:1" transform="translate(255 492)" fill="none" stroke="#000000" stroke-width="40" stroke-linecap="round" stroke-linejoin="round" stroke-miterlimit="10" stroke-dasharray="none" stroke-opacity="" data-original="#000000" class=""></path><path d="M0 0h-28.364c-4.287 0-8.086 1.673-9.411 5.732l-8.904 27.46C-48.16 37.731-52.125 40-56.09 40s-7.93-2.269-9.411-6.808l-8.904-27.46C-75.729 1.673-79.529 0-83.816 0h-28.323c-9.587 0-13.572-13.289-5.817-18.898l22.821-16.862a9.828 9.828 0 0 0 3.594-11.015l-8.903-27.284c-2.962-9.077 7.472-16.625 15.228-11.015l23.31 16.867a9.913 9.913 0 0 0 5.816 1.881 9.916 9.916 0 0 0 5.817-1.881l23.31-16.867c7.755-5.61 18.19 1.938 15.227 11.015l-8.903 27.284a9.827 9.827 0 0 0 3.595 11.015l22.86 16.862C13.572-13.289 9.586 0 0 0" style="fill-opacity:1;fill-rule:nonzero;stroke:none" transform="translate(397.09 195)" fill="#000000" data-original="#000000"></path></g></g></g></svg>