<svg xmlns="http://www.w3.org/2000/svg" version="1.1" xmlns:xlink="http://www.w3.org/1999/xlink" width="30" height="30" x="0" y="0" viewBox="0 0 139 139" style="enable-background:new 0 0 512 512" xml:space="preserve" class=""><circle r="69.5" cx="69.5" cy="69.5" fill="#ffffff" shape="circle" transform="matrix(0.6,0,0,0.6,27.800000000000004,27.800000000000004)"></circle><g transform="matrix(1.2000000000000004,0,0,1.2000000000000004,-13.900000000000048,-13.900000000000048)"><path d="M69.5 11.666c-31.941 0-57.834 25.893-57.834 57.834s25.893 57.834 57.834 57.834 57.834-25.893 57.834-57.834S101.441 11.666 69.5 11.666zm29.825 79.912c-2.481 3.84-4.638 7.82-15.011 8.057-10.601.01-21.565-8.769-29.551-17.527-7.973-7.756-15.346-17.773-15.337-27.486.238-10.374 4.219-12.531 8.059-15.012 0 0 2.103-.885 3.93.708 1.827 1.59 9.844 9.608 9.844 9.608s2.849 2.378.884 5.01c-1.564 2.096-5.172 5.96-5.645 6.468l1.353 2.551c1.814 2.984 5.265 8.228 10.433 12.478 3.487 2.867 9.382 6.01 9.381 6.008.849-.791 4.372-4.054 6.335-5.521 2.633-1.967 5.009.883 5.009.883s8.019 8.019 9.61 9.847c1.591 1.827.706 3.928.706 3.928z" fill="#5F98D1" opacity="1" data-original="#000000" class=""></path></g></svg>