<svg xmlns="http://www.w3.org/2000/svg" version="1.1" xmlns:xlink="http://www.w3.org/1999/xlink" width="30" height="30" x="0" y="0" viewBox="0 0 64 64" style="enable-background:new 0 0 512 512" xml:space="preserve" class=""><circle r="32" cx="32" cy="32" fill="#ffffff" shape="circle"></circle><g transform="matrix(0.9999999999999993,0,0,0.9999999999999993,2.1316282072803006e-14,2.1316282072803006e-14)"><path d="M32 0a32 32 0 1 0 32 32A32.004 32.004 0 0 0 32 0zm6.95 19.24a.715.715 0 0 1 .71-.72h1v-1.11a2.196 2.196 0 0 1-1.5-2.1c0-.99.75-3.31 2.22-3.31 1.46 0 2.22 2.32 2.22 3.31a2.218 2.218 0 0 1-1.51 2.1v1.11h1a.715.715 0 0 1 .71.72v3.22h-4.85zm-9.38 0a.717.717 0 0 1 .72-.72h1v-1.11a2.205 2.205 0 0 1-1.51-2.1c0-.99.76-3.31 2.22-3.31s2.22 2.32 2.22 3.31a2.205 2.205 0 0 1-1.51 2.1v1.11h1a.717.717 0 0 1 .72.72v3.22h-4.86zm-9.37 0a.715.715 0 0 1 .71-.72h1v-1.11a2.218 2.218 0 0 1-1.51-2.1c0-.99.76-3.31 2.22-3.31 1.47 0 2.22 2.32 2.22 3.31a2.196 2.196 0 0 1-1.5 2.1v1.11h1a.715.715 0 0 1 .71.72v3.22H20.2zm-5.79 10.37a5.717 5.717 0 0 1 5.71-5.72h23.76a5.717 5.717 0 0 1 5.71 5.72v.72a3.788 3.788 0 0 0-1.43-.65 4.25 4.25 0 0 0-.99-.1 4.348 4.348 0 0 0-2.98 1.17 2.957 2.957 0 0 1-4.17 0 4.367 4.367 0 0 0-5.95 0 2.88 2.88 0 0 1-2.08.86 2.915 2.915 0 0 1-2.08-.86 4.367 4.367 0 0 0-5.95 0 2.915 2.915 0 0 1-2.08.86 2.88 2.88 0 0 1-2.08-.86 4.327 4.327 0 0 0-2.98-1.17 4.162 4.162 0 0 0-.98.1 3.788 3.788 0 0 0-1.43.65zm0 2.51a4.18 4.18 0 0 0 .33-.26 4.02 4.02 0 0 1 1.1-.7 2.767 2.767 0 0 1 .98-.15 2.957 2.957 0 0 1 2.09.85 4.256 4.256 0 0 0 2.97 1.18 4.324 4.324 0 0 0 2.98-1.18 2.914 2.914 0 0 1 2.08-.85 2.95 2.95 0 0 1 2.08.85 4.34 4.34 0 0 0 5.95 0 2.97 2.97 0 0 1 4.16 0 4.353 4.353 0 0 0 5.96 0 2.95 2.95 0 0 1 2.08-.85 2.599 2.599 0 0 1 .99.16 4.137 4.137 0 0 1 1.1.69c.1.09.22.18.33.27v4.34H14.41zm37.05 7.77a3.572 3.572 0 0 1-3.57 3.57H35.34v1.73a1.125 1.125 0 0 0 1.12 1.12h1.42a2.87 2.87 0 0 1 2.87 2.87v2.11a.713.713 0 0 1-.71.71H23.96a.713.713 0 0 1-.71-.71v-2.11a2.87 2.87 0 0 1 2.87-2.87h1.42a1.125 1.125 0 0 0 1.12-1.12v-1.73H16.11a3.572 3.572 0 0 1-3.57-3.57v-1.28a.706.706 0 0 1 .71-.71h37.5a.706.706 0 0 1 .71.71z" fill="#5f98d1" opacity="1" data-original="#000000" class=""></path></g></svg>