<svg xmlns="http://www.w3.org/2000/svg" version="1.1" xmlns:xlink="http://www.w3.org/1999/xlink" width="30" height="30" x="0" y="0" viewBox="0 0 512 512" style="enable-background:new 0 0 512 512" xml:space="preserve" class=""><g><g fill-rule="evenodd" clip-rule="evenodd"><circle cx="256" cy="256" r="240" fill="#fd6467" opacity="1" data-original="#ff5a54" class=""></circle><path fill="#ed2024" d="M495.962 258.99c-1.485 121.499-93.241 221.254-211.312 235.302l-68.29-68.29V323.518l-90.112-90.112c-5.595-5.43-8.532-12.296-8.624-20.189h15.997l-16-16V165.22c0-10.585 8.634-19.219 19.219-19.219h238.318c5.954 0 11.291 2.732 14.821 7.006z" opacity="1" data-original="#db3a3c" class=""></path><path fill="#ffffff" d="M394.376 213.218c-.098 8.418-3.433 15.67-9.779 21.255l-88.957 78.301v69.984l-79.279 43.243V312.774l-88.957-78.301c-6.346-5.585-9.68-12.837-9.779-21.255zm-257.535-67.217h238.318c10.585 0 19.219 8.634 19.219 19.219v31.998H117.622V165.22c0-10.585 8.633-19.219 19.219-19.219z" opacity="1" data-original="#ffffff"></path></g></g></svg>