<svg xmlns="http://www.w3.org/2000/svg" version="1.1" xmlns:xlink="http://www.w3.org/1999/xlink" width="35" height="35" x="0" y="0" viewBox="0 0 20 20" style="enable-background:new 0 0 512 512" xml:space="preserve" class=""><circle r="10" cx="10" cy="10" fill="#ec2024" shape="circle"></circle><g transform="matrix(0.5299999999999998,0,0,0.5299999999999998,4.700000000000003,4.700000000000003)"><g fill="#000"><path d="M0 5a1 1 0 0 1 1-1h18a1 1 0 1 1 0 2H1a1 1 0 0 1-1-1zM3 10a1 1 0 0 1 1-1h12a1 1 0 1 1 0 2H4a1 1 0 0 1-1-1zM8 14a1 1 0 1 0 0 2h4a1 1 0 1 0 0-2z" fill="#ffffff" opacity="1" data-original="#000000" class=""></path></g></g></svg>