<svg xmlns="http://www.w3.org/2000/svg" version="1.1" xmlns:xlink="http://www.w3.org/1999/xlink" width="30" height="30" x="0" y="0" viewBox="0 0 32 32" style="enable-background:new 0 0 512 512" xml:space="preserve" class=""><g><path d="M14.73 11.54a3.09 3.09 0 1 0 3.09 3.09 3.09 3.09 0 0 0-3.09-3.09z" fill="#ffc9d4" opacity="1" data-original="#000000" class=""></path><path d="M16 1a15 15 0 1 0 15 15A15.005 15.005 0 0 0 16 1zm6.36 10.19a1.005 1.005 0 0 1-2.01 0v-.76l-1.38 1.38a5.08 5.08 0 0 1-3.23 7.81v1.12h1.25a1.005 1.005 0 0 1 0 2.01h-1.25V24a1.005 1.005 0 0 1-2.01 0v-1.25h-1.25a1.005 1.005 0 0 1 0-2.01h1.25v-1.12a5.093 5.093 0 1 1 3.82-9.23l1.38-1.38h-.76a1.005 1.005 0 0 1 0-2.01h3.19a1.003 1.003 0 0 1 1 1z" fill="#ffc9d4" opacity="1" data-original="#000000" class=""></path></g></svg>