<svg xmlns="http://www.w3.org/2000/svg" version="1.1" xmlns:xlink="http://www.w3.org/1999/xlink" width="25" height="25" x="0" y="0" viewBox="0 0 100 100" style="enable-background:new 0 0 512 512" xml:space="preserve" class=""><g transform="matrix(1.4000000000000004,0,0,1.4000000000000004,-20.000001525878922,-20.000001525878922)"><path d="M50 85.33A35.33 35.33 0 1 1 85.33 50 35.37 35.37 0 0 1 50 85.33Zm0-67.66A32.33 32.33 0 1 0 82.33 50 32.36 32.36 0 0 0 50 17.67Z" fill="#000000" opacity="1" data-original="#000000" class=""></path><path d="M57.75 70.87h-15.5a1.5 1.5 0 0 1-1.5-1.5V59.25H30.63a1.5 1.5 0 0 1-1.5-1.5v-15.5a1.5 1.5 0 0 1 1.5-1.5h10.12V30.63a1.5 1.5 0 0 1 1.5-1.5h15.5a1.5 1.5 0 0 1 1.5 1.5v10.12h10.12a1.5 1.5 0 0 1 1.5 1.5v15.5a1.5 1.5 0 0 1-1.5 1.5H59.25v10.12a1.5 1.5 0 0 1-1.5 1.5Zm-14-3h12.5V57.75a1.5 1.5 0 0 1 1.5-1.5h10.12v-12.5H57.75a1.5 1.5 0 0 1-1.5-1.5V32.13h-12.5v10.12a1.5 1.5 0 0 1-1.5 1.5H32.13v12.5h10.12a1.5 1.5 0 0 1 1.5 1.5Z" fill="#000000" opacity="1" data-original="#000000" class=""></path></g></svg>