<svg xmlns="http://www.w3.org/2000/svg" version="1.1" xmlns:xlink="http://www.w3.org/1999/xlink" width="30" height="30" x="0" y="0" viewBox="0 0 512 512" style="enable-background:new 0 0 512 512" xml:space="preserve" class=""><g><g data-name="Layer 2"><path d="M256 0C114.62 0 0 114.62 0 256s114.62 256 256 256 256-114.62 256-256S397.38 0 256 0zm-59.35 115.83c7.86-7.53 15.76-15 23.64-22.53a7.92 7.92 0 0 1 5.76-2.3h59.47a8.88 8.88 0 0 1 6.48 2.62c7.73 7.39 15.53 14.72 23.29 22.09 3.52 3.35 3.64 7.37.32 10.88q-27 28.42-53.94 56.85c-2.89 3.05-6.42 3.66-9.45 1.62a9.2 9.2 0 0 1-1.67-1.45q-27.09-28.5-54.15-57c-3.3-3.52-3.22-7.47.25-10.78zM256 421a134.08 134.08 0 0 1-36.87-263q13.62 14.35 27.25 28.69a100.67 100.67 0 1 0 19.3 0L292.89 158A134.07 134.07 0 0 1 256 421z" data-name="engagement ring" fill="#feecd1" opacity="1" data-original="#000000" class=""></path></g></g></svg>