<svg xmlns="http://www.w3.org/2000/svg" version="1.1" xmlns:xlink="http://www.w3.org/1999/xlink" width="30" height="30" x="0" y="0" viewBox="0 0 512 512" style="enable-background:new 0 0 512 512" xml:space="preserve" class=""><circle r="256" cx="256" cy="256" fill="#ffffff" shape="circle"></circle><g transform="matrix(1,0,0,1,0,0)"><path d="M256 0C114.6 0 0 114.6 0 256s114.6 256 256 256 256-114.6 256-256S397.4 0 256 0zm117.4 289.6c0 6.5-5.3 11.7-11.7 11.7h-79c-5.5 0-10.3-3.8-11.5-9.2l-5.4-24.1H162.1v109.1c-.2 6.5-5.6 11.6-12.1 11.4-6.2-.2-11.2-5.2-11.4-11.4V134.7c0-6.5 5.2-11.7 11.7-11.7h113c5.5 0 10.3 3.8 11.5 9.2l5.4 24.4h81.4c6.5 0 11.7 5.3 11.7 11.7v121.3z" fill="#5F98D1" opacity="1" data-original="#000000" class=""></path></g></svg>