<svg height="30" viewBox="0 0 512 512" width="30" xmlns="http://www.w3.org/2000/svg"><g id="Layer_2" data-name="Layer 2"><g id="message"><circle id="background" cx="256" cy="256" fill="#5F98D1" r="256"/><g fill="#fff"><path d="m256.41 243 129.14-78.56a29.7 29.7 0 0 0 -19.44-7.2h-220.22a29.8 29.8 0 0 0 -9.86 1.67z"/><path d="m261.68 265.34a10.91 10.91 0 0 1 -11.94-.37l-130.6-91.22a29.67 29.67 0 0 0 -3.14 13.33v137.84a29.89 29.89 0 0 0 29.89 29.89h220.22a29.89 29.89 0 0 0 29.89-29.89v-137.84a30.4 30.4 0 0 0 -.19-3.33z"/></g></g></g></svg>