<svg xmlns="http://www.w3.org/2000/svg" version="1.1" xmlns:xlink="http://www.w3.org/1999/xlink" width="15" height="15" x="0" y="0" viewBox="0 0 64 64" style="enable-background:new 0 0 512 512" xml:space="preserve"><g><path d="M5.512 27.537A26.693 26.693 0 0 0 5.132 32h5.528a21.122 21.122 0 0 1 .394-4.019c-1.854-.106-3.7-.245-5.542-.444zM9.572 17.306a26.625 26.625 0 0 0-3 6.061c1.91.2 3.828.321 5.749.414a21.189 21.189 0 0 1 2.093-3.793q-2.446-1.297-4.842-2.682zM52.76 15.37a26.658 26.658 0 0 0-40.516-1.47q2.489 1.418 5.022 2.754A21.143 21.143 0 0 1 48.8 19.287l-6.01 5.939h16.078V9.334zM58.488 37.1a26.693 26.693 0 0 0 .38-4.463H53.34a21.141 21.141 0 0 1-.394 4.02c1.854.107 3.7.243 5.542.443zM54.428 47.333a26.6 26.6 0 0 0 3-6.061c-1.91-.2-3.828-.32-5.749-.414a21.155 21.155 0 0 1-2.093 3.793q2.446 1.299 4.842 2.682zM11.24 49.269a26.657 26.657 0 0 0 40.516 1.469q-2.489-1.418-5.022-2.755a21.144 21.144 0 0 1-31.53-2.63l6.01-5.94H5.132v15.892z" fill="#000000" opacity="1" data-original="#000000"></path></g></svg>