<svg version="1.2" xmlns="http://www.w3.org/2000/svg" viewBox="0 0 2300 1924" width="2300" height="1924">
	<title>25145755_list_2</title>
	<style>
		.s0 { fill: #1f4168 } 
		.s1 { fill: #ffffff } 
		.s2 { fill: #e1e6eb } 
		.s3 { fill: #f9a21b } 
		.s4 { fill: #f0f2f5 } 
		.s5 { fill: #0d0d0d } 
		.s6 { fill: #ffc89f } 
		.s7 { fill: #1b1a2e } 
		.s8 { fill: #a65b3c } 
		.s9 { fill: #ff9a6c } 
	</style>
	<g id="LIST">
		<g>
			<g>
				<g>
					<path class="s0" d="m1817.1 1923.1h-936.8c-63.7 0-115.3-51.6-115.3-115.3v-1365.8c0-63.7 51.6-115.3 115.3-115.3h936.8c63.7 0 115.3 51.6 115.3 115.3v1365.8c0 63.7-51.6 115.3-115.3 115.3z"/>
				</g>
				<g>
					<path fill-rule="evenodd" class="s1" d="m830.4 435.7h1036.6v1426.9h-1036.6z"/>
				</g>
				<g>
					<path class="s2" d="m1664.6 494.6h-631.8c-23.2 0-42-18.9-42-42v-33.7c0-23.2 18.8-42 42-42h631.8c23.2 0 42 18.8 42 42v33.7c0 23.1-18.8 42-42 42zm-631.8-112.7c-20.4 0-37 16.6-37 37v33.7c0 20.4 16.6 37 37 37h631.8c20.4 0 37-16.6 37-37v-33.7c0-20.4-16.6-37-37-37z"/>
				</g>
				<g>
					<path class="s3" d="m1607.6 362.2c0 12.1-4.9 23-12.8 30.8-7.8 7.9-18.7 12.8-30.8 12.8h-430.7c-24 0-43.5-19.5-43.5-43.6 0-5.2 2.1-9.9 5.5-13.3 3.4-3.4 8.2-5.5 13.4-5.5h110.5c0 17.2 14 31.2 31.3 31.2h196.4c8.6 0 16.5-3.5 22.1-9.2 5.6-5.6 9.1-13.4 9.1-22h110.6c10.4 0 18.9 8.4 18.9 18.8z"/>
				</g>
				<g>
					<g>
						<path class="s3" d="m1467 348.6h-236.6c-1.5 0-2.7-1.1-2.7-2.6 0-1.5 1.2-2.6 2.7-2.6h236.6c1.5 0 2.6 1.1 2.6 2.6 0 1.5-1.1 2.6-2.6 2.6z"/>
					</g>
				</g>
				<g>
					<g>
						<g>
							<g>
								<path class="s0" d="m1129.3 776.1h-149.7c-12.8 0-23.2-10.4-23.2-23.1v-149.7c0-12.8 10.4-23.2 23.2-23.2h149.7c12.7 0 23.1 10.4 23.1 23.2v149.7c0 12.7-10.4 23.1-23.1 23.1zm-149.7-191.3c-10.2 0-18.5 8.3-18.5 18.5v149.7c0 10.1 8.3 18.4 18.5 18.4h149.7c10.1 0 18.4-8.3 18.4-18.4v-149.7c0-10.2-8.3-18.5-18.4-18.5z"/>
							</g>
						</g>
						<g>
							<g>
								<g>
									<g>
										<g>
											<g>
												<path fill-rule="evenodd" class="s3" d="m1033.2 730.5l-47.7-47.8 14.6-14.5 33.1 33.1 75.5-75.5 14.6 14.6z"/>
											</g>
										</g>
									</g>
								</g>
							</g>
						</g>
					</g>
					<g>
						<g>
							<g>
								<path fill-rule="evenodd" class="s2" d="m1260.3 619.5h480.6v42h-480.6z"/>
							</g>
						</g>
						<g>
							<g>
								<path fill-rule="evenodd" class="s4" d="m1260.3 694.7h339.3v42.1h-339.3z"/>
							</g>
						</g>
					</g>
					<g>
						<g>
							<g>
								<path class="s0" d="m1129.3 1090.1h-149.7c-12.8 0-23.2-10.3-23.2-23.1v-149.7c0-12.8 10.4-23.2 23.2-23.2h149.7c12.7 0 23.1 10.4 23.1 23.2v149.7c0 12.8-10.4 23.1-23.1 23.1zm-149.7-191.2c-10.2 0-18.5 8.2-18.5 18.4v149.7c0 10.2 8.3 18.4 18.5 18.4h149.7c10.1 0 18.4-8.2 18.4-18.4v-149.7c0-10.2-8.3-18.4-18.4-18.4z"/>
							</g>
						</g>
						<g>
							<g>
								<g>
									<g>
										<g>
											<g>
												<path fill-rule="evenodd" class="s3" d="m1033.2 1044.5l-47.7-47.7 14.6-14.6 33.1 33.1 75.5-75.5 14.6 14.6z"/>
											</g>
										</g>
									</g>
								</g>
							</g>
						</g>
					</g>
					<g>
						<g>
							<g>
								<path fill-rule="evenodd" class="s2" d="m1260.3 933.5h480.6v42h-480.6z"/>
							</g>
						</g>
						<g>
							<g>
								<path fill-rule="evenodd" class="s4" d="m1260.3 1008.8h339.3v42h-339.3z"/>
							</g>
						</g>
					</g>
					<g>
						<g>
							<g>
								<path class="s0" d="m1129.3 1404.2h-149.7c-12.8 0-23.2-10.4-23.2-23.2v-149.7c0-12.8 10.4-23.1 23.2-23.1h149.7c12.7 0 23.1 10.3 23.1 23.1v149.7c0 12.8-10.4 23.2-23.1 23.2zm-149.7-191.3c-10.2 0-18.5 8.3-18.5 18.4v149.7c0 10.2 8.3 18.4 18.5 18.4h149.7c10.1 0 18.4-8.2 18.4-18.4v-149.7c0-10.1-8.3-18.4-18.4-18.4z"/>
							</g>
						</g>
						<g>
							<g>
								<g>
									<g>
										<g>
											<g>
												<path fill-rule="evenodd" class="s3" d="m1033.2 1358.5l-47.7-47.7 14.6-14.6 33.1 33.1 75.5-75.5 14.6 14.6z"/>
											</g>
										</g>
									</g>
								</g>
							</g>
						</g>
					</g>
					<g>
						<g>
							<g>
								<path fill-rule="evenodd" class="s2" d="m1260.3 1247.5h480.6v42.1h-480.6z"/>
							</g>
						</g>
						<g>
							<g>
								<path fill-rule="evenodd" class="s4" d="m1260.3 1322.8h339.3v42h-339.3z"/>
							</g>
						</g>
					</g>
					<g>
						<g>
							<g>
								<path class="s0" d="m1129.3 1718.2h-149.7c-12.8 0-23.2-10.4-23.2-23.1v-149.8c0-12.7 10.4-23.1 23.2-23.1h149.7c12.7 0 23.1 10.4 23.1 23.1v149.8c0 12.7-10.4 23.1-23.1 23.1zm-149.7-191.3c-10.2 0-18.5 8.3-18.5 18.4v149.8c0 10.1 8.3 18.4 18.5 18.4h149.7c10.1 0 18.4-8.3 18.4-18.4v-149.8c0-10.1-8.3-18.4-18.4-18.4z"/>
							</g>
						</g>
						<g>
							<g>
								<g>
									<g>
										<g>
											<g>
												<path fill-rule="evenodd" class="s3" d="m1033.2 1672.5l-47.7-47.7 14.6-14.6 33.1 33.2 75.5-75.6 14.6 14.6z"/>
											</g>
										</g>
									</g>
								</g>
							</g>
						</g>
					</g>
					<g>
						<g>
							<g>
								<path fill-rule="evenodd" class="s2" d="m1260.3 1561.5h480.6v42.1h-480.6z"/>
							</g>
						</g>
						<g>
							<g>
								<path fill-rule="evenodd" class="s4" d="m1260.3 1636.8h339.3v42.1h-339.3z"/>
							</g>
						</g>
					</g>
				</g>
			</g>
		</g>
	</g>
	<g id="PEN">
		<g>
			<g>
				<g>
					<g>
						<path class="s5" d="m697.4 1923c-3.3 0.6-6.5-1.6-7-4.9l-6-34.4c-0.5-3.3 1.7-6.4 5-7 3.3-0.5 6.4 1.7 7 5l5.9 34.3c0.6 3.3-1.6 6.5-4.9 7z"/>
					</g>
				</g>
			</g>
			<g>
				<g>
					<path class="s0" d="m443.3 785.5l131.6 762.7c20 116.1 54.9 229.2 103.7 336.5l23.6-4c10.1-117.5 5.1-235.7-15-351.9l-131.5-762.7c-1.8-10.4-11.6-17.4-22-15.6l-74.8 12.9c-10.4 1.8-17.4 11.7-15.6 22.1z"/>
				</g>
			</g>
			<g>
				<g>
					<path class="s3" d="m521.6 752.6l-50.7 8.7-11.7-67.9c-1.1-6.7 3.4-13.1 10.1-14.3l26.3-4.5c6.8-1.2 13.2 3.3 14.3 10.1z"/>
				</g>
			</g>
			<g>
				<g>
					<path class="s3" d="m504 1292.7c-8.7 1.5-17-4.2-18.7-12.9l-81.6-426.8c-5.3-27.8 13.2-54.5 41.1-59.3l9.4 54.8c-13.4 3.1-22 16.1-19.7 29.7l71.7 411.5c0.2 1.4-0.8 2.8-2.2 3z"/>
				</g>
			</g>
			<g>
				<g>
					<path fill-rule="evenodd" class="s1" d="m705.4 1691.7l-93.1 16-0.4-1.1 93.5-16.2z"/>
				</g>
			</g>
			<g>
				<g>
					<path fill-rule="evenodd" class="s1" d="m542.8 1362.7l112.4-19.4 0.2 1.2-112.4 19.4z"/>
				</g>
			</g>
			<g>
				<g>
					<path fill-rule="evenodd" class="s1" d="m538.8 1339.1l112.4-19.3 0.2 1.1-112.4 19.4z"/>
				</g>
			</g>
		</g>
	</g>
	<g id="CHARACTER">
		<g>
			<g>
				<path class="s6" d="m800.1 1834.3l-1.3 27.8c0 0 3.5 11.3 5.3 22.1 1.9 10.9-44.2-31.2-44.2-31.2 0 0 3.5-4.1 3.3-18 0 0 18.5-10.8 36.9-0.7z"/>
			</g>
			<g>
				<path class="s6" d="m439.6 1691.4c0 0-7.8 13-17.1 21.7l-0.9 13.4 40.7 2.2c0 0-1.4-7.9 6.8-24.3z"/>
			</g>
			<g>
				<path class="s6" d="m865.8 1272.7c0 0 3.4-12.2 2.1-26.2l-169.7-15.3c0 0 80 35.1 167.6 41.5z"/>
			</g>
			<g>
				<path class="s7" d="m852.3 1372.4c12.5-53.3 16.5-99.4 15.4-99.5-65-6-169.5-41.7-169.5-41.7-65.4 49.5-84 126.1-96.6 168.1-6.3 21.2-19.1 47.5-30.1 68.3-2.1 4-5 7.6-8.7 10.1-4.8 3.1-4.1 13.1-4.1 13.1-9-0.3-7.4 12.5-7.4 12.5 0 0-29 25.4-57.5 75-28.6 49.9-55.9 110.3-55.9 110.3 10.5 18.8 30.9 21.6 30.9 21.6 14.1-31 65-72.4 82.5-102 17.4-29.7 34-57.9 34-57.9 0 0 26.4-17 50.3-53.1 34.7-52 88.7-106.8 88.7-106.8 27.2 23.3 33.2 87.1 28.5 145.9-2.6 32.1-0.2 55.2 2.5 69.4 2.5 13.4 3.1 27 1.8 40.5-1.7 18.6-3.1 46.1-0.5 72.8 6.8 70.8 6.6 116 6.6 116 22.8 8.3 39.4-2 39.4-2-3.4-36.3 20.2-129.3 15.1-189.1-2.9-33-1-46.8-1-46.8 6.4-4.7 0-9.8 0-9.8 5.9 0 5.9-6.8 3.3-12.1-1.5-3-2.1-5.5-0.6-10.5 27.6-94.7 32.9-192.3 32.9-192.3z"/>
			</g>
			<g>
				<path class="s3" d="m459.9 1745.4l-20.8 34.5c0 0-1.4 8-5.4 16.8-3 6.8-7.5 14-14 18.5-11.4 7.7-41.9 2.8-36.3-26.5q0-0.1 0-0.1 0.5-2.6 1.4-5.5c10.9-34.3 36.8-56.6 36.8-56.6 5.3-10 12.5-15.3 18.3-18.1 6.7-3.3 14.9-1 18.7 5.4 7.6 12.9 1.3 31.6 1.3 31.6z"/>
			</g>
			<g style="opacity: .4">
				<path class="s8" d="m434.9 1786.9c-0.1 2.9-0.5 6.3-1.2 9.8-3 6.8-7.5 14-14 18.5-11.4 7.7-41.9 2.8-36.3-26.5q0-0.1 0-0.1c5.3-14.7 17.9-28 24.2-34 2.3-2.1 4.1-4.7 5.4-7.5 3.1-7.3 11.1-21.4 24.9-20.8 2.4 0.1 4.6 0.5 6.5 1.1 11.5 3.7 15.4 18.1 7.6 27.4l-8.4 9.8c-5.3 6.3-8.3 14.1-8.7 22.3z"/>
			</g>
			<g>
				<path class="s3" d="m819.6 1910.7l-4.7 7.5q-0.8 1.3-2 2.3c-1.9 1.7-4.4 2.6-7 2.6h-19.8c-7.4 0-14.4-3.7-18.4-9.9-5.9-8.8-13.1-15.5-17.8-19.3-3-2.4-4.5-6.3-4-10.1q0 0 0.1-0.2c1.7-13.3 7.2-22.7 10.9-27.8 2.6-3.5 6.8-5.1 11-4.3 5.5 1.1 13.3 4.7 19.9 15 4.2 6.6 9.1 13.9 16.3 17.7 10.5 5.6 14.7 13.7 16.4 18.7 0.9 2.6 0.6 5.5-0.9 7.8z"/>
			</g>
			<g style="opacity: .4">
				<path class="s8" d="m812.9 1920.5c-1.9 1.7-4.4 2.6-7 2.6h-19.8c-7.4 0-14.4-3.7-18.4-9.9-5.9-8.8-13.1-15.5-17.8-19.3-3-2.4-4.5-6.3-4-10.1q0 0 0.1-0.2c0.2-1.6 1.8-10.6 18.1-4.6 5.6 2.1 10.7 7.2 14.3 11.5 3.7 4.5 8.2 8.4 13.1 11.6 6 3.9 14.4 10.1 21.4 18.4z"/>
			</g>
			<g>
				<path class="s3" d="m1019.4 839l-3.6-111.5c-20.2-17.4-40.9-3.9-40.9-3.9 0 0 5.3 56.4-2.3 85.2-7.6 28.8-7.3 49.1-7.3 49.1l-5.2 17.3c-12.9-0.6-7.8 15.8-7.8 15.8l-65.7 91q-6.6 0-13.2 0.1 0 0 0 0c0 0-2.1-5-8.6-1.8-3.3 1.6-7 2.4-10.6 2.6-11 0.6-45.1 4-57.3 5.3-2.4 0.2-4.7 0-6.9-0.6-2.2-0.6-5.2-0.6-6.2 3.3-26.1 15-56.4 18.9-55.7 26.6-6.1-3.9-25.8 47-34.8 85.8-3.5 15.4-8.9 30.4-16.3 44.4-33.8 63.6-56.2 135.9-56.2 135.9l-19.2 44.3c12.8 23.7 39.2 16.7 39.2 16.7 0 0 3.8-22.8 20.6-51.4 13.5-22.8 36.8-70.6 36.8-70.6l48.8-107.4-2.2 37.6c0 0-9.6 0.8-5.9 12 3.6 11.3-0.6 13.9-0.6 13.9-20.1 2.9-18.4 21.9-18.4 21.9-19.5 7.1-11.1 18.2-11.1 18.2l-10.6 12.4c68 29.3 190.6 21.6 190.6 21.6l-2.2-33c0 0 7.2-25.9 34.4-104.1 13.3-38.2 20.2-74 20.2-74 38.4-80.9 62.1-140.7 72.5-168.3 4.2-11 6.1-22.6 5.7-34.4z"/>
			</g>
			<g>
				<path class="s1" d="m849.9 1028.8c1.3-0.3 2.6-0.5 3.8-0.7q2-0.2 3.9-0.2 1.9 0 3.8 0.2c1.3 0.2 2.6 0.4 3.8 0.8-1.2 0.3-2.5 0.5-3.8 0.7q-1.9 0.2-3.8 0.2-1.9 0-3.9-0.2c-1.2-0.2-2.5-0.4-3.8-0.8z"/>
			</g>
			<g>
				<path class="s1" d="m928.4 980.4c1.2 0.6 2.3 1.4 3.3 2.2q1.5 1.2 2.8 2.6 1.4 1.3 2.6 2.8c0.8 1 1.6 2.1 2.2 3.3-1.2-0.7-2.2-1.4-3.2-2.2q-1.5-1.2-2.9-2.6-1.3-1.4-2.6-2.9c-0.8-1-1.5-2-2.2-3.2z"/>
			</g>
			<g>
				<path class="s1" d="m918.2 1063.1c0.4 1.3 0.6 2.6 0.8 3.9q0.2 1.9 0.2 3.8 0 1.9-0.2 3.8c-0.2 1.3-0.4 2.6-0.8 3.9-0.3-1.3-0.5-2.6-0.7-3.9q-0.2-1.9-0.2-3.8 0-1.9 0.2-3.8c0.2-1.3 0.4-2.6 0.7-3.9z"/>
			</g>
			<g>
				<path class="s1" d="m991.6 783.7c1.2 0.6 2.3 1.4 3.3 2.2q1.5 1.2 2.8 2.6 1.4 1.3 2.6 2.8c0.8 1 1.6 2.1 2.2 3.3-1.2-0.7-2.2-1.4-3.2-2.2q-1.5-1.2-2.9-2.6-1.4-1.4-2.6-2.9c-0.8-1-1.5-2-2.2-3.2z"/>
			</g>
			<g>
				<path class="s1" d="m975.5 905.5c0.4 1.3 0.6 2.5 0.7 3.8q0.2 1.9 0.2 3.9 0 1.9-0.2 3.8c-0.1 1.3-0.3 2.6-0.7 3.8-0.4-1.2-0.6-2.5-0.7-3.8q-0.2-1.9-0.2-3.8 0-2 0.2-3.9c0.1-1.3 0.3-2.5 0.7-3.8z"/>
			</g>
			<g>
				<path class="s1" d="m847.3 1218.8c1.3-0.4 2.5-0.6 3.8-0.8q1.9-0.2 3.9-0.2 1.9 0 3.8 0.2c1.3 0.2 2.6 0.4 3.8 0.8-1.2 0.3-2.5 0.6-3.8 0.7q-1.9 0.2-3.8 0.2-2 0-3.9-0.2c-1.3-0.2-2.5-0.4-3.8-0.7z"/>
			</g>
			<g>
				<path class="s1" d="m864.8 1111.3c-0.7 1.1-1.4 2.2-2.3 3.2q-1.2 1.5-2.5 2.9-1.4 1.3-2.9 2.5c-1 0.8-2 1.6-3.2 2.2 0.6-1.2 1.4-2.2 2.2-3.2q1.2-1.5 2.6-2.9 1.3-1.3 2.8-2.5c1-0.8 2.1-1.6 3.3-2.2z"/>
			</g>
			<g>
				<path class="s1" d="m719.6 1049.9c1.3-0.4 2.5-0.6 3.8-0.7q1.9-0.2 3.9-0.2 1.9 0 3.8 0.2c1.3 0.1 2.5 0.3 3.8 0.7-1.3 0.4-2.5 0.6-3.8 0.7q-1.9 0.2-3.8 0.2-2 0-3.9-0.2c-1.3-0.1-2.5-0.3-3.8-0.7z"/>
			</g>
			<g>
				<path class="s1" d="m774.4 1013.4c1.1 0.7 2.2 1.4 3.2 2.2q1.5 1.3 2.9 2.6 1.3 1.4 2.5 2.9c0.8 1 1.6 2 2.2 3.2-1.1-0.6-2.2-1.4-3.2-2.2q-1.5-1.2-2.9-2.6-1.3-1.3-2.5-2.8c-0.8-1-1.6-2.1-2.2-3.3z"/>
			</g>
			<g>
				<path class="s1" d="m786.5 1079.8c0.4 1.3 0.6 2.5 0.7 3.8q0.2 1.9 0.2 3.9 0 1.9-0.2 3.8c-0.1 1.3-0.3 2.6-0.7 3.8-0.4-1.2-0.6-2.5-0.7-3.8q-0.2-1.9-0.2-3.8 0-2 0.2-3.9c0.1-1.3 0.3-2.5 0.7-3.8z"/>
			</g>
			<g>
				<path class="s1" d="m727.6 1193.3c1.3-0.4 2.5-0.6 3.8-0.7q1.9-0.2 3.9-0.2 1.9-0.1 3.8 0.2c1.3 0.1 2.6 0.3 3.8 0.7-1.2 0.4-2.5 0.6-3.8 0.7q-1.9 0.2-3.8 0.2-2 0-3.9-0.2c-1.3-0.1-2.5-0.3-3.8-0.7z"/>
			</g>
			<g>
				<path class="s1" d="m791.2 1164.6c1.2 0.7 2.2 1.4 3.2 2.2q1.5 1.3 2.9 2.6 1.3 1.4 2.5 2.9c0.8 1 1.6 2 2.2 3.2-1.1-0.6-2.2-1.4-3.2-2.2q-1.5-1.2-2.8-2.6-1.4-1.3-2.6-2.8c-0.8-1-1.6-2.1-2.2-3.3z"/>
			</g>
			<g>
				<path class="s1" d="m780.5 1234.7c-0.6 1.2-1.4 2.2-2.2 3.2q-1.2 1.5-2.6 2.9-1.3 1.4-2.8 2.6c-1 0.8-2.1 1.5-3.3 2.2 0.7-1.2 1.4-2.3 2.2-3.3q1.3-1.5 2.6-2.8 1.4-1.4 2.9-2.6c1-0.8 2-1.6 3.2-2.2z"/>
			</g>
			<g>
				<path class="s1" d="m637.5 1268.3c1.3-0.4 2.6-0.6 3.9-0.7q1.9-0.2 3.8-0.2 1.9-0.1 3.8 0.2c1.3 0.1 2.6 0.3 3.9 0.7-1.3 0.4-2.6 0.6-3.9 0.7q-1.9 0.2-3.8 0.2-1.9 0-3.8-0.2c-1.3-0.1-2.6-0.3-3.9-0.7z"/>
			</g>
			<g>
				<path class="s1" d="m704 1107.4c1.2 0.6 2.3 1.4 3.3 2.2q1.5 1.2 2.8 2.6 1.4 1.3 2.6 2.8c0.8 1 1.6 2.1 2.2 3.3-1.2-0.7-2.2-1.4-3.2-2.2q-1.5-1.3-2.9-2.6-1.3-1.4-2.6-2.9c-0.8-1-1.5-2-2.2-3.2z"/>
			</g>
			<g>
				<path class="s1" d="m692.9 1183c-0.6 1.2-1.4 2.2-2.2 3.2q-1.2 1.5-2.6 2.9-1.3 1.3-2.8 2.5c-1 0.9-2.1 1.6-3.3 2.2 0.7-1.1 1.4-2.2 2.2-3.2q1.2-1.5 2.6-2.8 1.4-1.4 2.9-2.6c1-0.8 2-1.6 3.2-2.2z"/>
			</g>
			<g style="opacity: .4">
				<path class="s8" d="m935.1 1059c0 0-40.6 155.9-157.3 146.2 0 0 109.9 3.7 157.3-146.2z"/>
			</g>
			<g style="opacity: .4">
				<path class="s8" d="m991.6 898.5c0 0-36.6-0.9-31.7-20.8 0 0 2.8 19.1 31.7 20.8z"/>
			</g>
			<g style="opacity: .4">
				<path class="s8" d="m833.1 1244.6c0 0 41.6 3.4 52.4-22.5 0 0-5.8 18.4-52.4 22.5z"/>
			</g>
			<g style="opacity: .4">
				<path class="s8" d="m757.9 1204.6c0 0-36.2-3.2-25.1-19.9 0 0-3.4 15.6 25.1 19.9z"/>
			</g>
			<g>
				<g style="opacity: .4">
					<path class="s8" d="m746.3 1127.9l-1.5 24.9c0 0-3.4 16.4 12.7 20.5-3.6-1.3-12.9-3.4-11.2-45.4z"/>
				</g>
			</g>
			<g style="opacity: .4">
				<path class="s8" d="m725.4 1162.8l21.6-47.6c0 0 4-44.8-2-64 0 0 10.1 38.7-19.6 111.6z"/>
			</g>
			<g style="opacity: .4">
				<path class="s8" d="m912.4 1033.8c0 0 4.8-37.5-16.9-48 0 0 17.3 16.2 16.9 48z"/>
			</g>
			<g style="opacity: .4">
				<path class="s8" d="m720.2 1202.3c0 0 2.8 27.2 55.9 38 0 0-49.3-1.5-55.9-38z"/>
			</g>
			<g style="opacity: .4">
				<path class="s8" d="m708.8 1218.8c0 0 6 8.5 22.8 14.6 0 0-5.5-1.3-11.9-3.7-7.1-2.6-14.9-2-21.5 1.5z"/>
			</g>
			<g>
				<path class="s8" d="m935.1 1059c-2.4 9.4-5.6 18.6-9.2 27.6-3.6 9-7.6 17.9-12.1 26.5-4.5 8.6-9.6 17-15 25-2.8 4-5.6 8-8.5 11.8q-4.4 5.8-9.3 11.3-4.8 5.4-10.1 10.5c-3.6 3.3-7.2 6.5-11.1 9.5q-5.8 4.4-12 8.2c-4.2 2.6-8.5 4.8-13 6.8-17.8 8-37.7 11-57 9.1v-0.1c9.7 0.6 19.4 0.3 29-1.4 4.7-0.8 9.5-1.9 14.1-3.4 4.6-1.4 9.1-3 13.5-5.1 17.7-7.9 33.2-20.2 46.2-34.5 6.5-7.1 12.6-14.8 17.9-22.9 5.4-8 10.2-16.5 14.6-25.1q6.6-13 12.1-26.5 2.8-6.7 5.3-13.5c1.6-4.6 3.2-9.2 4.5-13.8z"/>
			</g>
			<g>
				<path class="s8" d="m744.8 1154.9c-0.1 1-0.1 2 0 3.1 0 0.5 0.1 1 0.1 1.5q0.2 0.7 0.3 1.5c0.5 2 1.3 3.9 2.4 5.5 0.3 0.4 0.6 0.8 1 1.2 0.3 0.3 0.6 0.7 1 1.1l1.1 1q0.6 0.4 1.3 0.8l0.6 0.5 0.7 0.3 1.3 0.7c0.9 0.5 1.9 0.8 2.9 1.2q-1.5-0.3-3.1-0.7l-1.4-0.7-0.7-0.3-0.7-0.4q-0.7-0.4-1.4-0.8l-1.2-1c-0.4-0.3-0.8-0.7-1.1-1.1-0.4-0.4-0.8-0.8-1-1.3-1.3-1.7-2.1-3.8-2.4-5.9-0.3-2.1-0.2-4.2 0.3-6.2z"/>
			</g>
			<g>
				<path class="s8" d="m912.4 1033.8q0.2-3.3 0.2-6.7 0-3.3-0.3-6.7c-0.3-4.5-0.9-8.9-2-13.2-1.1-4.3-2.7-8.6-5.1-12.3-1.2-1.9-2.6-3.6-4.2-5.1-1.7-1.6-3.5-2.9-5.5-4 2.1 1 4 2.2 5.8 3.6 1.7 1.5 3.2 3.3 4.5 5.1 1.3 1.9 2.3 3.9 3.2 6q1.4 3.1 2.2 6.4c1.1 4.4 1.7 8.9 1.8 13.5 0.2 4.5 0 9-0.6 13.4z"/>
			</g>
			<g>
				<path class="s8" d="m743.5 1046.8c-0.4-1.1-0.8-2.3-1.3-3.4q-0.6-1.7-1.3-3.4c-1-2.2-1.9-4.4-3-6.6-1-2.2-2.1-4.4-3.3-6.5q-0.8-1.6-1.8-3.1c-0.6-1.1-1.4-2-2-3.1q2.5 2.8 4.4 5.9 2 3.1 3.6 6.4c1 2.2 2 4.4 2.7 6.8 0.8 2.3 1.5 4.6 2 7z"/>
			</g>
			<g>
				<path class="s8" d="m747 1115.2q0.2-4 0.4-8 0.1-4 0.2-8.1c0.2-5.3 0.3-10.7 0.2-16q0.1-8.1-0.5-16.1c-0.1-2.6-0.4-5.3-0.8-8l-0.6-3.9-0.9-3.9c1.8 5.1 2.5 10.4 3 15.8 0.5 5.3 0.7 10.7 0.8 16.1-0.1 5.3-0.2 10.7-0.5 16.1-0.3 5.3-0.7 10.7-1.3 16z"/>
			</g>
			<g>
				<path class="s8" d="m711 1169.6c-0.3-1.2-0.6-2.4-1-3.6q-0.5-1.7-1.2-3.4c-0.8-2.3-1.8-4.5-3-6.6-1.1-2.2-2.5-4.2-4-6.1l-1.1-1.4q-0.7-0.6-1.3-1.3l-0.6-0.6-0.7-0.6q-0.7-0.6-1.4-1.3c2.1 1.4 4 2.9 5.7 4.8 1.6 1.8 3.1 3.8 4.2 6 1.2 2.2 2.2 4.5 2.9 6.8 0.7 2.4 1.3 4.8 1.5 7.3z"/>
			</g>
			<g>
				<path class="s0" d="m720.2 1380.7c-1.9-10.1-1.7-20.5-0.5-30.7 1.2-10.1 3.7-20.2 7.2-29.8 0.4-1.2 0.9-2.4 1.3-3.6 0.5-1.2 1-2.4 1.5-3.6l1.5-3.5 1.7-3.5q0.8-1.7 1.8-3.4l1.8-3.4c1.3-2.2 2.5-4.5 3.9-6.6l2.1-3.2 2.2-3.2c1.4-2.1 3-4.2 4.5-6.2q1.2-1.5 2.4-3l2.5-3c1.6-1.9 3.3-3.8 5.1-5.7-6.7 7.7-12.9 16-18.2 24.7-5.3 8.7-9.8 17.9-13.3 27.5-3.5 9.6-6 19.5-7.3 29.6q-1.1 7.6-1.2 15.3c0 5.1 0.2 10.2 1 15.3z"/>
			</g>
			<g>
				<path class="s0" d="m756.6 1266c-3.9-1.9-7.7-3.9-11.4-6-3.7-2.2-7.3-4.5-10.9-6.8-3.5-2.4-7-4.9-10.4-7.6q-5-3.9-9.6-8.4c1.7 1.3 3.3 2.7 5 4l2.5 2 2.6 1.9c3.4 2.5 6.9 5 10.4 7.3 3.6 2.4 7.2 4.7 10.8 7q2.7 1.7 5.4 3.3c1.9 1.1 3.7 2.2 5.6 3.3z"/>
			</g>
			<g>
				<path class="s0" d="m738.8 1283.3c-3.6-2.7-7-5.6-10.4-8.6-3.3-3-6.5-6.1-9.7-9.3-3.1-3.3-6.1-6.7-8.9-10.1-2.9-3.5-5.5-7.2-8-10.9 1.4 1.7 2.7 3.6 4.2 5.3l2.1 2.6 2.2 2.5c1.5 1.7 3 3.4 4.5 5 1.5 1.7 3 3.3 4.6 4.9 3.1 3.3 6.3 6.4 9.5 9.5q2.4 2.3 4.9 4.6 2.5 2.3 5 4.5z"/>
			</g>
			<g>
				<path class="s0" d="m764.4 1268.9q5.6 2 11.3 3.7c1.9 0.6 3.9 1.1 5.8 1.7l5.7 1.6c7.7 2.1 15.5 3.9 23.3 5.4 7.8 1.6 15.7 2.8 23.6 3.7l5.9 0.7c2 0.1 4 0.2 5.9 0.4l3 0.2c1 0 2 0 3 0.1l6 0.2c-8 0.1-16 0-23.9-0.9-8-0.8-15.9-1.9-23.7-3.5-7.8-1.6-15.6-3.4-23.3-5.6-7.6-2.2-15.2-4.7-22.6-7.7z"/>
			</g>
			<g>
				<path class="s0" d="m752.4 1289.4q6.2 1.5 12.4 2.9c2 0.4 4.1 0.8 6.2 1.3l6.2 1.2c8.3 1.5 16.7 2.8 25.1 3.9 8.4 1.1 16.8 1.7 25.2 2.2l6.4 0.2c2.1 0.1 4.2 0 6.3 0.1h3.2q1.6 0 3.2-0.1l6.3-0.2c-8.4 0.7-16.9 1-25.4 0.7q-12.7-0.5-25.3-2c-8.4-1.1-16.8-2.4-25.1-4.1-8.3-1.7-16.6-3.7-24.7-6.1z"/>
			</g>
			<g>
				<path class="s0" d="m664.9 1369c3.8 3.9 8.1 7.2 12.7 9.8 4.7 2.7 9.7 4.8 14.8 6.4 5.2 1.7 10.4 2.9 15.8 3.7q4 0.7 8 1 4 0.4 8.1 0.5c-5.4 0.3-10.8-0.1-16.2-0.8-5.4-0.7-10.7-1.9-15.9-3.5-5.2-1.7-10.3-3.8-14.9-6.6-2.4-1.4-4.6-3.1-6.7-4.8q-3.1-2.6-5.7-5.7z"/>
			</g>
			<g>
				<path class="s0" d="m551.3 1503.3l0.8 4.5q0.4 2.3 0.8 4.5c0.5 3 1.2 6 1.7 9-1.3-2.8-2-5.8-2.6-8.8-0.6-3-0.9-6.1-0.7-9.2z"/>
			</g>
			<g>
				<path class="s0" d="m565.7 1514.4c0.6 1.3 1.1 2.6 1.8 3.9q0.9 1.9 1.9 3.8c1.3 2.6 2.6 5.2 4 7.7q2.1 3.7 4.3 7.5 1 1.8 2.2 3.7c0.7 1.2 1.4 2.5 2.2 3.7-1.8-2.3-3.5-4.6-5.1-7.1-1.5-2.4-3-4.9-4.4-7.4q-2.1-3.8-3.8-7.8-1.8-3.9-3.1-8z"/>
			</g>
			<g>
				<path class="s0" d="m563.3 1482.3c-0.3 4.1 1.2 8.2 3.9 11.1 2.7 3 6.2 5.2 9.8 7 3.6 1.8 7.5 3.2 11.4 4.4q2.9 0.9 5.9 1.6 3 0.8 6 1.4c-4.1-0.5-8.1-1.3-12.1-2.3-4-1.1-7.9-2.5-11.6-4.3q-2.8-1.3-5.3-3.1c-1.7-1.3-3.3-2.6-4.6-4.2-1.3-1.6-2.4-3.5-3-5.5-0.6-1.9-0.7-4.1-0.4-6.1z"/>
			</g>
			<g>
				<path class="s0" d="m816.7 1574.7c-0.4 2.1-1.6 4.1-3.4 5.3-1.8 1.3-3.9 2-6.1 2.3-2.1 0.3-4.3 0.2-6.4 0.1q-3.3-0.3-6.4-1c-4.2-0.9-8.3-2.2-12.3-3.6-4-1.6-8-3.2-11.8-5.2q3 1.2 6 2.3 3 1.2 6 2.2c4 1.3 8.1 2.6 12.3 3.4q3.1 0.7 6.2 1c2.1 0.2 4.3 0.3 6.3 0.1 2.1-0.2 4.2-0.8 5.9-1.9 0.5-0.3 0.9-0.7 1.3-1 0.4-0.4 0.7-0.8 1-1.2q0.4-0.6 0.8-1.3z"/>
			</g>
			<g>
				<path class="s0" d="m816.7 1587.3c-3.2 0.7-6.5 0.8-9.8 0.5-3.3-0.2-6.6-0.7-9.8-1.7 3.3 0.3 6.6 0.6 9.8 0.8 3.3 0.3 6.5 0.4 9.8 0.4z"/>
			</g>
			<g>
				<path class="s0" d="m816.7 1597.1c-1.4 1.4-3.3 2.5-5.2 3.4-1.9 0.9-3.9 1.4-5.9 1.9q-3 0.7-6.1 1c-2.1 0.2-4.2 0.2-6.2 0.1 1-0.1 2-0.2 3-0.4q1.6-0.2 3.1-0.4c2-0.4 4-0.7 6-1.2 2-0.4 4-1 5.9-1.7 0.5-0.1 0.9-0.4 1.4-0.5q0.7-0.3 1.4-0.7c0.4-0.2 0.9-0.4 1.3-0.7q0.7-0.4 1.3-0.8z"/>
			</g>
			<g>
				<path class="s0" d="m797.8 1824.1c-2.4 1-5 1.4-7.6 1.5-2.6 0.2-5.2 0-7.8-0.3q-3.8-0.5-7.6-1.4c-2.5-0.6-5-1.2-7.4-2.2 1.2 0.3 2.5 0.6 3.8 0.8q1.9 0.4 3.8 0.7c2.5 0.5 5 0.9 7.6 1.2 2.5 0.3 5 0.5 7.6 0.5 0.6 0 1.3 0 1.9 0 0.7-0.1 1.3-0.1 1.9-0.2 0.7 0 1.3-0.1 1.9-0.2q1-0.2 1.9-0.4z"/>
			</g>
			<g>
				<path class="s0" d="m473.3 1695c-2.6 0.2-5.2 0.1-7.7-0.3q-3.8-0.7-7.4-2.1c-2.4-1-4.8-2.1-7-3.4-2.2-1.3-4.4-2.7-6.3-4.4 1.1 0.7 2.2 1.4 3.3 2q1.6 0.9 3.3 1.8c2.3 1.1 4.6 2.2 7 3.1 2.3 0.9 4.8 1.7 7.2 2.3 1.3 0.2 2.5 0.5 3.8 0.6 1.2 0.3 2.5 0.3 3.8 0.4z"/>
			</g>
			<g>
				<path class="s0" d="m745.4 1396.6c2.9 1 5.8 1.9 8.8 2.5 1.5 0.4 3 0.6 4.5 0.9 1.5 0.2 3 0.5 4.5 0.7 6 0.7 12.1 0.9 18.2 0.4 6.1-0.3 12.1-1.3 18-2.6q4.5-1 8.8-2.3 4.4-1.3 8.6-3.1c-5.5 2.7-11.3 4.6-17.2 6.1-6 1.5-12 2.4-18.2 2.9-6.1 0.3-12.2 0.2-18.3-0.7-6.1-0.9-12-2.5-17.7-4.8z"/>
			</g>
			<g>
				<path class="s8" d="m859 998.7c2.9-2.2 5.7-4.4 8.2-7 2.4-2.6 4.5-5.6 6-8.9-0.4 1.8-1.1 3.5-2 5.1-1 1.6-2.1 3.1-3.4 4.4-2.5 2.7-5.5 4.8-8.8 6.4z"/>
			</g>
			<g>
				<path class="s8" d="m784.8 992.4c1.1 1.6 2.5 2.9 3.9 4.2l1 0.9 1.2 0.9c0.7 0.6 1.5 1.1 2.3 1.7 3.1 2 6.6 3.7 10.1 4.9l2.7 0.9c0.9 0.3 1.8 0.5 2.8 0.7 1.8 0.6 3.7 0.8 5.5 1.2 1 0.2 1.9 0.2 2.9 0.3l2.8 0.3c1.9 0.1 3.8 0.2 5.7 0.3q-2.9 0.1-5.7 0.2l-2.9-0.2c-1-0.1-1.9-0.1-2.9-0.2-1.9-0.3-3.8-0.5-5.6-1-1-0.3-1.9-0.4-2.8-0.7l-2.8-0.9c-3.6-1.3-7.1-3-10.2-5.3-3.1-2.2-6-4.9-8-8.2z"/>
			</g>
			<g>
				<path class="s8" d="m1003.3 857.9c-2.5 1-5.1 1.5-7.7 1.8-2.6 0.4-5.3 0.5-7.9 0.5q-3.9 0-7.9-0.3l-3.9-0.5c-1.3-0.2-2.6-0.4-3.9-0.6l7.9 0.4c2.6 0 5.2 0.1 7.8 0.1q3.9 0 7.8-0.3 2-0.1 3.9-0.4 2-0.2 3.9-0.7z"/>
			</g>
			<g>
				<path class="s8" d="m991.6 898.5c-3.6 0.1-7.2-0.3-10.8-0.8-3.6-0.6-7.2-1.6-10.6-3q-2.5-1-4.8-2.6c-1.5-1-2.9-2.3-4-3.8-1.1-1.5-1.8-3.3-2.1-5.1-0.2-1.9 0.1-3.7 0.6-5.5-0.3 1.8-0.5 3.6-0.1 5.4 0.3 1.7 1.1 3.4 2.2 4.8 2.2 2.7 5.3 4.6 8.6 6 3.3 1.4 6.8 2.3 10.3 3.1q2.7 0.5 5.3 0.9 2.7 0.4 5.4 0.6z"/>
			</g>
			<g>
				<path class="s8" d="m965 913.2c-1.6-1.5-3.1-3.1-4.4-4.8-1.3-1.7-2.5-3.5-3.6-5.4q-1.7-2.8-2.9-5.8c-0.8-2-1.4-4.1-1.8-6.2 0.4 1 0.7 2 1.2 3l0.6 1.5 0.7 1.4c0.9 1.9 1.9 3.8 3 5.7 1 1.8 2.2 3.6 3.4 5.4q0.9 1.3 1.8 2.6c0.6 0.9 1.3 1.7 2 2.6z"/>
			</g>
			<g>
				<path class="s8" d="m720.2 1202.3c0.6 2.9 1.8 5.7 3.4 8.2q0.2 0.5 0.5 0.9l0.7 0.9 1.2 1.8 1.5 1.7c0.5 0.6 0.9 1.2 1.4 1.7l1.6 1.5c0.5 0.5 1 1.1 1.6 1.5 1.2 0.9 2.3 1.9 3.4 2.8l3.7 2.5c0.6 0.5 1.2 0.8 1.8 1.2l2 1.1 1.9 1.1c0.6 0.4 1.3 0.6 2 1l3.9 1.9c1.4 0.6 2.8 1.1 4.1 1.6 1.4 0.6 2.8 1.2 4.2 1.6 2.8 0.9 5.6 1.9 8.4 2.7 2.9 0.8 5.8 1.5 8.6 2.3-2.9-0.6-5.8-1.3-8.7-1.9-2.9-0.7-5.7-1.6-8.5-2.4-1.5-0.4-2.8-1-4.2-1.5-1.4-0.6-2.8-1-4.2-1.6l-4-1.9c-0.7-0.4-1.4-0.6-2.1-1l-1.9-1.1-1.9-1.1c-0.7-0.4-1.3-0.8-1.9-1.2l-3.7-2.6c-1.1-0.9-2.3-1.9-3.4-2.9-1.2-1-2.1-2.1-3.2-3.2-0.5-0.5-0.9-1.1-1.4-1.7l-1.4-1.7-1.3-1.9-0.6-0.9q-0.3-0.5-0.5-1c-1.5-2.6-2.6-5.4-3-8.4z"/>
			</g>
			<g>
				<path class="s8" d="m833.1 1244.6q3.8 0.1 7.6-0.2 3.8-0.1 7.5-0.6c5-0.7 10-1.6 14.7-3.2 4.8-1.6 9.3-3.8 13.3-6.9q3-2.3 5.4-5.2c1.5-1.9 2.8-4.1 3.9-6.4-0.9 2.4-2.1 4.6-3.6 6.7-1.5 2-3.3 3.9-5.3 5.5-1.9 1.6-4.1 3-6.4 4.2-2.2 1.2-4.6 2.1-7 2.9-4.8 1.6-9.9 2.6-14.9 3.1-5.1 0.5-10.1 0.6-15.2 0.1z"/>
			</g>
			<g>
				<path class="s8" d="m708.8 1218.8q1.2 1.2 2.5 2.3 1.2 1.2 2.6 2.2 2.7 2.1 5.6 3.8 1.4 0.9 2.9 1.8c1 0.5 2 1 3 1.6 2.1 1 4.1 2 6.2 2.9q-1.6-0.4-3.3-1c-1-0.4-2.1-0.8-3.2-1.3q-3.1-1.4-6.1-3.2c-1.9-1.2-3.8-2.5-5.6-4-1.7-1.6-3.3-3.2-4.6-5.1z"/>
			</g>
			<g>
				<path class="s8" d="m757.9 1204.6c-3.3-0.1-6.5-0.6-9.7-1.2-3.2-0.7-6.4-1.6-9.4-3-1.5-0.7-3-1.5-4.3-2.5-1.4-1-2.6-2.2-3.3-3.8-0.8-1.5-1-3.3-0.6-5 0.4-1.6 1.2-3 2.2-4.4-0.8 1.5-1.5 3-1.8 4.5-0.2 1.6 0 3.2 0.8 4.6 0.8 1.3 1.9 2.5 3.2 3.4 1.3 0.9 2.7 1.7 4.2 2.4 2.9 1.3 6 2.2 9.1 3.1q2.4 0.6 4.8 1 2.4 0.5 4.8 0.9z"/>
			</g>
			<g>
				<path class="s0" d="m826.2 1318.9c-0.5 4.8-1.3 9.6-2.2 14.4-0.5 2.4-1.1 4.8-1.6 7.1q-0.7 3.6-1.2 7.2-1 7.3-2.4 14.4-0.6 3.6-1.4 7.2c-0.4 2.5-2.4 4.7-4.8 5.3v-0.1c2.2-0.9 3.8-3 4.1-5.3q0.6-3.7 1.2-7.2 1.3-7.2 2.8-14.4 0.8-3.5 1.4-7.1c0.4-2.4 0.7-4.8 1.1-7.2q1.2-7.2 2.9-14.3z"/>
			</g>
			<g>
				<path class="s0" d="m768.6 1308q3.6 0.8 7.2 1.5l7.2 1.5c4.8 0.9 9.5 1.8 14.3 2.7q7.2 1.4 14.5 2.6l14.4 2.6q-3.7-0.4-7.3-0.9c-2.4-0.3-4.8-0.6-7.3-1-4.8-0.7-9.6-1.5-14.4-2.4-4.8-0.9-9.6-1.9-14.4-2.9-4.7-1.1-9.5-2.3-14.2-3.7z"/>
			</g>
			<g>
				<path class="s0" d="m766.2 1318.1q3.6 0.8 7.2 1.6 3.6 0.8 7.2 1.5c4.9 1 9.7 2 14.6 2.9q7.2 1.4 14.5 2.7l14.6 2.6q-3.7-0.4-7.4-0.8c-2.4-0.4-4.9-0.7-7.3-1.1-4.9-0.7-9.8-1.6-14.6-2.5-4.9-1-9.7-1.9-14.5-3.1-4.8-1.1-9.6-2.3-14.3-3.8z"/>
			</g>
			<g>
				<path class="s0" d="m812.6 1374.5c-4.6 1.9-9.4 3.7-14.1 5.5l-7.1 2.6-3.5 1.3c-1.2 0.4-2.6 0.7-3.9 0.6-1.3 0-2.6-0.4-3.7-1.1-0.6-0.3-1.1-0.8-1.6-1.2l-1.4-1.3q-2.8-2.5-5.6-5.1c-3.7-3.3-7.6-6.6-11.4-9.9l-1.4-1.2c-0.5-0.4-1-0.9-1.4-1.4-0.8-1.1-1.3-2.4-1.4-3.7q-0.1-1 0.1-2l0.5-1.8 0.8-3.7c1.2-4.9 2.3-9.8 3.5-14.7q3.6-14.8 7.6-29.4l0.1 0.1q-3.2 14.8-6.7 29.5c-1.2 4.9-2.4 9.8-3.6 14.7l-0.9 3.7-0.5 1.8q-0.2 0.9-0.1 1.8c0 1.1 0.4 2.3 1.1 3.3 0.4 0.5 0.8 0.9 1.2 1.3l1.4 1.3c3.8 3.4 7.5 6.8 11.3 10.1q2.9 2.5 5.8 4.9c1 0.8 1.8 1.8 2.9 2.3 1.1 0.6 2.3 0.9 3.5 1 1.2 0 2.3-0.2 3.5-0.7l3.5-1.3 7.2-2.5c4.7-1.7 9.5-3.3 14.3-4.9z"/>
			</g>
			<g>
				<g>
					<path class="s6" d="m875.2 920.8c-5.2-17.9-7.4-34.4-7.9-43.3-0.9-15.4-10.1-36.5-34.1-37.3-24.5-0.8-81.6 10.3-76.3 60.8 5.1 48.2 30.4 54.2 37.4 54.9l4.1 18.4c1.6 7.3-3.2 14.4-10.5 15.8 46.2 22.5 78.7-7.2 78.7-7.2q-1.6 0-3.3-0.1c-5.3-0.1-9.8-3.8-10.9-9l-2.4-10.6q0.1 0 0.9 0.1c1.6 0.1 5.6 0.5 10.3 0.4 4.3-0.1 8.3-2.5 10.3-6.4 3.9-7.7 8.1-21.5 3.7-36.5z"/>
				</g>
				<g>
					<path class="s7" d="m874.4 870.4c-7.5-30.8-39.8-36.8-39.8-36.8-66.4-11.4-82.1 31.4-82.1 31.4-24.3 41.5 17.2 78.6 17.2 78.6 17.3 22.1 32.7 10.9 32.7 10.9 8.6 3.2 18.5-3 18.5-3 14.7-3.5 6.6-27.3 6.6-27.3 10.3-7.1 2.4-18.9 2.4-18.9 20-2.1 22.2-12.2 22.2-12.2 0 0 0.8 3.8 0.3 8.8-1 8.9-2.6 11.5-2.6 11.5 5.3-1.6 6.5-7.8 6.5-7.8-0.7 5.7-3.1 9-3.1 9 3.2-1.8 5.5-4.3 7-7.1-0.9 3.2-1.7 5.3-1.7 5.3 9.5-6 9.9-29 9.9-29 2.2 9.7-1.1 22.7-1.1 22.7 0 0 14.6-5.2 7.1-36.1z"/>
				</g>
				<g>
					<g>
						<path class="s6" d="m841.4 924.9l-2.2 0.5c-4.5 1-8.9-1.9-9.9-6.4l-3.2-14.5c-1-4.5 1.8-8.9 6.3-9.9l2.3-0.5c4.5-1 8.9 1.9 9.9 6.4l3.2 14.5c1 4.5-1.9 8.9-6.4 9.9z"/>
					</g>
					<g>
						<g>
							<path class="s9" d="m837.2 902.6c1-0.2 1.9 0.3 2.6 0.9 0.7 0.6 1.2 1.4 1.6 2.3 0.8 1.6 1.2 3.5 1.1 5.4-0.1 1-0.3 1.9-0.8 2.7-0.3 0.5-0.5 0.9-1 1.2-0.2 0.1-0.5 0.2-0.8 0.1-0.3-0.1-0.5-0.3-0.6-0.5-0.5-0.9-0.7-1.8-0.9-2.7q-0.2-1.4-0.3-2.8 0.2 1.4 0.6 2.7c0.2 0.9 0.4 1.8 0.9 2.5 0.2 0.2 0.3 0.3 0.4 0.4q0.3 0.1 0.5-0.1c0.3-0.2 0.6-0.6 0.8-1 0.4-0.8 0.6-1.6 0.6-2.5 0.2-1.8-0.2-3.6-0.8-5.3-0.4-0.8-0.9-1.6-1.5-2.2-0.6-0.7-1.4-1.1-2.4-1.1z"/>
						</g>
						<g>
							<path class="s9" d="m836.5 906.8q-0.5-0.7-0.7-1.5-0.3-0.8-0.4-1.6c0-0.6 0-1.2 0.3-1.7 0.2-0.3 0.5-0.5 0.8-0.6q0.4-0.1 0.8 0c-0.5 0.1-1 0.4-1.2 0.8-0.2 0.4-0.2 0.9-0.2 1.4 0.1 0.5 0.2 1.1 0.3 1.6z"/>
						</g>
					</g>
				</g>
				<g>
					<path class="s7" d="m762.9 870.6c0 0-14.9-13.1-30.8 4.3-15.9 17.4-9.6 58.3-4.7 92.9 4.8 34.6-1.1 56.6 16.1 63.6 0 0-8.6-13.8-9.9-30 0 0 5.3 31 19.7 30.2 0 0-2-1.6-5.3-6.6 0 0 4.1 7.3 13.9 6.1l-3.2-2.6c0 0 3.8 2.7 6.3 1.9 0 0-2.6-3-4.8-10 0 0 4 12.5 14 7.4 0 0-2.7-4.6-3.5-8.2 0 0 4.3 10.3 10.7 4.7 0 0-2.3-1.3-3.1-5.5 0 0 0.8 2.5 3.3 3.2 0 0 0.7-10.4-3.8-27-4.5-16.6-9.8-39.7-12.2-55.6 0 0 4 26.2 11.4 45.2 7.4 19.1 10 29.8 6.6 37.5 0 0 15.4-2.4 2.2-31.6-12.2-27-35.1-98-19.9-110.7 0 0 1.4-4.3-3-9.2z"/>
				</g>
				<g>
					<path class="s9" d="m843.1 925.9c0.8 0.9 1.3 1.9 1.7 3q0.7 1.7 1 3.4c0.2 1.1 0.3 2.3 0.6 3.4 0.2 1.1 0.7 2.2 1.1 3.2 0.9 2.1 2 4.1 3.4 5.9 1.5 1.7 3.3 3.2 5.5 3.9-1.2-0.2-2.3-0.6-3.3-1.2-1-0.7-1.8-1.5-2.6-2.4q-1.1-1.3-1.9-2.9-0.9-1.5-1.5-3.1c-0.8-2.2-1-4.5-1.7-6.7-0.6-2.2-1.2-4.5-2.3-6.5z"/>
				</g>
				<g>
					<path class="s9" d="m846.1 942.8q0.6 1.8 1 3.5 0.5 1.7 0.9 3.5c0.5 2.4 0.9 4.7 1.3 7.1q0.6 3.6 1.2 7.1 0.6 3.6 1.3 7.1-0.5-1.7-1-3.5-0.4-1.8-0.7-3.5c-0.5-2.4-0.9-4.7-1.3-7.1q-0.6-3.6-1.2-7.1-0.7-3.6-1.5-7.1z"/>
				</g>
				<g>
					<path class="s9" d="m845.2 903.1q1.2 4.4 2.1 8.8l0.5 2.3c0 0.3 0.1 0.7 0.1 1.1q0.1 0.3 0.1 0.5l0.1 0.6c0 1.5-0.3 3.1-1 4.4-0.7 1.4-1.8 2.6-3.1 3.4-0.7 0.3-1.4 0.7-2.2 0.9-0.7 0.2-1.5 0.3-2.2 0.5-0.7 0.1-1.5 0.3-2.3 0.2q-1.2 0-2.3-0.4c-1.5-0.4-2.8-1.3-3.7-2.5 1.1 1 2.4 1.8 3.8 2.1 1.5 0.4 2.9 0.4 4.4 0 0.7-0.2 1.5-0.3 2.2-0.5 0.7-0.1 1.4-0.4 2-0.8q1-0.5 1.7-1.3c0.6-0.5 1.1-1.1 1.4-1.7 0.4-0.7 0.7-1.3 0.9-2.1 0.1-0.3 0.1-0.7 0.2-1.1q0-0.2 0-0.5 0-0.3 0-0.6c0-0.7-0.2-1.4-0.4-2.2l-0.6-2.2q-1-4.4-1.7-8.8z"/>
				</g>
				<g>
					<path class="s0" d="m766.9 880.7c3.4 5.3 7.3 10.4 11.4 15.3 2 2.5 4.1 4.9 6.3 7.2q3.4 3.3 7.2 6.3 3.8 2.9 7.9 5.4c2.7 1.6 5.5 3.1 8.4 4.4l2.2 0.9c0.7 0.3 1.5 0.5 2.2 0.8l1.2 0.4 1.1 0.3c0.8 0.3 1.5 0.5 2.3 0.7 3.1 0.8 6.2 1.3 9.4 1.6v0.1c-3.2-0.1-6.4-0.4-9.6-1.1-3.1-0.7-6.2-1.7-9.1-3q-4.5-1.9-8.5-4.5-4.1-2.6-7.8-5.7-3.6-3.1-7.1-6.4c-2.3-2.3-4.5-4.5-6.6-6.9q-3.2-3.7-6-7.6c-1.8-2.7-3.5-5.4-5-8.2z"/>
				</g>
				<g>
					<path class="s0" d="m768.7 881.2c3.5 3.8 7.6 7.1 11.9 10 2.1 1.5 4.3 2.9 6.6 4.2q3.4 1.8 7.1 3.1c4.9 1.7 10 3.1 15.1 3.9 5.1 0.9 10.3 1.4 15.5 1.6v0.1c-5.2 0.3-10.4 0-15.6-0.8q-1-0.2-2-0.4l-1.9-0.4-1.9-0.5q-1-0.2-1.9-0.5c-2.5-0.7-5-1.6-7.4-2.6-2.4-1-4.8-2.1-7.1-3.3-2.4-1.2-4.7-2.4-6.9-3.8q-3.3-2.2-6.3-4.8c-1.9-1.8-3.8-3.6-5.3-5.8z"/>
				</g>
				<g>
					<path class="s0" d="m767.7 876.6c5.5 2.3 11.1 4.2 16.9 5.8 2.8 0.8 5.7 1.5 8.6 2.1q4.4 0.8 8.9 1c5.9 0.3 11.9 0.1 17.7-0.7 5.9-0.8 11.7-2.3 17.2-4.3h0.1c-5.4 2.6-11.2 4.3-17.2 5.2-1.4 0.2-2.9 0.3-4.4 0.4q-1.1 0.1-2.3 0.2h-1.1-1.1c-3 0.1-6-0.1-9-0.4-1.5-0.1-2.9-0.3-4.4-0.5q-2.2-0.3-4.4-0.7c-3-0.5-5.9-1-8.8-1.7q-4.4-1.1-8.6-2.6c-2.8-1.1-5.5-2.3-8.2-3.7z"/>
				</g>
				<g>
					<path class="s0" d="m765 872.3c0.7-1.3 1.8-2.6 2.9-3.6q1.8-1.6 3.9-2.8c2.7-1.5 5.6-2.7 8.6-3.6 3-1 6-1.7 9.1-2.5q4.5-1.2 9-2.5l8.9-2.7q4.5-1.4 8.9-2.8c6-1.8 11.9-3.8 17.8-5.8v0.1c-5.7 2.5-11.6 4.6-17.5 6.5q-8.9 2.9-18 5.1c-3.1 0.7-6.1 1.5-9.1 2.3q-4.5 1.3-8.9 2.9c-2.9 1-5.8 2.1-8.5 3.6-2.8 1.4-5.3 3.3-7 5.9z"/>
				</g>
				<g>
					<path class="s0" d="m762.8 869.2c0.7-2.6 1.6-5.1 2.9-7.4 0.3-0.6 0.6-1.1 1-1.7 0.3-0.6 0.7-1.1 1.1-1.6l1.2-1.6q0.7-0.8 1.4-1.5l0.7-0.7 0.7-0.7 1.5-1.3c0.4-0.4 1-0.8 1.5-1.2l1.5-1.3q1.6-1.1 3.2-2.3l3.2-2.3c0.6-0.3 1.1-0.7 1.7-1l1.7-1.1q0.8-0.5 1.7-1l1.7-0.9c1.2-0.6 2.3-1.3 3.5-1.9l3.5-1.7q1.8-0.9 3.6-1.6l3.7-1.5q3.7-1.4 7.4-2.7v0.1c-2.4 1.1-4.8 2.1-7.2 3.2l-3.5 1.6-1.8 0.8c-0.6 0.3-1.2 0.6-1.8 0.9q-7.1 3.3-13.9 7.2c-1.1 0.7-2.3 1.4-3.3 2.1q-1.6 1.2-3.2 2.3c-1 0.9-2 1.7-2.9 2.6l-1.4 1.4-0.7 0.7-0.6 0.8-1.3 1.4-1.2 1.6c-0.4 0.5-0.8 1-1.1 1.6-0.4 0.5-0.8 1-1.1 1.6-1.3 2.2-2.4 4.6-3.3 7.1z"/>
				</g>
				<g>
					<path class="s0" d="m770.7 877.2c6 2 12.2 2.8 18.5 3 3.1 0.2 6.3 0.1 9.4-0.3q4.7-0.5 9.2-1.9c3-1 5.9-2.1 8.7-3.4l1.1-0.5 1-0.5 2.1-1.1 2.1-1.1 1-0.6 1-0.6c5.3-3.3 10.3-7.2 14.9-11.4h0.1c-4.3 4.7-9.2 8.7-14.6 12.1l-1 0.6-1 0.6-2.1 1.2-2.1 1-1.1 0.5-1.1 0.5c-2.8 1.3-5.9 2.3-8.9 3.1-0.8 0.2-1.5 0.4-2.3 0.6q-1.2 0.2-2.3 0.4c-1.6 0.3-3.1 0.6-4.7 0.8-3.1 0.4-6.3 0.7-9.4 0.7-3.2 0-6.3-0.3-9.5-0.9-3.1-0.6-6.1-1.4-9-2.7z"/>
				</g>
				<g>
					<path class="s0" d="m764 885.6c2.4 6.3 5.3 12.5 8.3 18.5 1.6 3 3.1 6.1 4.9 9 1.8 2.9 3.7 5.6 5.8 8.3q3.1 4 6.6 7.8c2.3 2.4 4.7 4.8 7.3 7q3.8 3.3 8.1 6.1 4.3 2.7 8.9 4.8c-3.2-1.1-6.3-2.6-9.2-4.3-3-1.8-5.8-3.8-8.4-6q-3.9-3.3-7.3-7.1-3.4-3.8-6.4-8c-1.9-2.8-3.8-5.6-5.6-8.5q-1.4-2.2-2.7-4.3-1.3-2.2-2.6-4.5c-1.6-3-3-6.1-4.3-9.2-1.3-3.1-2.6-6.3-3.5-9.6z"/>
				</g>
				<g>
					<path class="s0" d="m764 885.6c1.9 6 3.9 12 6 17.9 1.1 3 2.1 6 3.3 8.9q1.8 4.4 4 8.6 2.2 4.2 4.5 8.3c1.6 2.7 3.4 5.3 5.2 7.9 1.8 2.6 3.7 5.1 5.8 7.4 2.1 2.3 4.4 4.5 7 6.4h-0.1c-2.7-1.6-5.1-3.7-7.3-6q-3.4-3.4-6.1-7.3-2.8-3.9-5.1-8-2.3-4.2-4.3-8.5-2-4.3-3.8-8.7c-1.3-2.9-2.6-5.8-3.7-8.7q-1.7-4.5-3.1-9c-0.9-3.1-1.7-6.1-2.4-9.2z"/>
				</g>
				<g>
					<path class="s0" d="m818.6 948.9c-2.1-1.3-4-2.7-5.8-4.2q-2.8-2.3-5.3-4.9c-0.8-0.9-1.6-1.8-2.4-2.7-0.7-0.9-1.5-1.8-2.2-2.8-1.5-1.9-2.8-4-3.9-6 1.4 1.9 2.8 3.8 4.4 5.6q2.2 2.7 4.7 5.3 2.5 2.6 5.1 5c1.7 1.6 3.5 3.2 5.4 4.7z"/>
				</g>
				<g>
					<path class="s0" d="m852.1 893.1q-0.2-2.3-0.5-4.7-0.3-2.3-0.6-4.7-0.7-4.6-1.6-9.3c-0.6-3.1-1.3-6.1-2.1-9.2l-0.6-2.3c-0.2-0.7-0.4-1.5-0.7-2.3-0.4-1.5-0.9-3-1.4-4.5q2 4.4 3.3 8.9 1.4 4.6 2.3 9.3c0.6 3.1 1.1 6.2 1.4 9.4q0.2 2.3 0.4 4.7c0.1 1.6 0.1 3.2 0.1 4.7z"/>
				</g>
				<g>
					<path class="s0" d="m853.6 902.6q0.5-2.6 0.8-5.1 0.4-2.6 0.7-5.1 0.5-5.2 0.5-10.3c0.1-3.4-0.1-6.9-0.5-10.3l-0.3-2.5c-0.1-0.9-0.3-1.7-0.4-2.5l-0.2-1.3q-0.2-0.6-0.3-1.3-0.3-1.2-0.6-2.5c1.1 3.3 2 6.6 2.4 10.1 0.5 3.4 0.8 6.8 0.7 10.3 0 3.5-0.3 6.9-0.7 10.3-0.5 3.4-1.1 6.9-2.1 10.2z"/>
				</g>
				<g>
					<path class="s0" d="m861.8 903.1q0.6-2.3 1-4.6 0.4-2.3 0.7-4.6 0.3-2.4 0.5-4.7l0.2-2.3 0.1-2.4c0.1-3.1 0.1-6.2 0-9.3-0.2-3.2-0.5-6.3-0.8-9.4q0.2 1.1 0.4 2.3c0.2 0.8 0.3 1.5 0.4 2.3 0.2 1.6 0.5 3.1 0.6 4.7 0.3 3.1 0.3 6.3 0.2 9.5q-0.2 4.7-1 9.4-0.4 2.3-0.9 4.6c-0.4 1.5-0.8 3-1.4 4.5z"/>
				</g>
				<g>
					<path class="s0" d="m868.4 885.7l-0.1-6c0-2 0-4-0.1-6-0.1-2-0.1-3.9-0.3-5.9-0.2-2-0.4-4-0.8-5.9 0.7 1.8 1.1 3.8 1.4 5.8 0.3 2 0.4 4 0.5 6q0.1 3-0.1 6-0.1 3-0.5 6z"/>
				</g>
				<g>
					<path class="s0" d="m841.9 860.4c-1.5 2.3-3.4 4.3-5.5 6.1-2.1 1.7-4.4 3.2-6.8 4.6l-1.8 1q-0.9 0.4-1.8 0.9c-1.3 0.6-2.5 1-3.8 1.5-1.3 0.5-2.6 0.9-3.9 1.4q-2 0.5-3.9 1c1.2-0.5 2.5-0.9 3.8-1.4l1.9-0.8c0.6-0.2 1.2-0.4 1.9-0.7 1.2-0.6 2.4-1.1 3.6-1.7 0.6-0.3 1.3-0.6 1.9-0.9l1.7-1c2.4-1.3 4.7-2.8 6.8-4.4 1.1-0.9 2.1-1.7 3.1-2.6q1.5-1.4 2.8-3z"/>
				</g>
				<g>
					<path class="s0" d="m836.8 837.1c1.2 2 2.2 4.1 3 6.2q1.3 3.2 2.1 6.5c0.5 2.3 0.8 4.5 1.2 6.8q0.4 3.4 0.7 6.8c0.4 4.6 0.2 9.2-0.5 13.7-0.8 4.5-2.2 9-4.1 13.1h-0.1c1.5-4.4 2.6-8.8 3.3-13.2 0.4-2.3 0.7-4.5 0.8-6.8 0.1-2.2 0.2-4.5 0.2-6.8q-0.1-3.4-0.6-6.8c-0.4-2.2-1-4.4-1.6-6.6-1.2-4.4-2.6-8.7-4.5-12.8z"/>
				</g>
				<g>
					<path class="s0" d="m840.5 893c0.7-0.8 1.3-1.5 1.9-2.3q0.9-1.2 1.7-2.4 1.6-2.5 2.8-5.1l0.6-1.4 0.5-1.3c0.2-0.5 0.3-1 0.4-1.4 0.1-0.5 0.3-1 0.3-1.4l0.3-1.5q0.1-0.7 0.2-1.4l0.1-0.8v-0.7q0-0.7 0-1.5c0.3 2 0.4 4 0.1 6-0.4 1.9-0.9 3.9-1.8 5.7q-1.2 2.7-3 5.1c-1.2 1.6-2.5 3.1-4.1 4.4z"/>
				</g>
				<g>
					<path class="s0" d="m840.9 894.5c1.2-1.4 2.3-2.9 3.3-4.5q1.4-2.3 2.5-4.9 1.1-2.5 1.8-5.2c0.4-1.8 0.7-3.6 0.9-5.5 0.1 1.9 0.1 3.8-0.3 5.6-0.1 1-0.4 1.9-0.7 2.8-0.1 0.4-0.3 0.9-0.4 1.3l-0.3 0.7-0.2 0.6c-0.4 0.9-0.8 1.7-1.3 2.6l-0.7 1.2q-0.4 0.6-0.8 1.2c-1.1 1.5-2.4 2.9-3.8 4.1z"/>
				</g>
				<g>
					<path class="s0" d="m844.7 897c0.9-0.7 1.6-1.5 2.3-2.4q1-1.2 1.9-2.6c0.2-0.5 0.5-1 0.7-1.5l0.4-0.7q0.2-0.4 0.3-0.8 0.2-0.3 0.4-0.7l0.3-0.8c0.2-0.5 0.3-1 0.5-1.6q0 0.9-0.2 1.7c-0.1 0.6-0.2 1.1-0.4 1.7-0.3 1.1-0.8 2.1-1.3 3.1q-0.9 1.4-2.1 2.7c-0.8 0.8-1.7 1.5-2.8 1.9z"/>
				</g>
				<g>
					<path class="s0" d="m761 852.3c-0.7 1.2-1.1 2.5-1.4 3.7q-0.5 2-0.5 3.9v1c0 0.4 0 0.7 0.1 1 0 0.7 0.1 1.3 0.1 2 0.1 0.7 0.3 1.3 0.4 2q0.2 1 0.4 2-0.5-1-0.8-1.9c-0.2-0.7-0.4-1.3-0.6-2-0.3-1.3-0.4-2.7-0.4-4.1 0-1.3 0.2-2.7 0.7-4 0.4-1.3 1.1-2.6 2-3.6z"/>
				</g>
				<g>
					<path class="s0" d="m765 912.2q0.9 3.1 2 6.2 1 3.1 2.1 6.1c0.8 2 1.6 4 2.4 5.9q1.3 3 2.8 5.9c1.9 3.8 4.1 7.5 6.9 10.8 1.3 1.6 2.9 3.1 4.6 4.3 1.7 1.3 3.7 2.2 5.8 2.6-2.1-0.2-4.2-1.1-6-2.2-1.8-1.2-3.4-2.7-4.9-4.3-1.5-1.7-2.7-3.4-3.9-5.2q-1.7-2.8-3.2-5.7-2.9-5.8-5-11.9-1.1-3.1-2-6.2c-0.6-2.1-1.2-4.1-1.6-6.3z"/>
				</g>
				<g>
					<path class="s0" d="m765.8 879.8c0.3-2-0.1-3.9-0.8-5.7-0.4-0.9-0.9-1.8-1.5-2.6q-0.9-1.1-2.1-2-1.3-0.9-2.6-1.5-1.3-0.6-2.7-1c-1.9-0.5-3.9-0.8-5.9-1.1v-0.1c2-0.2 4.1-0.1 6.1 0.4 2 0.5 3.9 1.5 5.3 3 0.8 0.7 1.4 1.4 2.1 2.1 0.7 0.8 1.4 1.6 1.9 2.5 0.9 1.8 1.2 4.1 0.3 6z"/>
				</g>
				<g>
					<path class="s0" d="m771.3 951.1q-3.1-8.7-5.2-17.7c-0.7-3-1.3-6-1.9-9-0.6-3-1.2-6-1.8-9.1q-0.9-4.5-1.4-9.1c-0.4-3-0.6-6.1-0.6-9.2 0-3.1 0.3-6.2 1-9.2q0.5-2.3 1.6-4.4c0.7-1.4 1.6-2.7 2.8-3.6h0.1c-1.1 1.1-2 2.4-2.6 3.8-0.6 1.3-1 2.8-1.3 4.3-0.6 3-0.7 6-0.7 9.1 0 6.1 0.7 12.2 1.5 18.3q0.7 4.5 1.7 9c0.6 3 1.4 6 2.3 8.9l4.6 17.8z"/>
				</g>
				<g>
					<path class="s0" d="m763.7 880c-0.7 0.6-1.2 1.4-1.6 2.1q-0.6 1.2-1.1 2.4-0.9 2.5-1.4 5.1c-0.6 3.5-0.8 7-0.9 10.6q0 5.3 0.4 10.6c0.2 3.5 0.6 7.1 1.1 10.6 1 7 2.5 14 4.3 20.8l1.5 5.1 0.7 2.6 0.8 2.5c1 3.5 1.9 6.9 2.6 10.4h-0.1c-2.2-6.7-4.6-13.4-6-20.4-1.6-7-3-14-4.1-21-1.2-7-2-14.1-1.9-21.2 0.1-3.6 0.4-7.2 1.1-10.7 0.4-1.7 0.9-3.5 1.6-5.1q0.5-1.2 1.2-2.4c0.5-0.8 1-1.5 1.7-2.1z"/>
				</g>
				<g>
					<path class="s0" d="m758.4 899.7c0.4 4.8 0.8 9.5 1.4 14.2 0.1 1.2 0.2 2.4 0.4 3.6l0.3 1.8 0.3 1.7c0.5 2.4 1.1 4.7 1.7 7 1.3 4.6 2.5 9.2 3.7 13.9 1 4.6 1.9 9.3 2.6 14.1-1.2-4.7-2.3-9.3-3.5-13.9l-1.6-7q-0.9-3.5-1.6-7l-1.5-7c-0.6-2.4-1.1-4.7-1.5-7.1-0.7-4.7-0.9-9.5-0.8-14.3z"/>
				</g>
				<g>
					<path class="s0" d="m761.7 981.3q0.4 2.5 0.8 4.9 0.4 2.4 0.8 4.9c0.6 3.2 1.2 6.4 1.9 9.6 0.6 3.2 1.4 6.4 2.3 9.6q0.3 1.2 0.7 2.3c0.2 0.8 0.4 1.6 0.7 2.4 0.3 0.7 0.6 1.5 0.9 2.3q0.4 1.1 0.9 2.3-0.6-1.1-1.1-2.2c-0.4-0.8-0.7-1.5-1-2.3-0.4-0.7-0.6-1.5-0.9-2.3q-0.5-1.2-0.8-2.3c-1.1-3.2-1.8-6.4-2.5-9.6q-1-4.8-1.7-9.7-0.3-2.5-0.6-4.9c-0.1-1.7-0.3-3.3-0.4-5z"/>
				</g>
				<g>
					<path class="s0" d="m744.1 931.7c1.7 7.4 3.1 14.9 4.4 22.5q0.4 2.8 0.8 5.6 0.4 2.9 0.7 5.7 0.7 5.7 1.4 11.4l0.3 2.8 0.3 2.9 0.3 2.9q0.1 1.4 0.3 2.8 0.3 2.8 0.6 5.7l0.4 2.8 0.5 2.8 0.5 2.8 0.5 2.8 0.6 2.8c0.3 0.9 0.5 1.9 0.7 2.8q0.8 2.8 1.7 5.4c0.7 1.8 1.4 3.6 2.4 5.2-1.1-1.5-2-3.2-2.8-5-0.7-1.8-1.4-3.6-1.9-5.4q-0.8-2.8-1.5-5.6l-0.5-2.8-0.5-2.8c-0.7-3.8-1.1-7.6-1.4-11.4-0.3-3.9-0.4-7.7-0.8-11.5-0.2-1.9-0.4-3.8-0.6-5.7-0.3-1.9-0.5-3.7-0.8-5.6-0.6-3.8-1.3-7.6-1.9-11.3-1.3-7.6-2.6-15.1-3.8-22.6z"/>
				</g>
				<g>
					<path class="s0" d="m758.5 867.4c-2.8 0.4-5.4 1.7-7.6 3.4-1.1 0.8-2.2 1.8-3 2.9-0.5 0.5-0.9 1.1-1.3 1.6-0.4 0.6-0.8 1.2-1.1 1.8-1.4 2.4-2.4 5-3.1 7.7-0.7 2.7-1.1 5.5-1.4 8.3-0.4 5.6-0.2 11.2 0.4 16.8q0.1 1 0.3 2.1l0.3 2.1 0.2 2.1 0.4 2.1c0.2 1.3 0.4 2.7 0.7 4.1l0.8 4.2c-0.7-2.8-1.3-5.5-1.9-8.3q-0.2-1-0.4-2.1l-0.3-2-0.4-2.1q-0.1-1.1-0.3-2.1c-0.7-5.6-1-11.3-0.6-17 0.3-2.8 0.7-5.6 1.5-8.4 0.7-2.7 1.8-5.4 3.2-7.8 0.4-0.6 0.8-1.2 1.2-1.8 0.5-0.6 0.9-1.1 1.4-1.7 0.9-1 2-2 3.1-2.8q1.8-1.3 3.8-2.1c1.3-0.5 2.7-0.9 4.1-1z"/>
				</g>
				<g>
					<path class="s0" d="m727.5 919.4c1.9 8.9 3.6 17.8 5 26.8 0.7 4.5 1.3 9 2 13.5l1.9 13.6c1.4 9 2.3 18 3.9 27q0.5 3.3 1.2 6.7 0.7 3.3 1.6 6.6c0.6 2.2 1.2 4.4 2.1 6.4 0.9 2.1 2 4.1 3.5 5.8l-0.1 0.1c-1.6-1.6-2.8-3.6-3.8-5.7-1-2.1-1.7-4.2-2.4-6.4q-0.9-3.3-1.7-6.7-0.7-3.3-1.3-6.7c-0.8-4.5-1.3-9-1.8-13.5-0.5-4.6-1-9.1-1.5-13.6q-0.9-6.8-2-13.5c-0.7-4.5-1.5-9-2.3-13.5-1.5-8.9-3-17.9-4.4-26.9z"/>
				</g>
				<g>
					<path class="s0" d="m727.2 892.6c-0.6 1.8-0.9 3.7-1.2 5.6-0.2 0.9-0.3 1.8-0.4 2.8l-0.3 2.8c-0.4 3.8-0.5 7.6-0.5 11.5v2.8 2.9c0.1 1.9 0.2 3.8 0.3 5.7 0.1 1.9 0.4 3.8 0.6 5.7 0.1 1 0.3 1.9 0.4 2.9l0.5 2.8c0.6 3.8 1.3 7.5 1.9 11.3l0.8 5.7q0.4 2.8 0.8 5.7 0.7 5.7 1.2 11.4c0.4 3.8 0.6 7.6 0.7 11.5h-0.1c-0.7-7.6-1.7-15.2-2.7-22.8l-3-22.8-0.7-5.7-0.3-2.8c-0.1-1-0.3-1.9-0.3-2.9-0.2-1.9-0.4-3.8-0.5-5.7q-0.1-1.4-0.2-2.9l-0.1-2.8q-0.1-5.8 0.5-11.5 0.4-2.9 0.9-5.7c0.4-1.9 0.9-3.8 1.6-5.6z"/>
				</g>
			</g>
			<g>
				<g>
					<path class="s6" d="m627.5 1345.3c0 0-7.8 19.4-21.2 25.4 0 0 0.9 2.1 0.3 6.3 0 0 4 4.7 6 5.5 0 0 3.4-4.1 2.2-8.4-0.6-2.2-2.1-7.6 2.3-8.9 1-0.2 2 0.4 2.1 1.4 0.3 1.7 0.8 4.2 1.6 6q0.3 0.7 0.5 1.5l1.1 4.3c0.5 2.1-0.2 4.3-1.7 5.8-2.3 2-5.5 5.2-7.1 7.9-0.7 1-2 1.5-3.1 1 0 0-1.9 1.4-3.1 3.4-0.7 1.3-2.4 1.6-3.6 0.8l-3.5-2.5-1.5 5.8c-0.2 0.7-0.7 1.4-1.4 1.7l-0.8 0.3 6 4.7c0 0 3.7 0.3 5 4.2 0.5 1.6-1.1 3.1-2.7 2.5-1.7-0.7-3.9-1.4-6-1.7-1-0.2-2.1-0.7-2.9-1.4-1.8-1.7-5.4-4.9-7.9-6.6q-0.9-0.6-1.6-1.5l-4.5-6.5c-0.6-1-1-2.2-0.9-3.3 0.2-4.1 0.7-14.1 0.2-20.8-0.1-2 0.4-3.9 1.7-5.4 3.4-4.5 10.4-14.2 14.5-21.3 5.1-8.8 8.6-11.1 8.6-11.1 8.8 10.3 21.4 10.9 21.4 10.9z"/>
				</g>
				<g>
					<path class="s9" d="m597 1380.7c1.4 0.7 2.6 1.6 3.7 2.7 1.2 1 2.2 2.2 3.2 3.4 1 1.2 1.9 2.4 3 3.5 1 1.1 2.2 2.2 3.6 2.8-1.5-0.5-2.8-1.5-3.9-2.5-1.1-1.1-2.1-2.3-3.1-3.5-1.9-2.4-3.9-4.7-6.5-6.4z"/>
				</g>
				<g>
					<path class="s9" d="m589.9 1385.3q1.4 1.1 2.7 2.3l2.6 2.4c1.7 1.6 3.4 3.1 5.1 4.8q-1.4-1-2.8-2.2-1.3-1.1-2.6-2.3c-1.7-1.6-3.4-3.2-5-5z"/>
				</g>
				<g>
					<path class="s9" d="m586.7 1390.3q0.9 1.8 1.8 3.7c0.7 1.2 1.3 2.5 2.1 3.6 0.7 1.2 1.5 2.4 2.4 3.4 0.5 0.5 1 1 1.6 1.3 0.6 0.3 1.3 0.5 2 0.3-0.7 0.3-1.5 0.2-2.1-0.1-0.7-0.3-1.2-0.8-1.7-1.3-1-1-1.8-2.1-2.6-3.3q-1.1-1.8-2-3.7-0.9-2-1.5-3.9z"/>
				</g>
				<g>
					<path class="s9" d="m597 1372.1c0 0.7-0.1 1.3-0.2 2-0.1 0.6-0.3 1.3-0.4 1.9q-0.3 1-0.5 1.9c-0.1 0.6-0.2 1.3 0 1.9-0.4-0.6-0.4-1.3-0.4-1.9 0.1-0.7 0.2-1.4 0.4-2 0.3-1.3 0.8-2.5 1.1-3.8z"/>
				</g>
				<g>
					<path class="s9" d="m588.4 1377.9c0.3 0.5 0.3 1.1 0.3 1.7-0.1 0.5-0.2 1.1-0.2 1.6-0.1 0.6-0.2 1.1-0.1 1.6 0 0.5 0.2 1 0.6 1.5-0.5-0.3-0.9-0.8-1-1.4-0.1-0.6-0.1-1.2 0-1.7 0.2-1.2 0.5-2.2 0.4-3.3z"/>
				</g>
			</g>
			<g>
				<g>
					<path class="s6" d="m1010.7 723.7l-2.5-36.5c0 0-2.2-19.3-3.5-25.7-0.6-2.6-2-7-7.6-7.5l-0.4-3c-0.3-2.2-2-4-4.2-4.2-1.9-0.3-4.1-0.2-5.8 0.9 0-3-2.6-5.3-5.5-4.9-2.4 0.4-5.3 1.2-8.4 3.3 0 0-4.6-14.5-11.6-12.1-7 2.5-5.9 12.5-5.9 12.5 0 0 0.6-0.1 1.6 0.1 4 0.6 6.9 4.1 6.9 8.2v12.2c0 1.8-1.5 3.2-3.2 3.2-1.7 0-3.1-1.3-3.2-3l-0.1-3.7c0 0 4.4-3.7 2-8.8-0.7-1.6-3-1.9-4-0.4-1.3 1.9-3.4 4.3-7 6.7-2.4 1.5-3.8 4.1-3.8 6.8 0 1.9 0.7 3.8 1.9 5.2 2 2.4 5.1 6.4 7.3 10.8 0.9 1.6 2.2 2.8 3.8 3.6 4.4 2 13.2 6.7 18.4 14.2 1.2 1.8 1.9 3.8 2.2 5.9l1.5 13.7c18.2-6.6 31.1 2.5 31.1 2.5z"/>
				</g>
				<g>
					<path fill-rule="evenodd" class="s0" d="m958.4 659.7c-4.2 0-7.6-3.4-7.6-7.6 0-4.2 3.4-7.6 7.6-7.6 4.2 0 7.6 3.4 7.6 7.6 0 4.2-3.4 7.6-7.6 7.6z"/>
				</g>
				<g>
					<path class="s9" d="m972.8 646.1c0.8 1.7 1.5 3.5 2.3 5.2l1 2.6q0.6 1.3 1.1 2.7c-1-1.7-1.8-3.4-2.6-5.1q-0.5-1.3-1-2.7-0.5-1.3-0.8-2.7z"/>
				</g>
				<g>
					<path class="s9" d="m958.4 669.3c0.5 0.5 1.2 0.7 1.9 0.8q1 0.2 2 0.2c1.4 0 2.7-0.2 4.1-0.4q-0.5 0.2-1 0.3-0.5 0.2-1 0.3-1 0.2-2.1 0.3c-0.7 0-1.4-0.1-2.1-0.3-0.7-0.2-1.4-0.5-1.8-1.2z"/>
				</g>
				<g>
					<path class="s9" d="m986.7 647.7q0.2 1.6 0.5 3.1c0.2 1.1 0.4 2.1 0.6 3.2q-0.4-0.7-0.6-1.5-0.3-0.8-0.4-1.6-0.2-0.8-0.2-1.6c-0.1-0.5-0.1-1.1 0.1-1.6z"/>
				</g>
				<g>
					<path class="s9" d="m997.1 654c0.3 0.8 0.5 1.6 0.6 2.4 0.2 0.9 0.3 1.7 0.2 2.6-0.3-0.8-0.5-1.6-0.6-2.5-0.2-0.8-0.3-1.7-0.2-2.5z"/>
				</g>
			</g>
		</g>
	</g>
	<g id="FRONT">
		<g>
			<g>
				<path fill-rule="evenodd" class="s7" d="m259.8 1921.6h1781.7v3h-1781.7z"/>
			</g>
		</g>
	</g>
</svg>