<svg version="1.2" xmlns="http://www.w3.org/2000/svg" viewBox="0 0 5000 4034" width="5000" height="4034">
	<title>task-form-image</title>
	<style>
		.s0 { fill: #eeecf0 } 
		.s1 { fill: #ffffff } 
		.s2 { fill: #748ce6 } 
		.s3 { fill: #f992c7 } 
		.s4 { fill: #ffd857 } 
		.s5 { fill: #0acf83 } 
		.s6 { fill: #fcfafc } 
		.s7 { fill: #797885 } 
		.s8 { fill: #eaf0f4 } 
		.s9 { fill: #2f2e40 } 
		.s10 { fill: #fcad88 } 
		.s11 { fill: #2f304c } 
	</style>
	<g id="Checklist">
		<g>
			<g>
				<g>
					<g>
						<path class="s0" d="m3063.3 1228.9v2308.4c0 84.6-68.6 153.3-153.3 153.3h-1723.8c-84.6 0-153.3-68.7-153.3-153.3v-2308.4c0-84.7 68.7-153.3 153.3-153.3h1723.8c84.7 0 153.3 68.6 153.3 153.3z"/>
						<path class="s1" d="m2886.1 1318.6v2068.7c0 70.1-54.8 129.7-124.5 131.9-1 0.1-1.9 0.1-2.9 0.1-72 0.7-130-57.6-130-128.6h-4.1v-27.1h-1438.5v-2045c0-39.6 32.2-71.7 71.8-71.7h1556.5c39.6 0 71.7 32.1 71.7 71.7z"/>
					</g>
					<path class="s2" d="m2597.9 1385.5h-1123.5c0-46.5 18.8-88.8 49.3-119.2 30.7-30.5 72.7-49.4 119.2-49.4h45.1c18.9 0 34.3-15.3 34.3-34.2v-103.9c0-25.9 20.9-46.8 46.7-46.8h91.3c25.9 0 46.8-21 46.8-46.8v-46.5c0-71 56-131.3 127-132.5 72.1-1.1 131.1 56.9 131.1 128.9v50.1c0 25.8 20.9 46.8 46.8 46.8h91.3c25.8 0 46.7 20.9 46.7 46.8v103.9c0 18.9 15.4 34.2 34.3 34.2h45.1c93 0 168.5 75.6 168.5 168.6z"/>
					<path class="s1" d="m2104.6 926.6c0 37.7-30.6 68.3-68.4 68.3-37.9 0-68.5-30.6-68.5-68.3 0-38 30.6-68.5 68.5-68.5 37.8 0 68.4 30.5 68.4 68.5z"/>
				</g>
				<path class="s1" d="m2757.4 3519.4h-1625.4c-71 0-128.7-57.7-128.7-128.7v-31.3h1625.5v31.3c0 71.7 58.3 128.7 128.6 128.7z"/>
				<g>
					<path class="s3" d="m1691.2 1804.4c0 108.5-87.9 196.4-196.4 196.4-108.5 0-196.5-87.9-196.5-196.4 0-108.5 88-196.5 196.5-196.5 108.5 0 196.4 88 196.4 196.5z"/>
					<path class="s1" d="m1584.7 1761.1l-115.3 115.8c-8.1 8.1-21.2 8.1-29.3 0l-35.2-35c-8.1-8.1-8.1-21.2 0-29.3 8-8.1 21.1-8.1 29.2 0l20.5 20.4 100.7-101.2c8.1-8.1 21.2-8.1 29.3 0 8.1 8 8.2 21.1 0.1 29.3z"/>
					<g>
						<path fill-rule="evenodd" class="s1" d="m2323.4 1660.3h450.6"/>
						<path fill-rule="evenodd" class="s1" d="m1781.1 1660.3h402.6"/>
						<path fill-rule="evenodd" class="s1" d="m2644.6 1804.3h129.4"/>
						<path fill-rule="evenodd" class="s1" d="m2195.8 1804.3h361.5"/>
						<path fill-rule="evenodd" class="s1" d="m1781.1 1804.3h283"/>
						<path fill-rule="evenodd" class="s1" d="m1781.1 1948.3h739.9"/>
					</g>
				</g>
				<g>
					<path class="s4" d="m1691.2 2408.1c0 108.5-87.9 196.4-196.4 196.4-108.5 0-196.5-87.9-196.5-196.4 0-108.5 88-196.5 196.5-196.5 108.5 0 196.4 88 196.4 196.5z"/>
					<path class="s1" d="m1584.7 2364.8l-115.3 115.8c-8.1 8.1-21.2 8.1-29.3 0l-35.2-35c-8.1-8.1-8.1-21.2 0-29.3 8-8.1 21.1-8.1 29.2 0l20.5 20.4 100.7-101.2c8.1-8.1 21.2-8.1 29.3 0 8.1 8 8.2 21.2 0.1 29.3z"/>
					<g>
						<path fill-rule="evenodd" class="s1" d="m2323.4 2264.1h450.6"/>
						<path fill-rule="evenodd" class="s1" d="m1781.1 2264.1h402.6"/>
						<path fill-rule="evenodd" class="s1" d="m2644.6 2408h129.4"/>
						<path fill-rule="evenodd" class="s1" d="m2195.8 2408h361.5"/>
						<path fill-rule="evenodd" class="s1" d="m1781.1 2408h283"/>
						<path fill-rule="evenodd" class="s1" d="m1781.1 2552h739.9"/>
					</g>
				</g>
				<g>
					<path class="s1" d="m1691.2 3011.8c0 108.5-87.9 196.4-196.4 196.4-108.5 0-196.5-87.9-196.5-196.4 0-108.5 88-196.5 196.5-196.5 108.5 0 196.4 88 196.4 196.5z"/>
					<g>
						<path fill-rule="evenodd" class="s1" d="m2323.4 2867.8h450.6"/>
						<path fill-rule="evenodd" class="s1" d="m1781.1 2867.8h402.6"/>
						<path fill-rule="evenodd" class="s1" d="m2644.6 3011.8h129.4"/>
						<path fill-rule="evenodd" class="s1" d="m2195.8 3011.8h361.5"/>
						<path fill-rule="evenodd" class="s1" d="m1781.1 3011.8h283"/>
						<path fill-rule="evenodd" class="s1" d="m1781.1 3155.7h739.9"/>
					</g>
				</g>
			</g>
			<g>
				<g>
					<path class="s1" d="m473.6 3496.1c-6.6 76.7 102.7 122 102.7 122l21.8-143.9-46 1c0 0-81.5-144-158.5-177.8 0 0 84.8 144 80 198.7z"/>
					<g>
						<path class="s5" d="m696.3 3496.1c6.7 76.7-102.6 122-102.6 122l-21.9-143.9 46.1 1c0 0 81.5-144 158.5-177.8 0 0-84.8 144-80.1 198.7z"/>
					</g>
					<path class="s0" d="m634.4 3664.5l31.2-123.2c0 0-23.4-52.7-42.4-85.9-18.5-33.1-2.7-102.1-2.7-102.1-102.7 34.7-122.3 177.1-122.3 177.1l-6.5 85.3c0 0 13.3 23.7 26.2 48.8z"/>
					<path class="s1" d="m692.1 3664.5c15.6-34 20.3-74.9 22.3-101 4.2-53.4 66.5-123 66.5-123-151.8 22.5-213.2 223.4-213.2 223.4v0.6z"/>
					<g>
						<path class="s5" d="m443 3664.5h124.4v-0.6c0 0-61.5-200.9-213.2-223.4 0 0 62.3 69.6 66.5 123 2 26.1 6.7 67 22.3 101z"/>
					</g>
					<path class="s0" d="m759.9 3686.6l-38 275.4h-297.3l-48.7-274.7c-2-11.5 6.8-22 18.4-22h347.1c11.3 0 20 10 18.5 21.3z"/>
					<path class="s1" d="m668.8 3746.8l-19.9 144.8h-156.4l-25.6-144.4c-1.1-6 3.6-11.6 9.7-11.6h182.5c6 0 10.5 5.3 9.7 11.2z"/>
				</g>
				<path class="s6" d="m729.4 3962v38.9c0 14.7-11.8 26.6-26.5 26.6h-270.3c-14.5 0-26.4-11.9-26.4-26.6v-38.9z"/>
			</g>
			<g>
				<g>
					<path class="s0" d="m841.6 2712.9l-128.3 249.6c-8.7 16.9-29.3 23.4-46.2 14.9l-85.4-44-78.2 50.8c-9.1 5.9-21.2-0.3-21.7-11.1l-4.2-93.2-85.5-43.9c-16.8-8.6-23.4-29.3-14.8-46.2l128.3-249.5c8.6-16.9 29.3-23.5 46.2-14.9l274.9 141.4c16.9 8.6 23.4 29.3 14.9 46.1z"/>
				</g>
				<path class="s1" d="m896.9 2707.3l-128.2 249.5c-8.7 16.9-29.3 23.5-46.2 14.8l-85.4-43.9-78.2 50.8c-9.1 5.9-21.2-0.3-21.7-11.1l-4.2-93.2-85.5-43.9c-16.8-8.6-23.4-29.3-14.8-46.1l128.3-249.6c8.6-16.8 29.3-23.5 46.1-14.8l275 141.3c16.8 8.7 23.5 29.3 14.8 46.2z"/>
				<path class="s0" d="m732.6 2799.8l-103.5 33.2c-6.1 2-12.5-1.4-14.5-7.4l-33.2-103.5c-10.1-31.6 7.3-65.5 38.8-75.6 31.6-10.1 65.5 7.2 75.7 38.9 31.2-10 65.2 6.9 75.6 38.8 10 31.6-7.3 65.5-38.9 75.6z"/>
			</g>
			<g>
				<path class="s1" d="m1265.3 3937.9l-41-6.5c-1.8-0.2-3.5 0.5-4.6 2l-24.4 33.7 6.4-41.1c0.4-1.7-0.4-3.4-1.7-4.5l-33.7-24.4 41 6.4c1.9 0.2 3.6-0.4 4.5-1.9l24.5-33.7-6.5 41c-0.4 1.9 0.3 3.6 1.8 4.7z"/>
				<path class="s7" d="m1195.3 3970.1q-0.6 0-1.1-0.2c-1.3-0.6-2-1.9-1.8-3.2l6.4-41.2c0.2-0.8-0.3-1.4-0.7-1.8l-33.5-24.2c-1.1-0.8-1.5-2.2-1-3.5 0.5-1.2 1.8-2 3.1-1.8l41.1 6.4c0.4 0 1.2 0 1.5-0.5l24.7-33.9c0.7-1.1 2.2-1.5 3.5-1 1.2 0.5 1.9 1.8 1.7 3.2l-6.5 41c-0.1 0.3-0.3 1.1 0.7 1.8l33.7 24.3c1.1 0.9 1.5 2.3 1 3.6-0.6 1.2-1.9 1.9-3.2 1.7l-41-6.5c-0.7-0.1-1.4 0.2-1.9 0.9l-24.3 33.7c-0.6 0.7-1.5 1.2-2.4 1.2zm-17.4-68.2l23.8 17.2c2.4 2 3.4 4.8 2.8 7.5l-4.4 28.9 17.2-23.8c1.8-2.4 4.4-3.5 7.3-3.2l29 4.6-23.7-17.1c-2.5-1.9-3.6-4.7-3-7.7l4.6-28.8-17.3 23.8c-1.4 2.2-4 3.4-7.2 3.1z"/>
			</g>
			<g>
				<path class="s1" d="m2832 824.2l-36.1-5.8c-1.6-0.1-3.1 0.5-4.1 1.8l-21.4 29.7 5.6-36.3c0.3-1.4-0.4-2.9-1.5-3.9l-29.7-21.5 36.1 5.7c1.7 0.1 3.1-0.4 4-1.7l21.6-29.7-5.8 36.1c-0.3 1.7 0.3 3.2 1.6 4.2z"/>
				<path class="s7" d="m2767.5 849.5l5.6-36.3c0.1-0.6-0.2-1-0.5-1.3l-29.5-21.3c-2.5-1.8-0.8-5.8 2.1-5.2l36.2 5.6c0.1 0 0.8 0 1-0.4l21.7-29.8c1.8-2.5 5.7-0.9 5.3 2.2l-5.8 36.1c-0.1 0.3-0.2 0.8 0.5 1.3l29.6 21.4c2.5 1.8 1 5.7-2.1 5.3l-36.2-5.8c-0.4 0-0.9 0.2-1.3 0.7l-21.4 29.6c-1.8 2.5-5.7 0.9-5.2-2.1zm-11.1-56.5l19.8 14.3c2.2 1.9 3.2 4.5 2.6 7l-3.7 24 14.3-19.8c1.7-2.2 4.1-3.3 6.8-3l24.1 3.9-19.7-14.3c-2.3-1.7-3.3-4.3-2.8-7l3.8-24-14.4 19.8c-1.2 2.1-3.7 3.2-6.6 2.9z"/>
			</g>
			<g>
				<path class="s1" d="m619.7 1518.8l-38.6-6.1c-1.8-0.3-3.4 0.5-4.5 1.9l-22.9 31.7 6-38.8c0.3-1.6-0.3-3.1-1.6-4.2l-31.8-23 38.7 6c1.7 0.2 3.3-0.3 4.3-1.7l23.1-31.8-6.2 38.6c-0.3 1.8 0.3 3.4 1.7 4.5z"/>
				<path class="s7" d="m553.7 1549.3q-0.6 0-1.2-0.2c-1.2-0.6-1.9-1.9-1.7-3.2l6-38.8c0.1-0.6-0.1-1.2-0.6-1.6l-31.6-22.8c-1.1-0.8-1.5-2.3-1-3.5 0.5-1.3 1.8-2 3.2-1.8l38.6 6c0.6 0.1 1.2-0.1 1.4-0.4l23.2-31.9c0.8-1.1 2.3-1.5 3.5-1 1.3 0.5 2 1.8 1.8 3.2l-6.2 38.6c-0.1 0.5-0.1 1.1 0.6 1.7l31.7 22.8c1.1 0.8 1.5 2.2 1 3.5-0.5 1.2-1.8 2-3.1 1.8l-38.7-6.2q-0.9-0.1-1.6 0.9l-23 31.7c-0.5 0.7-1.4 1.2-2.3 1.2zm-15.7-64.2l21.8 15.8c2.4 2 3.3 4.7 2.8 7.2l-4.2 26.6 15.9-21.8c1.8-2.4 4.4-3.6 7.2-3.2l26.5 4.2-21.8-15.6c-2.4-1.9-3.4-4.6-2.9-7.4l4.3-26.5-16 21.9c-1.3 2.1-3.9 3.2-6.9 3z"/>
			</g>
			<g>
				<path class="s8" d="m862.2 2057.4c0 14-11.3 25.5-25.4 25.5-14.1 0-25.5-11.5-25.5-25.5 0-14 11.4-25.4 25.5-25.4 14.1 0 25.4 11.4 25.4 25.4z"/>
			</g>
			<g>
				<path class="s1" d="m3361.7 1344.9c0 12.9-10.5 23.6-23.5 23.6-13.1 0-23.6-10.7-23.6-23.6 0-13 10.5-23.5 23.6-23.5 13 0 23.5 10.5 23.5 23.5z"/>
				<path class="s7" d="m3338.2 1372.7c-15.4 0-27.8-12.5-27.8-27.8 0-15.3 12.4-27.7 27.8-27.7 15.2 0 27.7 12.4 27.7 27.7 0 15.3-12.5 27.8-27.7 27.8zm0-47.1c-10.7 0-19.4 8.7-19.4 19.3 0 10.7 8.7 19.4 19.4 19.4 10.6 0 19.3-8.7 19.3-19.4 0-10.6-8.7-19.3-19.3-19.3z"/>
			</g>
			<g>
				<g>
					<g>
						<path class="s7" d="m4532.3 2878.4h-59.6c-2.3 0-4.2-1.9-4.2-4.2 0-2.3 1.9-4.2 4.2-4.2h59.6c2.3 0 4.2 1.9 4.2 4.2 0 2.3-1.9 4.2-4.2 4.2z"/>
					</g>
					<g>
						<path class="s7" d="m4502.5 2908.2c-2.3 0-4.2-1.9-4.2-4.2v-59.6c0-2.4 1.9-4.2 4.2-4.2 2.3 0 4.2 1.8 4.2 4.2v59.6c0 2.3-1.9 4.2-4.2 4.2z"/>
					</g>
				</g>
			</g>
			<g>
				<g>
					<g>
						<path class="s7" d="m4555.7 1377.7c-1.1 0-2.1-0.4-3-1.3-1.6-1.6-1.6-4.2 0-5.9l61.6-61.6c1.7-1.6 4.3-1.6 6 0 1.6 1.7 1.6 4.3 0 6l-61.6 61.5c-0.8 0.9-1.9 1.3-3 1.3z"/>
					</g>
					<g>
						<path class="s7" d="m4617.3 1377.7c-1.1 0-2.2-0.4-3-1.3l-61.6-61.5c-1.6-1.7-1.6-4.3 0-6 1.7-1.6 4.3-1.6 6 0l61.6 61.6c1.6 1.7 1.6 4.3 0 5.9-0.9 0.9-1.9 1.3-3 1.3z"/>
					</g>
				</g>
			</g>
			<g>
				<g>
					<g>
						<g>
							<g>
								<g>
									<path class="s1" d="m3874.1 3847.9v63.2h-207.1v-59.7l4.2-0.6v1.1c41.6 2.2 178.4 2.1 202.9-4z"/>
									<g>
										<path class="s1" d="m3586.3 3979.9c-6.5-14.7-16.4-24.1-30.3-28.8-3.7-1.3-1.8-6.8 1.9-5.6 15.5 5.3 26.5 15.8 33.7 32 0.7 1.5 0 3.2-1.4 3.9-1.5 0.6-3.2 0-3.9-1.5z"/>
									</g>
									<g>
										<path class="s1" d="m3621 3961.1c-6.5-14.6-16.4-24.1-30.3-28.8-3.7-1.3-1.8-6.8 1.9-5.6 15.5 5.3 26.5 15.8 33.7 32 0.7 1.5 0 3.2-1.5 3.9-1.4 0.6-3.2 0-3.8-1.5z"/>
									</g>
									<g>
										<path class="s1" d="m3654.9 3945.7c-5.3-15.7-17.2-28.7-30.4-33.2-1.5-0.5-2.3-2.2-1.8-3.7 0.6-1.5 2.2-2.3 3.8-1.8 15 5.1 28 19.2 34 36.8 0.5 1.5-0.3 3.2-1.8 3.7-1.6 0.5-3.2-0.3-3.8-1.8z"/>
									</g>
								</g>
							</g>
							<g>
								<path class="s1" d="m3783.2 4026.5c-1.5 0-2.8-1.2-2.9-2.8l-0.1-0.7c-1.2-19.4 6.2-38.1 20.9-52.8 14.5-14.6 34.5-23.4 56.2-24.7 5.7-0.3 11.3-0.1 17.2 0.6 1.6 0.2 2.7 1.7 2.5 3.3-0.2 1.6-1.7 2.8-3.3 2.5-5.5-0.7-10.7-0.9-16-0.5-20.3 1.2-38.9 9.4-52.5 22.9-13.4 13.5-20.2 30.6-19.1 48.3v0.8c0.1 1.6-1.1 3-2.7 3.1q-0.1 0-0.2 0z"/>
							</g>
						</g>
					</g>
					<g>
						<g>
							<g>
								<g>
									<path class="s1" d="m4356.8 3847.5v63.6h-200.9v-63.2c15.8 0 65.4 5.4 196.7-0.1v-0.8c0.2 0 3.1 0.3 4.2 0.5z"/>
									<g>
										<path class="s1" d="m4437.5 3977.5c7.2-16.2 18.2-26.7 33.7-32 1.6-0.5 3.2 0.3 3.8 1.8 0.5 1.6-0.3 3.2-1.9 3.8-13.8 4.7-23.7 14.1-30.2 28.8-1.6 3.5-7 1.2-5.4-2.4z"/>
									</g>
									<g>
										<path class="s1" d="m4402.8 3958.7c7.2-16.2 18.3-26.7 33.7-32 3.8-1.2 5.6 4.3 2 5.6-13.9 4.7-23.8 14.2-30.3 28.8-1.6 3.6-7 1.2-5.4-2.4z"/>
									</g>
									<g>
										<path class="s1" d="m4368.6 3943.8c6-17.6 19.1-31.7 34.1-36.8 1.5-0.5 3.2 0.3 3.7 1.8 0.5 1.5-0.3 3.2-1.8 3.7-13.2 4.5-25.1 17.5-30.4 33.2-1.3 3.6-6.8 1.8-5.6-1.9z"/>
									</g>
								</g>
							</g>
							<g>
								<path class="s1" d="m4245.9 4026.5q0 0-0.1 0c-1.7-0.1-2.9-1.5-2.8-3.1l0.1-0.8c2.2-36.7-29.9-68.7-71.6-71.2-5.3-0.4-10.6-0.2-16.1 0.5-1.5 0.2-3-0.9-3.3-2.5-0.2-1.6 1-3.1 2.6-3.3 5.8-0.7 11.4-0.9 17.1-0.6 45 2.8 79.6 37.5 77.1 77.5v0.7c-0.1 1.6-1.4 2.8-3 2.8z"/>
							</g>
						</g>
					</g>
					<g>
						<path class="s4" d="m3685.2 2478l-43.7 1374c14.5 8.3 242.4 8.3 242.4-3.8l106.6-915.1 141.8 915.1c0 8.1 241.9 8.1 241.9 0l-127.1-1366.3z"/>
						<g>
							<path class="s9" d="m4262.3 2648.4c-1.3 0.1-2.6 0.1-3.9 0.2-159.9 7.4-331.6 19.8-454.1-0.5-33.4-5.5-63-13.4-87.8-24.5 10.1 3 21.6 5.7 34.3 8.2 45.5 8.8 106.8 13.8 177.6 13.8 131.7 0 271.7-18.1 324.2-49.1 0.3-0.1 0.6-0.3 0.9-0.5 1-0.6 2-1.2 2.9-1.9l1 8.6z"/>
							<path class="s9" d="m4261.4 2600.2l-1-8.9c-1.2 1-2.5 2-4 2.8-0.9 0.7-1.9 1.3-2.9 1.9-0.3 0.2-0.6 0.4-0.9 0.5l0.8 8.5 4.3 39.4c-20.7 0.9-41.6 2-62.5 3-97.8 4.9-197.1 9.8-284.2 6.5-60.9-2.4-115.9-8.8-160.2-22.1-12.7-2.5-24.2-5.2-34.3-8.2-12.1-3.6-22.2-7.5-30.3-11.8 17.9 12 39.7 21.4 64.6 28.7 59.5 17.4 137.1 22.8 222.1 22.8 71 0 147.3-3.7 222.7-7.5 21.1-1 42.2-2.1 63.2-3.1 1.2-0.1 2.4-0.1 3.7-0.2 1.1 0 2.2-0.5 3-1.4 0.7-0.8 1.1-2 1-3.2z"/>
						</g>
						<path class="s2" d="m3863.5 1573.7c-37 2.7-73.5 12.2-106.2 30-31.6 17.2-56.5 48.3-80.3 84.2-69.1 104.1-200.6 320.5-200.6 320.5l-72.4-25.7-188.4 200.2c0 0 285.4 91.3 335.1 69.7 71.1-30.9 171.9-254.3 171.9-254.3-37.6 105.2-63.3 354.2-62.2 588.4 0 94.8 617.9 77.8 617.9-17-18.6-157.2-21.2-440.9-4.3-631.5l157.6 158.8-146.3 143.9c-22.1 15.4 67 143.3 89.1 127.9 0 0 260.3-167.9 270.8-274.5 8.3-85.3-108.4-229.4-213.6-340.4-109.1-115-259.6-183-418.1-185.3-50.4-0.7-99.4 1.4-150 5.1z"/>
					</g>
					<path class="s1" d="m4342.1 2464.7c2.8 46.6-33.7 68.5-73.3 45.7-43.9-25.1-9.9-171.5-9.9-171.5 0 0-32 68.6-70 27.9-37.9-40.7 99.8-118.4 99.8-118.4l53.6 94.4c0 0-2.8 75.3-0.2 121.9z"/>
					<path class="s2" d="m4334.1 1998.7l97.5 98.3-146.3 143.9c-22.1 15.4 67 143.3 89.1 127.9 0 0 260.3-167.9 270.8-274.5 2.6-27-7.3-59.8-25.3-95.6"/>
				</g>
				<path fill-rule="evenodd" class="s4" d="m3990.5 2933.1l-30.5-169.3"/>
				<path fill-rule="evenodd" class="s2" d="m4274 1938.2l-49.8-54.1"/>
			</g>
			<g>
				<g>
					<g>
						<path class="s1" d="m3858.7 1506.1c15.2-15.9-229.8 241.8-1002.1 1054.4-20.9 21.9-55.7 22.8-77.6 1.9l-91.8-87.4c-21.9-20.9-22.8-55.7-1.9-77.6 77.9-82 188.8-198.7 301.8-317.6 0.3 0.2 4.7 1 5.1 1 35.4 4.6 75.6-26.1 98.9-54 44-52.5 37-94.7 37.2-95.6 735.8-773.9 626.7-659.2 640.7-674 0 0 0 0 0 0l8.8-9.2c-0.2 2.3-0.2 4.4-0.3 6.5-2 59.2 4.9 139 30.6 190.5 0 0.1 0 0.1 0 0.1 10 22.8 27.5 46.1 50.6 61z"/>
						<path class="s1" d="m4173.4 1169.1c1.2 0.6 2.5 1.4 3.7 2.1l-5.9 6.3c-0.8 0.8-53.4 56-50.1 52.5-15.4-21.6-34.9-45.6-53.5-64.2 63.9-67.2 60.8-64 60.7-63.8 2.4 24.9 18 51.3 45.1 67.1z"/>
						<path class="s1" d="m3929.8 1094.1l-8.8 9.3c-2.3 0.3-4.6 0.7-6.9 1.1l9.3-9.8c4-4.1-37 39 258.6-272.1l4.8 4.6-3.1-0.2c-375.7 395.3-210.4 221.3-253.9 267.1z"/>
						<path class="s1" d="m4243.8 881.5l-3-0.2-1.5 1.6v0.1l-221.3 232.8h-0.1l-5.9 6.2c-1.5-0.9 0.1 0.1-7.7-4.1 286.2-301.2 218.2-229.6 228.8-240.8h0.1l1.5-1.6-0.3-3c0.8 0.8 8.5 8.1 7.7 7.3v0.1z"/>
						<path class="s1" d="m4300.9 935.9l-3-0.2-1.5 1.6h-0.1c-0.8 0.9-48.2 50.8-45.2 47.7-1.5-0.1-2.9-0.3-5.5-0.3-0.1 0-0.1 0-0.1 0-1.2-0.1-4.5 0-5.7 0 0.8-0.8 53.9-56.7 50.5-53.2l1.5-1.6-0.3-3.1c0.8 0.8 10.3 9.9 9.4 9.1z"/>
						<path class="s1" d="m4353.3 985.8c-0.8 0.8-33 34.8-32.2 34-1-1.1-1.9-2.1-2.9-3.2 0.8-0.8 31.1-32.7 29.2-30.7l1.5-1.6-0.3-3.1z"/>
					</g>
					<path class="s3" d="m2769.7 2308.8l-84.4 88.6c-20.9 21.9-20.1 56.7 1.9 77.6l91.8 87.4c21.9 20.9 56.7 20 77.6-1.9l84.3-88.6z"/>
					<path class="s4" d="m4490.3 670.5c-55.3 127.3 101-232.4-137 315.3l-4.7-4.6c-0.1-0.8-5.1-45.4-4.8-42.6-0.9 0-45.7-2.9-42.9-2.7-0.8-0.8-10.3-9.9-9.4-9.1-0.1-0.8-5.1-45.4-4.8-42.6-4.1-0.2-45.6-2.9-42.9-2.7l-1.7-1.6v-0.1c-0.8-0.8-8.6-8.1-7.7-7.3-0.1-0.8-5.2-45.5-4.9-42.7-0.8 0-45.6-2.8-42.7-2.6l-4.8-4.6c385.1-190 294.1-145.1 308.3-152.1z"/>
					<g>
						<g>
							<path class="s1" d="m3783 1356.9c-1071.1 1127.1-922.4 970.6-941.9 991.1l-3-2.8c-0.8-0.9-57.7-54.9-54.1-51.5 9.8-10.3-51.8 54.5 203.2-213.8 1.2 0 26.3 9.2 67.8-19.7 10.5-7.1 24.2-19.2 36.1-33.4 21.2-25.3 39.3-59.6 37.4-94.4 0-0.3-0.1-0.7-0.2-1 735.7-774.1 626.7-659.4 640.7-674.2 0 0 0 0 0 0l8.8-9.2c-1.7 20.9-1.1 64.8 5.2 108.9z"/>
							<path class="s1" d="m4239.1 877c1.3-1.3-14.3 15-230.9 243-14.7-8.2-33.8-14.8-52.8-17.1-11.3-1.3-22.7-1.1-34.4 0.5h-0.1c-2.3 0.4-4.5 0.7-6.8 1.1l9.3-9.8 258.6-272.1c0.9 0.1 54.6 3.5 51.3 3.3 0.8 7.5 6.1 54.1 5.8 51.1z"/>
						</g>
					</g>
					<g>
						<g>
							<path class="s0" d="m3808.1 1445c-1061.2 1116.6-891.1 937.7-909.9 957.4l-57.1-54.4c30.4-31.9-192.9 203 941.9-991.1 5.4 37.4 15.9 69.8 25.1 88.1z"/>
							<path class="s0" d="m4296.2 931.4c-0.8 0.8-51.6 54.2-50.7 53.3-3.3-0.4-21.3 0-39.9 6.3-27.1 9.2-49.9 27.2-63.7 50.4-0.8 1.2-1.6 2.4-2.2 3.6-0.5-0.3-1.1-0.7-1.6-1.1-7.6 16.6-13.1 39.2-11.3 59.5l1.5-1.4c0.1 1.7 0.4 3.4 0.7 5.2 0 0 0 0 0 0.1-0.8 0.8-56.2 59.2-52.7 55.5 0 0 0 0 0 0.1l-5.8 5.9c-18.7-20.4-48.2-42.2-62.3-48.8 0.8-0.8 246.6-259.4 230.9-243 17.2 1.1 53.5 3.4 51.4 3.3 0.1 0.9 6 54.4 5.7 51.1z"/>
						</g>
					</g>
					<g>
						<g>
							<path class="s1" d="m3858.7 1506.1c0 0 0 0 0.1 0.1-992.6 1044.4-890.5 937-903.4 950.6-2.1-2-57.6-54.9-54.1-51.5l-3-2.9c133.9-140.9 767.6-807.8 909.8-957.3 10 22.8 27.5 46.1 50.6 61z"/>
							<path class="s1" d="m4173.4 1169.1c1.2 0.6 2.5 1.4 3.7 2.1l-5.9 6.3c-0.8 0.8-53.4 56-50.1 52.5-21.5-30.1-45.1-56.2-50.5-61.1l5.7-6c0-0.1 0-0.1 0-0.1 0.8-0.9 56.2-59.1 52.7-55.4 5.9 28.1 21.7 48.5 44.4 61.7z"/>
							<path class="s1" d="m4353.3 985.8c-0.8 0.8-34.4 36.2-32.2 34-19.6-23.1-48.8-35.1-75.5-35.1 0.8-0.8 51-53.6 47.8-50.2l2.8-3.1c2.1 0.2 53.7 3.5 51.3 3.3 0.1 0.9 6.2 54.4 5.8 51.1z"/>
						</g>
					</g>
				</g>
				<path fill-rule="evenodd" class="s1" d="m2750.9 2328.4l40.5-42.5 171.3 163.1-40.5 42.5z"/>
			</g>
			<g>
				<path class="s1" d="m4224.4 1187.7c-6.1 0.2-12.1 0.1-17.7-0.6-12-52.7-37.1-91.1-60-116.7-4.8-5.4-10-10.6-15.2-15.6 1.6-4.9 3.6-9.6 5.7-14 40.7 27 82.6 61.2 87.2 146.9z"/>
				<g>
					<path class="s1" d="m4114.6 1345c0 0-41.5 175.3-17.7 225.6 0 0-12.9 133.8-125.3 131.7-102.4-1.9-46.4-128.9-46.4-128.9 0 0 6.2-64.7-5.7-155.8"/>
					<g>
						<g>
							<g>
								<path class="s1" d="m4032.6 1486.3c-28.5 26.3-67.4 44.9-120.1 41.2-157.1-10.5-147.6-274.3-130.3-352.9 125.6-109.5 224.8-111.3 345 56.6 9.4 13.1 43.2 4.6 51.2 37.5 1.7 6.9 17.3 72.1-73.7 87.6"/>
							</g>
							<g>
								<path class="s1" d="m4032.6 1486.3c-28.5 26.3-67.4 44.9-120.1 41.2-157.1-10.5-147.6-274.3-130.3-352.9 125.6-109.5 224.8-111.3 345 56.6 9.4 13.1 43.2 4.6 51.2 37.5 1.7 6.9 17.3 72.1-73.7 87.6"/>
							</g>
							<path class="s1" d="m4127.2 1260.2c0 0 28.2 1.6 26.4 34.7"/>
						</g>
					</g>
				</g>
				<g>
					<g style="opacity: .5">
						<path class="s10" d="m3962.9 1367.3c-7.9 4.4-16.9 3-20.4-3.1-3.3-6 0.3-14.5 8.1-18.9 7.9-4.4 17-3 20.4 3 3.3 6.1-0.3 14.6-8.1 19z"/>
					</g>
					<g style="opacity: .5">
						<path class="s10" d="m3813 1376.2c7.4 5.3 16.5 4.9 20.6-0.8 4-5.6 1.3-14.4-6-19.7-7.3-5.3-16.5-4.9-20.6 0.8-4 5.6-1.3 14.4 6 19.7z"/>
					</g>
					<g>
						<path class="s1" d="m3908.7 1263.2c17.3-16.8 39.2-4.7 52.7 8.7"/>
						<path class="s1" d="m3810.9 1257.8c17.3-16.8 39.3-4.7 52.8 8.7"/>
					</g>
				</g>
			</g>
			<path class="s1" d="m3117 1899.5c28.1 23.1 18.1 81.3-22.7 130-40.6 48.8-96.6 69.4-124.8 46.3-28.4-23.1-6.1-71.4 34.6-120 40.7-48.9 84.5-79.5 112.9-56.3z"/>
			<g>
				<path class="s1" d="m4374.8 2263c-2.2-0.7-3.4-3.1-2.7-5.3 7.7-23.7 26.3-42.1 47.4-46.9 13.1-3 26.4-1 37.6-6.1 14-6.3 25-24.8 28-47.1 2.8-21.1-0.7-42.5-4.2-63.3-0.3-2.3 1.2-4.4 3.5-4.8 2.3-0.4 4.4 1.2 4.8 3.4 3.4 20.4 7.1 43.5 4.2 65.8-2.7 20-12.7 44.6-32.9 53.7-13.1 5.9-26.6 3.7-39.2 6.6-18.2 4.1-34.4 20.4-41.2 41.3-0.7 2.2-3.1 3.4-5.3 2.7z"/>
			</g>
			<g>
				<path class="s1" d="m4075.3 2577.9c-32.2-3.7-63.1-12.8-94.7-17.1-37.7-5-68.3-1.1-90.9 11.7-2 1.1-4.5 0.4-5.7-1.6-1.1-2-0.4-4.6 1.6-5.7 24.2-13.7 56.5-17.9 96.1-12.7 31.8 4.3 63.1 13.4 94.6 17.1 25.9 3 62.5 2.9 89.8-14.6 23.7-15.3 35.7-42 29.8-66.7-0.5-2.3 0.9-4.5 3.1-5.1 2.3-0.5 4.5 0.9 5.1 3.1 6.7 28.2-6.7 58.6-33.5 75.7-27.1 17.5-63.3 19.6-95.3 15.9z"/>
			</g>
			<g>
				<path class="s1" d="m3896.2 1896.1c-32.9-5.1-52.9-29.3-66.1-45.3-7.4-8.9-14.4-16.7-25.5-20.6-11.4-4-27.4-1.2-30.5 5.3-1 2.1-3.5 3-5.6 2-2.1-1.1-3-3.6-2-5.6 5.6-11.5 26.6-14.6 40.9-9.6 13.1 4.6 21.3 13.6 29.2 23.2 16.4 19.9 33.4 38.1 60.9 42.3 17.4 2.7 37.6-1.1 55.4-10.3 16.1-8.4 28.6-20 40.6-31.2 1.7-1.5 4.4-1.4 5.9 0.3 1.6 1.7 1.5 4.3-0.2 5.9-12.4 11.5-25.3 23.5-42.5 32.4-20.1 10.5-42.2 14-60.5 11.2z"/>
			</g>
			<g>
				<path class="s1" d="m4489.5 1983.2c-24.7-10.7-38.6-36-45.9-55.4-8.2-22-12.5-45.8-21.7-66.8-26.2-59.6-96.4-95-159.9-80.7-2.3 0.4-4.5-1-5-3.2-0.5-2.3 0.9-4.5 3.1-5 67.3-15.2 141.7 22.4 169.5 85.5 9.6 22 13.7 45.3 21.9 67.3 6.7 17.8 19.3 41.1 41.3 50.5 2.2 1 3.1 3.4 2.2 5.6-0.9 2.1-3.3 3.1-5.5 2.2z"/>
			</g>
			<g>
				<path class="s1" d="m3539.5 2083.8c-1.1-2.1-0.2-4.6 1.8-5.7 16.6-8.5 22.3-29.9 24.2-42 2.8-17.7 2.4-36.7 9.3-54.2 12.9-33.1 46.9-51.2 80.5-66.9 2.1-1 4.6-0.1 5.6 2 1 2.1 0.1 4.6-2 5.6-32.2 14.9-64.5 32.1-76.3 62.3-6.3 16.2-6 34.5-8.8 52.5-2.7 16.7-9.8 38.5-28.7 48.2-2 1-4.6 0.2-5.6-1.8z"/>
			</g>
			<g>
				<path class="s11" d="m2036.2 999.1c40 0 72.6-32.6 72.6-72.5 0-40.1-32.6-72.7-72.6-72.7-40.1 0-72.7 32.6-72.7 72.7 0 39.9 32.6 72.5 72.7 72.5zm0-136.8c35.4 0 64.2 28.8 64.2 64.3 0 35.3-28.8 64.1-64.2 64.1-35.5 0-64.3-28.8-64.3-64.1 0-35.5 28.8-64.3 64.3-64.3z"/>
				<path class="s11" d="m1494.8 1603.7c-110.6 0-200.7 90-200.7 200.7 0 110.6 90.1 200.6 200.7 200.6 110.6 0 200.6-90 200.6-200.6 0-110.7-90-200.7-200.6-200.7zm0 392.9c-106 0-192.3-86.2-192.3-192.2 0-106.1 86.3-192.3 192.3-192.3 106 0 192.2 86.2 192.2 192.3 0 106-86.2 192.2-192.2 192.2z"/>
				<path class="s11" d="m1552.4 1728.9l-97.8 98.2-17.5-17.5c-9.7-9.7-25.5-9.7-35.2 0.1-9.7 9.7-9.7 25.5 0.1 35.2l35.2 35c9.7 9.7 25.5 9.6 35.1-0.1l115.4-115.8c9.7-9.7 9.7-25.5-0.1-35.2-9.7-9.7-25.5-9.7-35.2 0.1zm29.3 29.2l-115.3 115.8c-6.4 6.5-16.9 6.5-23.3 0.1l-35.2-35.1c-6.5-6.4-6.5-16.9-0.1-23.3 6.5-6.5 16.9-6.5 23.4-0.1l20.5 20.5c2 2 4.6 1.3 5.9 0l100.7-101.2c6.4-6.5 16.9-6.5 23.4-0.1 6.5 6.5 6.5 16.9 0 23.4z"/>
				<path class="s11" d="m2323.4 1664.5h450.6c2.3 0 4.2-1.8 4.2-4.2 0-2.3-1.9-4.1-4.2-4.1h-450.6c-2.3 0-4.2 1.8-4.2 4.1 0 2.4 1.9 4.2 4.2 4.2z"/>
				<path class="s11" d="m1781.1 1664.5h402.6c2.3 0 4.2-1.8 4.2-4.2 0-2.3-1.9-4.1-4.2-4.1h-402.6c-2.3 0-4.2 1.8-4.2 4.1 0 2.4 1.9 4.2 4.2 4.2z"/>
				<path class="s11" d="m2774 1800.1h-129.4c-2.3 0-4.2 1.9-4.2 4.2 0 2.3 1.9 4.2 4.2 4.2h129.4c2.3 0 4.2-1.9 4.2-4.2 0-2.3-1.9-4.2-4.2-4.2z"/>
				<path class="s11" d="m2195.8 1808.5h361.5c2.3 0 4.2-1.9 4.2-4.2 0-2.3-1.9-4.2-4.2-4.2h-361.5c-2.4 0-4.2 1.9-4.2 4.2 0 2.3 1.8 4.2 4.2 4.2z"/>
				<path class="s11" d="m1781.1 1808.5h283c2.3 0 4.1-1.9 4.1-4.2 0-2.3-1.8-4.2-4.1-4.2h-283c-2.3 0-4.2 1.9-4.2 4.2 0 2.3 1.9 4.2 4.2 4.2z"/>
				<path class="s11" d="m1781.1 1952.5h739.9c2.4 0 4.2-1.9 4.2-4.2 0-2.3-1.8-4.2-4.2-4.2h-739.9c-2.3 0-4.2 1.9-4.2 4.2 0 2.3 1.9 4.2 4.2 4.2z"/>
				<path class="s11" d="m1494.8 2207.4c-110.6 0-200.7 90-200.7 200.7 0 110.6 90.1 200.6 200.7 200.6 110.6 0 200.6-90 200.6-200.6 0-110.7-90-200.7-200.6-200.7zm0 392.9c-106 0-192.3-86.2-192.3-192.2 0-106 86.3-192.3 192.3-192.3 106 0 192.2 86.3 192.2 192.3 0 106-86.2 192.2-192.2 192.2z"/>
				<path class="s11" d="m1552.4 2332.6l-97.8 98.2-17.5-17.5c-9.7-9.7-25.5-9.7-35.2 0.1-9.7 9.7-9.7 25.5 0.1 35.2l35.2 35c9.7 9.7 25.5 9.7 35.1-0.1l115.4-115.8c9.7-9.7 9.7-25.5-0.1-35.2-9.7-9.7-25.5-9.7-35.2 0.1zm29.3 29.2l-115.3 115.8c-6.4 6.5-16.9 6.5-23.3 0.1l-35.2-35.1c-6.5-6.4-6.5-16.8-0.1-23.3 6.5-6.5 16.9-6.5 23.4-0.1l20.5 20.5c1.5 1.5 4.2 1.7 5.9 0l100.7-101.2c6.4-6.5 16.9-6.5 23.4-0.1 6.5 6.5 6.5 16.9 0 23.4z"/>
				<path class="s11" d="m2774 2259.9h-450.6c-2.3 0-4.2 1.8-4.2 4.2 0 2.3 1.9 4.2 4.2 4.2h450.6c2.3 0 4.2-1.9 4.2-4.2 0-2.4-1.9-4.2-4.2-4.2z"/>
				<path class="s11" d="m1781.1 2268.3h402.6c2.3 0 4.2-1.9 4.2-4.2 0-2.4-1.9-4.2-4.2-4.2h-402.6c-2.3 0-4.2 1.8-4.2 4.2 0 2.3 1.9 4.2 4.2 4.2z"/>
				<path class="s11" d="m2195.8 2403.9c-2.4 0-4.2 1.8-4.2 4.1 0 2.4 1.8 4.2 4.2 4.2h361.5c2.3 0 4.2-1.8 4.2-4.2 0-2.3-1.9-4.1-4.2-4.1z"/>
				<path class="s11" d="m1781.1 2412.2h283c2.3 0 4.1-1.8 4.1-4.2 0-2.3-1.8-4.1-4.1-4.1h-283c-2.3 0-4.2 1.8-4.2 4.1 0 2.4 1.9 4.2 4.2 4.2z"/>
				<path class="s11" d="m1781.1 2556.2h739.9c2.4 0 4.2-1.9 4.2-4.2 0-2.3-1.8-4.2-4.2-4.2h-739.9c-2.3 0-4.2 1.9-4.2 4.2 0 2.3 1.9 4.2 4.2 4.2z"/>
				<path class="s11" d="m1494.8 2811.1c-110.6 0-200.7 90-200.7 200.7 0 110.6 90.1 200.6 200.7 200.6 110.6 0 200.6-90 200.6-200.6 0-110.7-90-200.7-200.6-200.7zm0 392.9c-106 0-192.3-86.2-192.3-192.2 0-106 86.3-192.3 192.3-192.3 106 0 192.2 86.3 192.2 192.3 0 106-86.2 192.2-192.2 192.2z"/>
				<path class="s11" d="m2774 2863.6h-450.6c-2.3 0-4.2 1.9-4.2 4.2 0 2.3 1.9 4.2 4.2 4.2h450.6c2.3 0 4.2-1.9 4.2-4.2 0-2.3-1.9-4.2-4.2-4.2z"/>
				<path class="s11" d="m1781.1 2872h402.6c2.3 0 4.2-1.9 4.2-4.2 0-2.3-1.9-4.2-4.2-4.2h-402.6c-2.3 0-4.2 1.9-4.2 4.2 0 2.3 1.9 4.2 4.2 4.2z"/>
				<path class="s11" d="m2774 3007.6h-129.4c-2.3 0-4.2 1.8-4.2 4.2 0 2.3 1.9 4.2 4.2 4.2h129.4c2.3 0 4.2-1.9 4.2-4.2 0-2.4-1.9-4.2-4.2-4.2z"/>
				<path class="s11" d="m2557.3 3007.6h-361.5c-2.4 0-4.2 1.8-4.2 4.2 0 2.3 1.8 4.2 4.2 4.2h361.5c2.3 0 4.2-1.9 4.2-4.2 0-2.4-1.9-4.2-4.2-4.2z"/>
				<path class="s11" d="m1781.1 3016h283c2.3 0 4.1-1.9 4.1-4.2 0-2.4-1.8-4.2-4.1-4.2h-283c-2.3 0-4.2 1.8-4.2 4.2 0 2.3 1.9 4.2 4.2 4.2z"/>
				<path class="s11" d="m2521 3151.6h-739.9c-2.3 0-4.2 1.8-4.2 4.1 0 2.4 1.9 4.2 4.2 4.2h739.9c2.4 0 4.2-1.8 4.2-4.2 0-2.3-1.8-4.1-4.2-4.1z"/>
				<path class="s11" d="m1826.4 1204.8h419.5c2.3 0 4.2-1.9 4.2-4.2 0-2.3-1.9-4.2-4.2-4.2h-419.5c-2.3 0-4.2 1.9-4.2 4.2 0 2.3 1.9 4.2 4.2 4.2z"/>
				<path class="s11" d="m4645.8 4023.3h-102.3c1.8-2.4 2.8-5.3 2.9-8.6 0.5-19.2-7.9-34-24.9-43.8-16.1-9.3-158.4-88.2-160.5-87.9v-27.8c17.3-2.1 17.3-4.8 17.3-7.4l-116.1-1248.3c12.9-8.8 20.3-18.8 20.3-30.2-1.8-15.6-3.5-32.4-5-50.1 36.4 14.4 71.1-6.7 68.8-54.8-1.9-31.9-1-78-0.3-103.2 0.1 0.1 0.3 0.3 0.5 0.5 1 0.9 2.1 1.8 3.1 2.6 1 0.9 2.1 1.7 3.1 2.5q4.6 3.4 8.6 5.3c0.4 0.2 0.9 0.4 1.3 0.5 0.7 0.3 1.3 0.5 1.9 0.7q1 0.4 2 0.5c0.5 0.2 0.9 0.3 1.4 0.4 0.8 0 1.5 0.1 2.2 0.1 2.5 0 4.7-0.6 6.6-2 10.7-6.9 262.1-170.2 272.6-277.6-0.4-2.8 5.9-35.5-25.6-97.9-0.2-0.3-0.5-0.7-0.7-0.9-40.1-78.9-118.4-171-188.4-244.9-51.1-53.9-111.5-97.4-177.2-128.8 0.2-3.6 0.1-5 0-5.9 1.6-11.5-0.7-23.1-7.3-34-17.2-29-29.2-55.1-38.1-79.5q-1.6-4.6-3-8.6c-0.8-2.1-1.4-4.3-2.1-6.4-1.3-4.1-2.5-7.9-3.5-11.4-7.6-25.8-12.3-50.3-17.1-75.5-1.5-7.4-3-15-4.5-22.5-0.1-0.7-0.3-1.3-0.5-1.9 18-22.4 28.6-56 31.7-100.6 2.2-32.1-0.3-60.6-5.7-85.9 7 1.3 14.2 2 21.6 2 2 0 4-0.1 6-0.2 11.8-0.4 23.9-2.7 36-6.6 61.1-20.7 94.2-81.1 75.2-137.5-3.8-11.3-9.5-21.7-16.6-30.8 28.5-30.2 27-28.2 27.5-29.3 0.1-0.1 0.2-0.1 0.2-0.2 0-0.1 0-0.1 0-0.1l136.9-315.2c1.7-3.9-2.6-6.9-5.7-5.4-30.1 14.9 111.8-55.2-308.1 152.1-0.1 0.1-0.1 0.1-0.1 0.1l-0.1 0.1c-0.2 0-0.3 0.1-0.4 0.2-0.1 0-0.1 0-0.1 0.1-0.9 0.4-54.8 57.5-165.2 173.8-7.4-1.4-14.7-2.3-21.9-2.6-57.9-2.6-180.6 12.1-231.7 85.6-29.4 42.3-30.3 97-2.9 161.8 0 0.3 1.7 7.9 4.7 20.1l-628.4 661.1c-2.7-9.4-7.7-17.1-14.6-22.8-14.9-12.2-34.1-11.8-56.3 0.4v-665.9c0-86.9-70.6-157.5-157.5-157.5h-551.9c-2.8-25.6-24.4-45.5-50.6-45.5h-91.3c-23.5 0-42.6-19.1-42.6-42.6v-50.1c0-72-58.2-134-135.4-133.1-72.2 1.2-131.1 62.6-131.1 136.7v46.5c0 23.5-19.1 42.6-42.6 42.6h-91.2c-26.4 0-47.9 19.9-50.7 45.5h-536.3c-86.9 0-157.5 70.6-157.5 157.5v2124.4h-21.3c-2.3 0-4.2 1.8-4.2 4.2v31.2c0 29.1 9.4 56.1 25.5 78.1v70.5c0 86.8 70.6 157.5 157.5 157.5h1723.7c86.9 0 157.5-70.7 157.5-157.5v-1189.9l153.5-161.6c30.3 9.6 286.9 89.9 335.5 68.8 52.1-22.7 118.1-142.7 152-210.3-29.5 121.3-49.1 334.8-48.1 540.4 0 11.4 7.4 21.2 20.4 29.4-40.1 1287.9-41.5 1237.2-37.3 1239.6 2.9 1.7 11.4 2.9 23.5 3.9v25.9c-33.1 18-122.5 66.5-155.1 85.5-17 9.8-25.4 24.6-25 43.8 0.1 3.3 1.2 6.2 2.9 8.6h-2761.7c5.9-5.6 9.7-13.5 9.7-22.4v-38.9c0-2.3-1.8-4.2-4.2-4.2h-2.7l37.3-270.7c1.9-13.8-8.8-26-22.6-26h-43.3c10.5-25.1 17.4-57.3 20.5-97.3 4.1-51.3 64.7-119.8 65.4-120.5 1.2-1.3 1.4-3.2 0.5-4.8-0.8-1.5-2.5-2.4-4.3-2.1-28.3 4.2-53.6 14.6-76 28.8 15.9-63.3 75.1-164.4 75.9-165.7 0.9-1.6 0.6-3.6-0.5-4.9-1.3-1.4-3.2-1.8-4.9-1.1-60.5 26.6-122.5 117.8-148.3 159.2-16.7-31.6-2-97.8-1.8-98.4 0.3-1.5-0.2-3.1-1.3-4.1-1.1-1-2.7-1.4-4.2-0.9-42.6 14.4-71.2 47-90.2 80.7-30.5-45.6-82.5-114-133.6-136.5-1.7-0.7-3.7-0.3-4.9 1.1-1.2 1.3-1.3 3.3-0.4 4.9 0.8 1.5 79.6 136 79.6 191.8 0 1.4-0.1 2.9-0.2 4.2-30.6-29.1-68.4-52.3-114.5-59.1-1.8-0.3-3.6 0.6-4.4 2.1-0.8 1.6-0.6 3.5 0.6 4.8 0.6 0.7 61.3 69.2 65.4 120.5 3.1 40 9.9 72.2 20.5 97.3h-42.7c-14.2 0-25 12.9-22.5 26.9l47.8 269.8h-13.4c-2.3 0-4.2 1.9-4.2 4.2v38.9c0 8.9 3.8 16.8 9.8 22.4h-57.6c-2.3 0-4.2 1.9-4.2 4.2 0 2.3 1.9 4.2 4.2 4.2h78.4 270.3 3942.9c2.3 0 4.2-1.9 4.2-4.2 0-2.3-1.9-4.2-4.2-4.2zm-3875.7-576.6c-17 20.8-56.5 73.2-59.8 116.4-3.3 40.9-10.3 73.4-21.3 98h-116c2.3-6.8 7.8-21.9 16.9-41.3 1.9-4.2 4-8.6 6.3-13.2 13-25.9 31.4-56.9 55.8-84.9 1.9-2.2 3.9-4.5 6.1-6.8 0 0 0 0 0 0 30.6-33.1 67.9-58.8 112-68.2zm-4.4-139.1c-17.4 30.9-61.2 112.1-71.5 164.3-14.6 10.4-28 22.3-39.9 35.1-6.8-14.4-15.1-31.4-23.1-45.9 22.1-35.8 78.7-120.8 134.5-153.5zm-150.8 52.2c-3.6 19.1-10.9 69.7 4.7 97.7 1.4 2.6 8.8 14.6 28.6 56.1-22.9 25.7-40.8 54.2-54.1 79.1-2.4 4.4-4.5 8.6-6.6 12.7-9.6 19.5-16.2 36-20 46.3q0-0.1 0-0.1c-3.5-9.6-9.6-24.7-18.2-42.4v-0.1c-2.2-4.6-4.6-9.5-7.3-14.4-10.2-19.7-23.4-41.4-39.7-62.5l0.1-1.2c2.1-19.5 14.9-62.9 31.7-93 17-31.7 42.8-62.9 80.8-78.2zm-210.7-52.2c46.2 27 92.8 89.7 120.1 131-18.3 35.4-26.4 70.3-29 84.7-5.6-6.7-11.4-13.3-17.7-19.7-0.1-2.3 0-4.7 0.2-7.1 4-46.5-53-152.5-73.6-188.9zm20.6 255.5c-3.4-43.2-42.8-95.6-59.8-116.4 71.2 15.3 125.4 73.3 161.3 136.7 3.6 6.1 6.8 11.9 9.6 17.5 14.6 28.1 23.1 51.3 26.2 60.2h-116c-11-24.6-18.1-57.1-21.3-98zm-44.8 123.4c-1.6-8.8 5.2-17 14.3-17h347.1c8.7 0 15.5 7.7 14.3 16.5l-37.4 271.8h-290.1zm52.6 336.7c-12.3 0-22.3-10-22.3-22.3v-34.8h14.3 297.3 3.3v34.8c0 12.3-10 22.3-22.4 22.3zm3249.9-162.5c58.4 16.4 123.7 8.7 187.5 5.6v28.1c-71.9 12.5-145.2 19.3-198.8-10v-24.3c3.5 0.2 7.3 0.5 11.3 0.6zm209.4 151.9l-13.6-107.2v-50.1c3.1-0.7 5.2-1.4 6.5-2 2.9-1.7 3.3-4 3.3-4.7l103-884.4 137 883.9c0 2.6 0 5.6 23.6 7.7v42.9l-14.4 113.9c-0.5 3.8 0.6 7.6 2.8 10.6h-251c2.2-3 3.3-6.8 2.8-10.6zm460.7-125.5c-52.9 26.1-123.3 19.5-192.5 7.5v-28.6c0.8 0.4 62.5 3.1 84 3.1 34.6 0 67.1-2.7 98.6-12.5 3.7-0.1 7-0.4 9.9-0.6zm17.2-41.4c-1.9 0.5-5 0.9-8.8 1.3-6.9 0.9-4.4 0-8.4-0.1v0.8c-1.3 0.1-2.8 0.2-4.3 0.3-133.7-1437.3-112.5-1208.8-114.8-1233.8 7.4-2.9 14.1-6 19.9-9.3 0.4-0.1 0.6-0.3 1-0.4l4 44 0.4 4.1zm-705.2-1259.1c-1.2-236.6 24.9-483.4 62.1-586.9q0-0.1 0-0.2l38.3-105.3c0.8-2.1-0.3-4.6-2.5-5.3-2.2-0.8-4.6 0.3-5.4 2.5l-38.4 105.4q0 0.1 0 0.1c-3 6.6-100 218.6-167.9 250.9-53-26-70.3-58.4-57.7-108.2 0.5-2.3-0.8-4.6-3.1-5.1-2.2-0.6-4.5 0.8-5.1 3-12.8 51 3.8 86.4 53.9 113.6-53.6 6.5-222.6-40.8-315.5-70.2l183.3-192.9 68.4 24.2c1.9 0.7 4 0 5.1-1.7 1.1-2 109.2-179.6 180.2-289.4l115.9-122c26.6-11.8 56.1-18.9 87.7-21.3 19.7-1.4 38.4-2.6 56.3-3.4-5.5 13.4-26.8 71.4-4.5 106.3 10.6 16.5 29.4 25.3 55.9 25.7 0.9 0.1 1.7 0.1 2.7 0.1 25.7 0 46.3-7.1 62.7-18 60.4 56.7 203.1 4.6 219-57.7 64 30.9 122.8 73.4 172.6 126 66.6 70.2 219 238.1 212.6 334.5-31.6 12.7-61.7 12.5-89.5-0.8-2.1-1-4.6-0.1-5.6 2-1 2-0.1 4.5 2 5.5 15.4 7.4 31.4 11.1 48 11.1 14.2 0 28.9-2.9 43.8-8.4-20.1 103.7-265.2 263-267.8 264.6-1.9 1.3-5.3 0-7.2-0.9-0.7-0.4-1.4-0.7-2.1-1.1-0.5-0.3-1-0.5-1.5-0.9-3.1-2-6.6-4.6-10.1-7.8-1.6-1.5-3.3-3.1-5-4.7-1.3-1.4-2.7-2.8-4.1-4.3-1.6-1.8-3.4-3.8-5.2-5.8-1-1.2-2.1-2.4-3.1-3.7 0 0 0 0-0.1-0.1-2.5-2.9-5.1-6.1-7.5-9.3-1.1-1.4-2.2-2.8-3.2-4.2-12.5-16.8-35.2-51.7-36.8-71.2-0.2-2.2-0.2-3.8 0.7-5.6 0-0.2 0-0.3 0.2-0.4 0.2-0.4 0.6-0.7 0.9-1 0-0.9 60.1-59.3 146.6-144.4 0.8-0.7 1.3-1.8 1.3-2.9 0-1.1-0.5-2.2-1.2-2.9l-97.6-98.4-0.1-0.1-59.8-60.2q0 0-0.1-0.1l-49.8-54.1c-1.6-1.6-4.2-1.8-5.9-0.2-1.7 1.6-1.8 4.2-0.3 5.9l48.6 52.7c-8.2 93.1-11.8 209.3-11 322.4-30.6 20.3-75.6 54.8-80.2 83.8-1.3 9 1.1 17.1 7.4 23.8 10.3 11 21.2 15.6 32.6 13.8 13.1-2 24.1-12.5 31.8-22.5-7.7 43-19 132.8 16.4 153.1 0.7 0.4 1.3 0.7 2 1.1 1.7 19.3 3.5 37.6 5.5 54.5 0 7.5-4.6 14.5-12.8 20.9q-0.5 0.4-1 0.8c-1.2 1-2.5 1.9-3.9 2.7-0.9 0.7-2 1.3-3 2-0.2 0.1-0.5 0.3-0.9 0.5-5.6 3.3-12.3 6.5-19.8 9.4q-3.9 1.7-8.1 3.1c-64.8 23.3-183.6 36.6-296.2 36.6-70.8 0-132.1-5-177.6-13.8-12.8-2.6-24.3-5.2-34.4-8.3-12.1-3.6-22.2-7.5-30.3-11.8q-0.5-0.2-1-0.5c-3.1-1.7-5.7-3.4-8.2-5.3-8.1-5.9-12.4-12.4-12.4-19.3zm612.8-639.1l53.8 54.1 94.5 95.3-142.7 140.5c-0.8 0.5-1.4 1.1-2 1.7-0.8 0.6-1.6 2.3-2 3.1-0.1 0.1-0.1 0.1-0.1 0.2-0.4 0.9-0.6 1.9-0.8 3-0.1 0.1-0.2 0.4-0.1 0.6-0.3 1.4-0.3 2.4-0.3 4-3 1.8-6.6 4.1-10.7 6.6-0.5-108.3 2.9-219 10.4-309.1zm-1518.7 1567.6c-41.6 0.4-78.4-19.6-101.3-50.4 0-0.1 0-0.1 0-0.1-28.6-38.4-23.5-71.1-24.4-105.3 0-2.3-1.8-4.2-4.1-4.2h-1438.6v-2036.6c0-37.3 30.4-67.6 67.7-67.6h276.7c-4.9 3.8-9.5 8-13.9 12.3-32.7 32.6-50.6 76.1-50.6 122.2 0 2.4 2.1 4.2 4.2 4.2h1123.6c2.3 0 4.2-1.9 4.2-4.2 0-54.3-25.2-102.8-64.5-134.5h276.7c37.3 0 67.6 30.3 67.6 67.6v866l-199.7 210q-4.1 4.4-7.2 9.3h-30.4c-2.4 0-4.2 1.9-4.2 4.2 0 2.3 1.8 4.2 4.2 4.2h26.1c-9.3 22-4.7 48.3 13.5 65.8l91.8 87.4c23.3 22.3 60.9 21.7 83.6-2l22.3-23.4v847.2c0 69.9-55.3 127.3-123.3 127.9zm378.1-1583.5c-0.1-0.9-0.2-1.8-0.3-2.7l628.5-661.3c1.1 4.5 2.4 9.3 3.7 14.6 0.2 25 2 51.4 6 77.4-1.4 1.4-927.4 975.7-926.4 974.7l-51-48.5c205.9-216.6 163.8-172.4 188.1-197.9 25.2 6.1 58.7-8.4 78-23.6 12-8.6 23.6-19.5 34.2-32.2 27-32.3 42.1-70.7 39.2-100.5zm1154.7-1004.8l0.4 3.1c-5.2 5.4-46.9 49.2-44.2 46.4-47.9-1.6-96.3 25.4-117.8 69.4-0.9 1.8-1.6 3.6-2.4 5.4-8.7-7.8-17.9-15.1-27.4-21.6l139.2-146.6v-0.1h0.1l1.5-1.5c0.8 0 48.9 3.1 45.8 2.9 0.1 0.8 5.1 45.4 4.8 42.6zm-887.6 1051.7c-1.1 0-2.2 0.4-3 1.2l-173.6 184.6-264.9 278.7-50.9-48.5c272.5-286.7 620.6-652.9 892.3-938.9 11.3 21.5 25.9 40.5 45.5 54.3zm-619.7 321c0.8-0.8 8.1-8.5 7.3-7.6l51 48.5v0.1l-4.4 4.6c-1.4 1.4-1.5 3.7-0.4 5.3 0.2 0.2 0.3 0.4 0.6 0.6v0.1l57.1 54.3c0.7 0.7 1.8 1.2 2.8 1.2 0.1 0 0.1 0 0.2 0 2.6 0 3.7-2.5 7.3-6l51 48.5c-1 1-37 38.9-34.8 36.5l-165.1-157.3c0.8-0.8 29.2-30.7 27.4-28.8zm69.3 258.1c-19.2 20.2-51.4 20.9-71.6 1.7l-91.8-87.4c-16.7-15.8-19.9-40.2-10-59.7h93.9c2.3 0 4.2-1.9 4.2-4.2 0-2.3-1.9-4.2-4.2-4.2h-88.4c0.9-1.2 1.7-2.4 2.7-3.5l62.7-65.9 165.2 157.3zm51.8-168.9l-51-48.5c0.8-0.9 38.1-40.1 36-37.8l885.9-932.4c4.9 27.4 12.4 54.1 23.5 77.6-11.6 12.2 44.4-46.8-894.4 941.1zm-56.8-42.4l51.1 48.5-1.6 1.6-51-48.5zm781.1-593.1c-63.7 100-142.4 229-155.1 250l-61.7-21.8zm299.5-179.2c0.1-0.1 0.1-0.2 0.1-0.3 0-0.1 0.3-2.9 0.6-8.1 0.4-7 0.9-18.6 1-33.5 40-1.2 75-15.5 104.5-42.8 1.7-1.6 1.8-4.2 0.3-5.9-1.6-1.7-4.3-1.8-6-0.2-32.2 29.8-71.5 43.3-117 40.1-49.5-3.4-83.1-32.7-104.7-78.3 0 0 0 0 0 0-30.6-61.3-35.1-162.4-27.7-231.6 65.5 16.5 222.6-30.6 254.9-40.7 0.2 80 63 108.4 63.7 108.7 2.9 1.3 6.3-1.2 5.8-4.6-1.2-7.1 16.1-25.2 29-36.1 3.1 1.3 6.6 2.4 10.2 3.4 12.8 3.5 25.9 7.2 30.4 25.6 9.1 37.3-10.1 72.3-70.3 82.4-2.3 0.4-3.8 2.6-3.4 4.9 0.3 2 2.1 3.5 4.1 3.5 0.7 0 1.2-0.2 2.2-0.4-6.3 29.4-11.8 59.7-16 89.7-8.9 29.9-24.6 58.4-46.4 81.3-27.1 28.6-42.1 62.3-36.3 101.4 0 0.2 0 0.2 0.1 0.3 3.5 19.7 14.2 39.8 23 49.8v0.1c-15.7 9.8-35.2 15.8-59.6 15.3-23.5-0.4-40-7.8-49.1-21.8-22.3-35 6.1-100.5 6.4-101.2 0.2-0.3 0.2-0.7 0.2-1zm-72.8-59.4c16.4 9.9 35.1 15.6 55.7 17.1 3.6 0.2 7 0.4 10.4 0.4 0 15.4-0.5 27.1-1 33.8-18.5 0.9-37.8 2.1-58.3 3.6-26 1.9-50.5 6.9-73.2 15.1zm467.6-504.2c-15.6-17-38.8-29.7-65.6-33.2l37.9-40h0.1l1.5-1.6c0.8 0.1 10.3 0.6 9.5 0.6 4.6 0.3 38.5 2.5 36.4 2.3 0.1 0.9 5.2 46.6 5.1 45.7-0.8 0.9-26.6 27.9-24.9 26.2zm63.9-284.9l52.2 49.7-84.4 194.4-4-35.5c-0.2-2-1.9-3.6-3.9-3.7l-47.9-3-5.3-47.7c-0.2-2-1.9-3.5-3.9-3.7l-47.9-3.1-5.3-47.6c-0.3-2-1.9-3.5-4-3.7l-35.6-2.3zm-204.3 101.4c4.6 0.3 48.5 3 45.9 2.8 0.1 0.9 5.5 48.8 5.2 45.7l-1.5 1.6h-0.1l-140.3 147.7c-22.1-14-45.6-24.3-68.9-29.8 19.1-20-55.2 58.1 159.7-168zm-1069.3 1075.7c8.7 7.3 12.6 17.5 14 28.7 0 0.3 0.1 0.7 0.1 1 1.9 34.4-15.8 68.7-37.4 94.4-11.9 14.4-25.6 26.4-36.1 33.4-18.6 13-45.9 25.4-67.6 19.7 0 0 0 0-0.1 0 0 0 0 0-0.1-0.1-1.5-0.3-2.9-0.8-4.4-1.3-3.9-1.3-7.4-3.3-10.6-5.9-6.6-5.4-10.2-12.3-11.1-21-2.1-22 14.4-55.1 46.3-93.2 10.4-12.4 28.2-32.2 47.6-46.3 2.8-1.9 5.5-3.8 8.4-5.5 16.7-10.3 35.8-16.2 51-3.9zm-59.4-671.9v671c-16.7 11-34.8 28.1-54.1 51.2-23.6 28.3-51.1 68.4-48.1 99.4 1 10.9 5.8 19.9 14.1 26.6 2.9 2.5 6.2 4.5 9.7 6l-86.2 90.7v-857.1c0-41.9-34-76-76-76h-288c-27.6-18.8-61-29.9-96.9-29.9h-45.1c-16.6 0-30.1-13.5-30.1-30v-101.1h551.6c82.2 0 149.1 66.9 149.1 149.2zm-1285.9-194.6h91.3c28.1 0 51-22.9 51-51v-46.5c0-69.6 55.1-127.2 122.8-128.3 70.3-1 126.9 55.5 126.9 124.7v50.1c0 28.1 22.8 51 50.9 51h91.3c21.6 0 39.5 16.1 42.2 37.1 0.3 1.7 0.4 3.6 0.4 5.5v2.8 101.1c0 21.2 17.3 38.4 38.5 38.4h45.1c89.1 0 162 71.5 164.2 160.2h-1115c1-42.4 18-82.1 48-112.1 29.7-29.7 71.1-48.1 116.2-48.1h45.2c21.2 0 38.4-17.2 38.4-38.4v-101.1-2.8c0-1.9 0.1-3.8 0.5-5.5 2.6-21 20.5-37.1 42.1-37.1zm-736.1 194.6c0-82.3 66.9-149.2 149.1-149.2h536.1v101.1c0 16.5-13.5 30-30.1 30h-45.2c-35 0-68.5 10.4-97 29.9h-287.9c-41.9 0-76 34.1-76 76v2036.6h-149zm-25.5 2159.9v-27.1c212.1 0 1453.9 0 1617.2 0 0 1.2 0 28.3 0 27.1 0 55.6 34 104.7 86.2 124.5h-1578.8c-68.3 0-124.6-55.8-124.6-124.5zm2047.5 148.5c0 82.2-66.9 149.1-149.1 149.1h-1723.8c-82.2 0-149.1-66.9-149.1-149.1v-59.9c24.4 27.1 59.8 44.3 99.1 44.3h1625.3c0.3 0 0.6 0 0.9-0.1h0.5c72.6-0.7 131.6-61.8 131.6-136.2 0-107.2 0-749.2 0-856.2 13.4-14.1 79.6-83.5 75.4-79.1 0.1-0.1 0.1-0.1 0.1-0.2l89.1-93.7zm1215.9-1032.4c-1.1-0.6-2-1.3-3-2.1-26.8-21.5-16.5-106.6-7.7-151.5 1-4.9 1.9-9.5 2.8-13.3 0.5-2.1-0.6-4.2-2.7-5-0.1 0-0.4 0-0.5 0-1.3-0.5-3.7 0.2-4.7 2.2 0 0.4-16.4 34.7-37.9 38.2-8.5 1.3-16.9-2.6-25.2-11.4-4.5-4.8-6.2-10.4-5.2-16.8 4.8-31.1 65.5-71.3 92.2-87.9 3.2 11.7 9.7 25.1 13 30.8 5.5 10.2 12.3 21 19.6 31.3 0.6 0.7 1.2 1.6 1.9 2.5 2.7 3.8 6.5 8.7 10.8 14.2 4.4 5.5 9.1 10.7 13.5 15.3-0.3 13.3-0.9 37.3-0.9 62.1 0 17.3 0.2 34.9 1.1 49.5 2.5 41.9-28.8 63.5-67.1 41.9zm-625.1 1342.4l39.1-1228.6c16.5 8.4 39.3 14.9 66 19.9 16.5 3.1 34.5 5.7 53.5 7.6 33.6 3.6 70.2 5.4 106.7 5.8 5.7 0.1 11.6 0.1 17.4 0.1 93 0 223.2-10.5 297-36.8l114.5 1231.3c-31.4 1.6-183.4 2.9-203.8-2.9l-141.6-913.1q0 0 0-0.1l-30.4-169.4c-0.4-2.3-2.6-3.7-4.8-3.4-2.3 0.5-3.8 2.6-3.4 4.9l30.3 168.7-106.3 913.2c-21 8.4-170.7 7.5-208.7 5.5v-1.1l-4.2 0.6-0.4 0.1c-0.1 0-0.3 0.1-0.4 0.2-1.2-0.1-2.3-0.2-3.4-0.3-7.9-0.7-13.8-1.4-17.1-2.2z"/>
				<path class="s11" d="m659.1 3731.4h-182.5c-8.8 0-15.4 7.9-13.8 16.5l25.6 144.5c0.4 2 2.1 3.4 4.1 3.4h156.4c2.1 0 3.8-1.5 4.1-3.6l20-144.8c1.1-8.4-5.4-16-13.9-16zm-13.9 156.1h-149.2l-25-141c-0.6-3.5 2.1-6.7 5.6-6.7h182.5c3.4 0 6.1 3 5.6 6.4z"/>
				<path class="s11" d="m445.6 2834.1l83.3 42.8 4.1 90.7c0.7 14.1 16.4 22.1 28.2 14.4l76.1-49.4 83.3 42.8c18.9 9.7 42.1 2.3 51.8-16.7l128.3-249.5c9.6-18.9 2.2-42.1-16.7-51.8l-275-141.3c-18.9-9.8-42-2.3-51.8 16.6l-128.2 249.6c-9.7 18.8-2.2 42.1 16.6 51.8zm-9.2-48l128.3-249.6c7.5-14.7 25.6-20.6 40.5-13l275 141.3c14.7 7.6 20.6 25.8 13 40.5l-128.3 249.6c-7.5 14.8-25.6 20.6-40.5 13l-85.4-43.9c-1.3-0.7-2.9-0.6-4.2 0.2l-78.2 50.8c-6.4 4.2-14.9-0.2-15.2-7.8l-4.2-93.2c-0.1-1.5-1-2.8-2.3-3.5l-85.5-43.9c-14.7-7.6-20.5-25.8-13-40.5z"/>
				<path class="s11" d="m610.6 2826.9c2.7 8.1 11.4 12.8 19.7 10.1l103.6-33.2q0 0 0 0c33.7-10.8 52.3-47.1 41.6-80.9-10.6-32.5-44.2-50.8-77-42.6-12.2-31.3-47-48.2-79.5-37.8-33.8 10.8-52.4 47.1-41.6 80.9zm10.9-176.5c29.4-9.3 61 6.9 70.4 36.2 0.7 2.2 3 3.4 5.2 2.8 29.1-9.3 60.7 6.3 70.4 36.1 9.4 29.3-6.9 60.9-36.2 70.3l-103.5 33.2c-3.9 1.2-8-0.9-9.2-4.7l-33.2-103.5c-9.4-29.4 6.8-60.9 36.1-70.4z"/>
				<path class="s11" d="m436.4 1239.1q0.3 0 0.6 0c2.1 0 3.9-1.5 4.2-3.6 0.1-1.1 16.9-115.2 96.4-230.8 72.3-105.2 212.8-232.7 472.1-247.7l-83.4 87.3c-1.6 1.7-1.5 4.4 0.2 6 0.8 0.7 1.8 1.1 2.9 1.1 1.1 0 2.2-0.4 3-1.3l90.7-95q0 0 0 0 0.6-0.7 0.9-1.6c0.1-0.2 0.1-0.3 0.1-0.5 0.1-0.3 0.2-0.6 0.2-1 0-0.1-0.1-0.2-0.1-0.3 0-0.1 0-0.2 0-0.3 0-0.1-0.1-0.2-0.2-0.3q-0.2-0.6-0.5-1.2-0.1-0.2-0.3-0.4-0.5-0.6-1.2-0.9c0-0.1-0.1-0.1-0.1-0.2l-0.3-0.1q0 0-0.1 0l-108.4-50.9c-2.1-1-4.6-0.1-5.6 2-0.9 2.1 0 4.6 2.1 5.5l93.8 44.1c-259 16.7-399.9 145-472.7 251-80.6 117.2-97.7 233.2-97.8 234.3-0.3 2.3 1.3 4.4 3.5 4.8z"/>
				<path class="s11" d="m3984.2 1777.3c47.9 0 98.8-14 143.9-42.1 1.9-1.2 2.5-3.8 1.3-5.8-1.2-2-3.8-2.6-5.8-1.3-87.3 54.4-196.8 54.5-260.5 0.3-1.7-1.5-4.4-1.3-5.9 0.5-1.5 1.8-1.3 4.4 0.5 5.9 33.2 28.3 78.4 42.5 126.5 42.5z"/>
				<path class="s11" d="m3801.7 3316.6q1.6 0.1 3.2 0.1c9.2 0 18.1-3.3 25.3-9.5 1.7-1.5 1.9-4.2 0.4-5.9-1.5-1.8-4.2-2-5.9-0.5-6.3 5.5-14.2 8.2-22.3 7.4-8.1-0.6-15.4-4.5-20.7-10.9-10.9-13.2-9.3-33.2 3.6-44.4 1.8-1.5 1.9-4.1 0.4-5.9-1.5-1.7-4.1-1.9-5.9-0.4-16.3 14.2-18.4 39.3-4.5 56.1 6.7 8.1 16.1 13 26.4 13.9z"/>
				<path class="s11" d="m4190.4 3316.7q1.2 0 2.3 0c9.5 0 18.6-3.5 25.8-10 16.1-14.6 17.7-39.8 3.6-56.2-1.5-1.8-4.2-2-5.9-0.4-1.8 1.5-2 4.1-0.4 5.9 11.1 12.9 9.9 32.9-2.9 44.5-6.1 5.5-13.9 8.2-22 7.8-8.1-0.5-15.6-4.2-21-10.5-1.5-1.8-4.1-2-5.9-0.5-1.7 1.5-1.9 4.2-0.4 5.9 6.9 8.1 16.4 12.8 26.8 13.5z"/>
				<path class="s11" d="m4127 1262.3c1.1 0.1 26.2 1.9 24.5 32.4 0 1.2 0.8 2.2 2 2.2q0.1 0 0.1 0c1.1 0 2-0.8 2.1-1.9 1.9-34.8-28.1-36.9-28.4-36.9-1.1-0.1-2.2 0.8-2.2 2-0.1 1.2 0.8 2.1 1.9 2.2z"/>
				<path class="s11" d="m3906.5 1260.9c-1.3 1.2-1.3 3.2-0.1 4.5 1.2 1.2 3.2 1.3 4.5 0 18.6-18 41.7 2.1 48.3 8.7 1.2 1.2 3.2 1.2 4.5 0 1.2-1.2 1.2-3.2-0.1-4.4-15.7-15.8-39-26.3-57.1-8.8z"/>
				<path class="s11" d="m3944.8 1297.6c0.5-9.5-5.6-17.5-13.9-18-8.3-0.5-15.2 6.8-15.8 16.4-0.5 9.3 5.6 17.6 13.9 18 8.3 0.5 15.3-7 15.8-16.4z"/>
				<path class="s11" d="m3861.5 1268.7c1.2 1.2 3.2 1.2 4.4 0 1.2-1.2 1.2-3.2 0-4.5-15.8-15.7-39.1-26.2-57.2-8.7-1.2 1.2-1.2 3.2 0 4.5 1.2 1.2 3.2 1.3 4.4 0 18.6-18 41.7 2.1 48.4 8.7z"/>
				<path class="s11" d="m3833.2 1274.2c-8.3-0.5-15.3 6.8-15.8 16.4-0.5 9.3 5.6 17.6 13.9 18 8.3 0.5 15.2-7 15.8-16.4 0.5-9.5-5.6-17.5-13.9-18z"/>
				<path class="s11" d="m3952.4 1412.1c-0.3-1.8-2.1-3-3.8-2.6l-79.9 16.6c-2 0.4-3.1 2.6-2.2 4.4 10.7 22 33.7 35.9 55.4 31.5 21.5-4.5 34.3-25.4 30.5-49.9zm-31.7 43.7q0 0 0 0c-17.2 3.6-36.3-6.6-46.6-24.4l72.5-15c1.7 19.6-8.8 35.9-25.9 39.4z"/>
				<path class="s11" d="m3962 1464.3c-1.5-0.7-3.4 0-4.1 1.6-4.1 9.1-13.7 13.6-25.6 11.9-1.7-0.3-3.3 0.9-3.5 2.7-0.3 1.7 0.9 3.3 2.6 3.5q2.9 0.4 5.7 0.4c12.1 0 21.9-5.8 26.5-16 0.7-1.6 0-3.4-1.6-4.1z"/>
				<path class="s11" d="m3875.4 1389.1c1.7-0.6 2.5-2.4 1.9-4.1-0.6-1.6-2.4-2.4-4-1.8-2.7 0.9-5.3 0.2-7-0.6-9.8-4.6-9.2-16.8-4-26.6 3.3-6.4 8.3-12.3 12.3-18.7 9.7-15.5 13.7-34.9 11.1-53.1-0.3-1.7-1.9-2.9-3.6-2.6-1.7 0.2-2.9 1.8-2.7 3.5 2.5 16.8-1.2 34.6-10.2 48.9-3.9 6.3-8.9 12.1-12.5 19.1-8.8 16.7-3.5 30.3 6.9 35.2 3.8 1.8 8 2.2 11.8 0.8z"/>
			</g>
			<g>
				<path class="s1" d="m3586.3 3979.9c-6.5-14.7-16.4-24.1-30.3-28.8-3.7-1.3-1.8-6.8 1.9-5.6 15.5 5.3 26.5 15.8 33.7 32 0.7 1.5 0 3.2-1.4 3.9-1.5 0.6-3.2 0-3.9-1.5z"/>
			</g>
			<g>
				<path class="s1" d="m3621 3961.1c-6.5-14.6-16.4-24.1-30.3-28.8-3.7-1.3-1.8-6.8 1.9-5.6 15.5 5.3 26.5 15.8 33.7 32 0.7 1.5 0 3.2-1.5 3.9-1.4 0.6-3.2 0-3.8-1.5z"/>
			</g>
			<g>
				<path class="s1" d="m3654.9 3945.7c-5.3-15.7-17.2-28.7-30.4-33.2-1.5-0.5-2.3-2.2-1.8-3.7 0.6-1.5 2.2-2.3 3.8-1.8 15 5.1 28 19.2 34 36.8 0.5 1.5-0.3 3.2-1.8 3.7-1.6 0.5-3.2-0.3-3.8-1.8z"/>
			</g>
			<g>
				<path class="s1" d="m3783.2 4026.5c-1.5 0-2.8-1.2-2.9-2.8l-0.1-0.7c-1.2-19.4 6.2-38.1 20.9-52.8 14.5-14.6 34.5-23.4 56.2-24.7 5.7-0.3 11.3-0.1 17.2 0.6 1.6 0.2 2.7 1.7 2.5 3.3-0.2 1.6-1.7 2.8-3.3 2.5-5.5-0.7-10.7-0.9-16-0.5-20.3 1.2-38.9 9.4-52.5 22.9-13.4 13.5-20.2 30.6-19.1 48.3v0.8c0.1 1.6-1.1 3-2.7 3.1q-0.1 0-0.2 0z"/>
			</g>
			<g>
				<path class="s1" d="m4437.5 3977.5c7.2-16.2 18.2-26.7 33.7-32 1.6-0.5 3.2 0.3 3.8 1.8 0.5 1.6-0.3 3.2-1.9 3.8-13.8 4.7-23.7 14.1-30.2 28.8-1.6 3.5-7 1.2-5.4-2.4z"/>
			</g>
			<g>
				<path class="s1" d="m4402.8 3958.7c7.2-16.2 18.3-26.7 33.7-32 3.8-1.2 5.6 4.3 2 5.6-13.9 4.7-23.8 14.2-30.3 28.8-1.6 3.6-7 1.2-5.4-2.4z"/>
			</g>
			<g>
				<path class="s1" d="m4368.6 3943.8c6-17.6 19.1-31.7 34.1-36.8 1.5-0.5 3.2 0.3 3.7 1.8 0.5 1.5-0.3 3.2-1.8 3.7-13.2 4.5-25.1 17.5-30.4 33.2-1.3 3.6-6.8 1.8-5.6-1.9z"/>
			</g>
			<g>
				<path class="s1" d="m4245.9 4026.5q0 0-0.1 0c-1.7-0.1-2.9-1.5-2.8-3.1l0.1-0.8c2.2-36.7-29.9-68.7-71.6-71.2-5.3-0.4-10.6-0.2-16.1 0.5-1.5 0.2-3-0.9-3.3-2.5-0.2-1.6 1-3.1 2.6-3.3 5.8-0.7 11.4-0.9 17.1-0.6 45 2.8 79.6 37.5 77.1 77.5v0.7c-0.1 1.6-1.4 2.8-3 2.8z"/>
			</g>
			<path class="s1" d="m4224.4 1187.7c-6.1 0.2-12.1 0.1-17.7-0.6-12-52.7-37.1-91.1-60-116.7-4.8-5.4-10-10.6-15.2-15.6 1.6-4.9 3.6-9.6 5.7-14 40.7 27 82.6 61.2 87.2 146.9z"/>
			<g>
				<path class="s1" d="m3986.8 2289.5c-8 0-15.9-0.7-23.7-2.1-2.3-0.5-3.8-2.6-3.4-4.9 0.4-2.3 2.6-3.8 4.9-3.4 24.7 4.6 50.9 1.4 73.8-9.1 22.9-10.4 42.8-28 65.1-41 16.3-9.5 48.2-23.8 77.4-12.2 2.2 0.9 3.2 3.3 2.4 5.5-0.9 2.1-3.3 3.2-5.5 2.3-25.9-10.3-55.1 2.9-70.1 11.7-22.1 12.9-41.9 30.5-65.9 41.4-17.1 7.8-36.1 11.8-55 11.8z"/>
			</g>
			<g>
				<path class="s1" d="m3779.9 2302.3c-1.6-1.6-1.6-4.3 0-5.9 17.6-17.4 18.9-44.4 18-58.9-1.2-21.8-7.5-43.8-9.9-66.1-5-47.5 11.4-81.7 58.1-94.8 2.2-0.6 4.5 0.7 5.2 2.9 0.6 2.3-0.7 4.6-2.9 5.2-42.8 12-56.6 42.7-52 85.8 2.3 22.1 8.6 43.9 9.9 66.5 1.6 27.6-5.7 50.8-20.5 65.4-1.6 1.6-4.3 1.6-5.9-0.1z"/>
			</g>
			<g>
				<path class="s1" d="m3736.9 2457.3c-2.1 0-3.9-1.6-4.1-3.7-2.3-20.4 9.6-41.3 28.4-49.6 16.1-7.1 36-5.6 61 4.3 17.8 7.1 36 16.9 55 18.2 17.7 1.3 38.4-7.8 42.3-25 0.5-2.2 2.7-3.6 5-3.1 2.3 0.5 3.7 2.7 3.2 5-4.9 21.6-29.8 32.9-51.1 31.5-20.6-1.5-39.2-11.5-57.5-18.8-22.8-9.1-40.6-10.6-54.5-4.4-15.3 6.7-25.4 24.4-23.5 41 0.2 2.3-1.4 4.3-3.7 4.6q-0.3 0-0.5 0z"/>
			</g>
			<g>
				<path class="s1" d="m3963.8 1987.3c-2.1 0-3.9-1.6-4.2-3.8-0.2-2.3 1.5-4.3 3.8-4.5 25.8-2.7 52.5-5.4 77.7-12.7 28.1-8.1 50.3-20.9 66.2-38 13.6-14.7 23.1-33.4 35.2-50.1 6.9-9.5 14.7-18.6 23.3-26.8 1.7-1.6 4.4-1.6 6 0.1 1.6 1.7 1.5 4.3-0.2 5.9-8.2 7.9-15.7 16.6-22.3 25.7-12 16.5-21.5 35.4-35.9 50.9-16.9 18.2-40.4 31.8-70 40.4-25.9 7.5-53 10.2-79.2 12.9q-0.2 0-0.4 0z"/>
			</g>
			<g>
				<path class="s1" d="m4078.2 2438c-20.8 0-37.8-14.1-37.8-31.5 0-17.4 17-31.5 37.8-31.5 20.9 0 37.8 14.1 37.8 31.5 0 17.4-16.9 31.5-37.8 31.5zm0-54.6c-16.2 0-29.4 10.4-29.4 23.1 0 12.8 13.2 23.1 29.4 23.1 16.2 0 29.4-10.3 29.4-23.1 0-12.7-13.2-23.1-29.4-23.1z"/>
			</g>
			<g>
				<path class="s1" d="m4149.5 2083.5c-11.7-11.8-7.7-34.6 8.8-50.9 16.8-16.6 39.2-20.2 51-8.2 11.8 12 8 34.4-8.8 50.9-14 13.8-37.6 21.8-51 8.2zm14.7-45c-13 12.9-17 30.7-8.8 39.1 10 10.1 29 1.9 39.2-8.2 13.2-13.1 17.1-30.6 8.7-39.1-9.7-9.8-28.2-2.5-39.1 8.2z"/>
			</g>
			<g>
				<path class="s1" d="m3761.8 2549.5c-5.2-15.5 1-31.7 14-36.1 13-4.5 27.9 4.6 33.2 20 5 14.7-0.3 31.5-14.1 36.1-13.7 4.7-28.1-5.3-33.1-20zm16.7-28.2c-8.6 3-12.5 14.4-8.7 25.5 4.2 12.3 14.8 17.4 22.4 14.8 7.6-2.6 13-13.1 8.8-25.4-3.4-10.1-13.1-18-22.5-14.9z"/>
			</g>
			<g>
				<path class="s1" d="m3976.7 2158.8c-17.6 0-31.9-11.9-31.9-26.7 0-14.7 14.3-26.7 31.9-26.7 17.6 0 31.9 12 31.9 26.7 0 14.8-14.3 26.7-31.9 26.7zm0-45c-12.9 0-23.5 8.2-23.5 18.3 0 10.1 10.6 18.3 23.5 18.3 13 0 23.5-8.2 23.5-18.3 0-10.1-10.5-18.3-23.5-18.3z"/>
			</g>
			<g>
				<path class="s1" d="m3714.3 1747.8c-7.4-12.8-1.2-30.3 14-39.2 14.4-8.5 33.1-6.5 41 6.9 8 13.6 0.2 30.8-14 39.1-14.4 8.5-33.2 6.5-41-6.8zm18.2-32c-11.1 6.6-16.1 19-11 27.7 4.6 7.7 17.3 11.1 29.6 3.9 12.3-7.2 15.5-19.9 11-27.7-4.6-7.8-17.4-11-29.6-3.9z"/>
			</g>
			<g>
				<path class="s1" d="m3378.1 2177c-19.3 0-34.3-10.8-34.3-24.5 0-13.5 15.4-24.6 34.3-24.6 18.9 0 34.2 11.1 34.2 24.6 0 13.7-15 24.5-34.2 24.5zm0-40.7c-14.1 0-25.9 7.4-25.9 16.2 0 8.7 11.8 16.1 25.9 16.1 14 0 25.9-7.4 25.9-16.1 0-8.8-11.9-16.2-25.9-16.2z"/>
			</g>
			<g>
				<path class="s7" d="m3139.8 3906.7c-18.9 0-34.2-15.3-34.2-34.2 0-18.9 15.3-34.2 34.2-34.2 18.8 0 34.2 15.3 34.2 34.2 0 18.9-15.4 34.2-34.2 34.2zm0-60c-14.2 0-25.8 11.6-25.8 25.8 0 14.2 11.6 25.9 25.8 25.9 14.2 0 25.8-11.7 25.8-25.9 0-14.2-11.6-25.8-25.8-25.8z"/>
			</g>
		</g>
	</g>
</svg>