<svg xmlns="http://www.w3.org/2000/svg" version="1.1" xmlns:xlink="http://www.w3.org/1999/xlink" width="30" height="30" x="0" y="0" viewBox="0 0 24 24" style="enable-background:new 0 0 512 512" xml:space="preserve" class=""><rect width="24" height="24" rx="4.8" ry="4.8" fill="#e3eaf0" shape="rounded" transform="matrix(1,0,0,1,0,0)"></rect><g transform="matrix(0.7,0,0,0.7,3.6000028610229506,3.5981607198715206)"><path d="M21 12a9 9 0 1 1-3.84-7.36l-.11-.32A1 1 0 0 1 19 3.68l1 3a1 1 0 0 1-.14.9A1 1 0 0 1 19 8h-3a1 1 0 0 1-1-1 1 1 0 0 1 .71-.94A7 7 0 1 0 19 12a1 1 0 0 1 2 0z" data-name="Layer 114" fill="#000000" opacity="1" data-original="#000000"></path></g></svg>