<svg xmlns="http://www.w3.org/2000/svg" version="1.1" xmlns:xlink="http://www.w3.org/1999/xlink" width="30" height="30" x="0" y="0" viewBox="0 0 24 24" style="enable-background:new 0 0 512 512" xml:space="preserve" class=""><rect width="24" height="24" rx="4.8" ry="4.8" fill="#000000" shape="rounded" transform="matrix(0.56,0,0,0.56,5.279999999999999,5.279999999999999)"></rect><g transform="matrix(-1.2000000000000015,-1.4695761589768248e-16,1.4695761589768248e-16,-1.2000000000000015,26.4,26.4)"><path d="M16.2 2H7.8C4.2 2 2 4.2 2 7.8v8.4C2 19.8 4.2 22 7.8 22h8.4c3.6 0 5.8-2.2 5.8-5.8V7.8C22 4.2 19.8 2 16.2 2zm-2.4 13c.3.3.3.8 0 1.1-.1.1-.3.2-.5.2s-.4-.1-.5-.2l-3.5-3.5c-.3-.3-.3-.8 0-1.1L12.8 8c.3-.3.8-.3 1.1 0s.3.8 0 1.1l-3 3z" fill="#e3eaf0" opacity="1" data-original="#000000" class=""></path></g></svg>