<svg xmlns="http://www.w3.org/2000/svg" version="1.1" xmlns:xlink="http://www.w3.org/1999/xlink" width="30" height="30" x="0" y="0" viewBox="0 0 512 512" style="enable-background:new 0 0 512 512" xml:space="preserve" class=""><g><g fill-rule="evenodd" clip-rule="evenodd"><circle cx="256" cy="256" r="256" fill="#ed2024" opacity="1" data-original="#24b9cc" class=""></circle><path fill="#fffffe" d="M370 202.1c-35.1-61-111.6-83.5-174.1-51.4-1.9 1-4.3-.1-4.7-2.3l-5.7-29.6-44.4 80.7 92 1.9-22.5-19.4c-1.8-1.5-1.4-4.4.7-5.4C259.2 153 317.2 170.8 344 217c28 48.5 11.3 110.8-37.2 138.8-48.5 28.1-110.7 11.5-138.7-37.1-11-19.1-15.6-41.4-12.8-63.2l-29.4-7.9c-4.6 29.6 1 60.1 16.1 86.2 36.3 62.9 117 84.5 179.9 48.2s84.5-117 48.1-179.9z" opacity="1" data-original="#fffffe" class=""></path></g></g></svg>