<svg xmlns="http://www.w3.org/2000/svg" version="1.1" xmlns:xlink="http://www.w3.org/1999/xlink" width="15" height="15" x="0" y="0" viewBox="0 0 74 74" style="enable-background:new 0 0 512 512" xml:space="preserve"><g><path d="M70.807 31.7H3.193a1 1 0 0 1-1-1v-7.294a1 1 0 0 1 .483-.856l33.8-20.406a1 1 0 0 1 1.033 0L71.323 22.55a1 1 0 0 1 .483.856V30.7a1 1 0 0 1-.999 1zm-66.613-2h65.613v-5.73L36.994 4.168l-32.8 19.8z" fill="#ffffff" opacity="1" data-original="#000000"></path><path d="M37 24.313a5.981 5.981 0 1 1 5.981-5.981A5.988 5.988 0 0 1 37 24.313zm0-9.963a3.981 3.981 0 1 0 3.981 3.981A3.986 3.986 0 0 0 37 14.35zM64.972 38.017H54.331a2.163 2.163 0 0 1-2.16-2.161V30.7a1 1 0 0 1 1-1h12.961a1 1 0 0 1 1 1v5.159a2.163 2.163 0 0 1-2.16 2.158zm-10.8-6.32v4.159a.161.161 0 0 0 .16.161h10.64a.161.161 0 0 0 .16-.161V31.7z" fill="#ffffff" opacity="1" data-original="#000000"></path><path d="M64.064 58.216h-8.826a1 1 0 0 1-1-1v-20.2a1 1 0 0 1 1-1h8.826a1 1 0 0 1 1 1v20.2a1 1 0 0 1-1 1zm-7.826-2h6.826v-18.2h-6.826z" fill="#ffffff" opacity="1" data-original="#000000"></path><path d="M66.132 64.536H53.171a1 1 0 0 1-1-1v-5.159a2.163 2.163 0 0 1 2.16-2.161h10.641a2.163 2.163 0 0 1 2.16 2.161v5.159a1 1 0 0 1-1 1zm-11.961-2h10.961v-4.159a.161.161 0 0 0-.16-.161H54.331a.161.161 0 0 0-.16.161zM42.32 38.017H31.68a2.163 2.163 0 0 1-2.16-2.161V30.7a1 1 0 0 1 1-1h12.96a1 1 0 0 1 1 1v5.159a2.163 2.163 0 0 1-2.16 2.158zM31.52 31.7v4.159a.161.161 0 0 0 .16.161h10.64a.161.161 0 0 0 .16-.161V31.7z" fill="#ffffff" opacity="1" data-original="#000000"></path><path d="M41.4 58.216h-8.8a1 1 0 0 1-1-1v-20.2a1 1 0 0 1 1-1h8.8a1 1 0 0 1 1 1v20.2a1 1 0 0 1-1 1zm-7.8-2h6.8v-18.2h-6.8z" fill="#ffffff" opacity="1" data-original="#000000"></path><path d="M43.48 64.536H30.52a1 1 0 0 1-1-1v-5.159a2.163 2.163 0 0 1 2.16-2.161h10.64a2.163 2.163 0 0 1 2.16 2.161v5.159a1 1 0 0 1-1 1zm-11.961-2H42.48v-4.159a.161.161 0 0 0-.16-.161H31.68a.161.161 0 0 0-.16.161zM20.669 38.017H10.028a2.163 2.163 0 0 1-2.16-2.161V30.7a1 1 0 0 1 1-1h12.961a1 1 0 0 1 1 1v5.159a2.163 2.163 0 0 1-2.16 2.158zM9.868 31.7v4.159a.161.161 0 0 0 .16.161h10.641a.161.161 0 0 0 .16-.161V31.7z" fill="#ffffff" opacity="1" data-original="#000000"></path><path d="M19.8 58.216h-8.9a1 1 0 0 1-1-1v-20.2a1 1 0 0 1 1-1h8.9a1 1 0 0 1 1 1v20.2a1 1 0 0 1-1 1zm-7.9-2h6.9v-18.2h-6.9z" fill="#ffffff" opacity="1" data-original="#000000"></path><path d="M21.829 64.536H8.868a1 1 0 0 1-1-1v-5.159a2.163 2.163 0 0 1 2.16-2.161h10.641a2.163 2.163 0 0 1 2.16 2.161v5.159a1 1 0 0 1-1 1zm-11.961-2h10.961v-4.159a.161.161 0 0 0-.16-.161H10.028a.161.161 0 0 0-.16.161z" fill="#ffffff" opacity="1" data-original="#000000"></path><path d="M71 72H3a1 1 0 0 1-1-1v-7.464a1 1 0 0 1 1-1h68a1 1 0 0 1 1 1V71a1 1 0 0 1-1 1zM4 70h66v-5.464H4z" fill="#ffffff" opacity="1" data-original="#000000"></path></g></svg>