<svg xmlns="http://www.w3.org/2000/svg" version="1.1" xmlns:xlink="http://www.w3.org/1999/xlink" width="40" height="40" x="0" y="0" viewBox="0 0 24 24" style="enable-background:new 0 0 512 512" xml:space="preserve" class=""><g><path d="M12 1.5C6.21 1.5 1.5 6.21 1.5 12S6.21 22.5 12 22.5 22.5 17.79 22.5 12 17.79 1.5 12 1.5zm8.82 7h-3.63c-.43-2.38-1.28-4.34-2.4-5.58 2.76.85 4.97 2.92 6.03 5.58zm.68 3.5c0 .87-.13 1.7-.34 2.5h-3.81c.1-.8.16-1.63.16-2.5s-.06-1.7-.16-2.5h3.81c.22.8.34 1.63.34 2.5zm-19 0c0-.87.13-1.7.34-2.5h3.81c-.1.8-.16 1.63-.16 2.5s.06 1.7.16 2.5H2.84c-.22-.8-.34-1.63-.34-2.5zm5 0c0-.86.06-1.7.17-2.5h3.83v5H7.67c-.11-.8-.17-1.64-.17-2.5zm8.67-3.5H12.5V2.57c1.65.41 3.05 2.77 3.67 5.93zM11.5 2.57V8.5H7.83c.61-3.16 2.02-5.53 3.67-5.93zm0 12.93v5.93c-1.65-.41-3.05-2.77-3.67-5.93zm1 5.93V15.5h3.67c-.61 3.16-2.02 5.53-3.67 5.93zm0-6.93v-5h3.83a18.406 18.406 0 0 1 0 5zM9.21 2.92c-1.12 1.24-1.97 3.2-2.4 5.58H3.18a9.55 9.55 0 0 1 6.03-5.58zM3.18 15.5h3.63c.43 2.38 1.28 4.34 2.4 5.58a9.526 9.526 0 0 1-6.03-5.58zm11.61 5.58c1.12-1.24 1.97-3.2 2.4-5.58h3.63a9.55 9.55 0 0 1-6.03 5.58z" fill="#ff577a" opacity="1" data-original="#000000"></path></g></svg>