<svg xmlns="http://www.w3.org/2000/svg" version="1.1" xmlns:xlink="http://www.w3.org/1999/xlink" width="30" height="30" x="0" y="0" viewBox="0 0 24 24" style="enable-background:new 0 0 512 512" xml:space="preserve" class=""><g><g fill="#000"><path d="M18 2a3 3 0 1 1 0 6 3 3 0 0 1 0-6zM9.707 5.293a1 1 0 0 0-1.414 0l-6 6a1 1 0 1 0 1.414 1.414L4 12.414V15a1 1 0 0 0 1 1h6a1 1 0 1 0 0-2H6v-3.586l3-3 1.543 1.543a1 1 0 1 0 1.414-1.414z" fill="#ee2124" opacity="1" data-original="#000000"></path><path d="M17.894 8.553a1 1 0 0 0-1.136-.523l-4 1a1 1 0 0 0-.652.523l-1 2a1 1 0 1 0 1.788.894l.795-1.588 1.656-.414-1.274 3.184a1 1 0 0 0 .176 1.03l3.253 3.717V21a1 1 0 1 0 2 0v-3a1 1 0 0 0-.247-.658l-3.097-3.54.945-2.363.505 1.008a1 1 0 0 0 1.09.534l2.5-.5a1 1 0 0 0-.392-1.962l-1.751.35z" fill="#ee2124" opacity="1" data-original="#000000"></path><path d="M13.53 16.758a1 1 0 1 1 1.94.485l-.5 2a.999.999 0 0 1-.263.464l-2 2a1 1 0 0 1-1.414-1.414l1.804-1.804z" fill="#ee2124" opacity="1" data-original="#000000"></path></g></g></svg>